{"glyphs":{"0":{"ha":846,"x_min":47,"x_max":798,"o":"m 423 734 q 569 705 500 734 q 688 625 637 675 q 769 505 739 574 q 798 359 798 437 q 769 213 798 281 q 688 94 739 144 q 569 13 637 43 q 423 -16 500 -16 q 277 13 345 -16 q 157 94 208 43 q 77 213 106 144 q 47 359 47 281 q 77 505 47 437 q 157 625 106 574 q 277 705 208 675 q 423 734 345 734 m 423 577 q 341 560 380 577 q 275 514 303 543 q 230 445 246 485 q 213 359 213 405 q 230 274 213 313 q 275 204 246 234 q 341 158 303 175 q 423 141 380 141 q 504 158 466 141 q 571 204 543 175 q 616 274 600 234 q 633 359 633 313 q 616 445 633 405 q 571 514 600 485 q 504 560 543 543 q 423 577 466 577 z "},"1":{"ha":583,"x_min":61,"x_max":431,"o":"m 357 741 l 431 684 l 431 0 l 245 0 l 245 558 l 107 505 l 61 626 l 357 741 z "},"2":{"ha":728,"x_min":81,"x_max":646,"o":"m 91 671 q 230 718 154 702 q 380 734 306 734 q 485 724 436 734 q 570 690 534 713 q 626 627 606 666 q 646 530 646 587 q 631 437 646 474 q 587 372 616 399 q 514 324 558 345 q 414 278 471 302 q 356 253 380 264 q 316 234 332 243 q 290 215 300 224 q 274 195 279 206 q 267 168 269 183 q 264 132 264 153 l 636 132 l 636 0 l 81 0 l 81 94 q 98 208 81 160 q 147 290 115 255 q 224 350 179 324 q 327 398 270 376 q 384 421 359 411 q 427 445 410 431 q 454 476 445 458 q 464 526 464 495 q 456 565 464 549 q 433 590 448 581 q 400 603 419 600 q 359 607 381 607 q 310 603 337 607 q 254 593 283 600 q 197 576 226 586 q 142 553 168 566 l 91 671 z "},"3":{"ha":744,"x_min":68,"x_max":676,"o":"m 127 739 q 172 724 152 729 q 217 715 193 718 q 274 710 241 711 q 356 709 306 709 l 588 709 l 588 605 l 427 425 q 524 408 477 423 q 604 358 570 393 q 659 270 641 321 q 676 165 676 218 q 654 51 676 101 q 594 -38 632 1 q 503 -103 555 -76 q 389 -148 450 -130 q 301 -169 343 -161 q 219 -181 258 -177 q 141 -186 179 -185 q 68 -189 104 -188 l 68 -52 q 174 -41 121 -48 q 273 -22 226 -35 q 359 9 319 -9 q 428 51 399 27 q 474 104 457 74 q 490 171 490 134 q 481 227 490 203 q 454 264 471 250 q 414 284 437 278 q 364 291 391 291 q 307 285 337 291 q 247 269 277 279 l 196 370 l 370 570 l 286 570 q 235 572 262 570 q 180 577 208 573 q 125 588 153 581 q 75 607 98 595 l 127 739 z "},"4":{"ha":848,"x_min":54,"x_max":793,"o":"m 277 524 q 311 592 298 564 q 332 643 323 619 q 347 690 340 666 q 361 747 353 713 l 536 710 q 528 659 532 682 q 516 613 524 635 q 498 566 509 590 q 473 513 488 542 l 286 139 l 497 139 l 497 289 l 679 289 l 679 139 l 793 139 l 793 0 l 679 0 l 679 -186 l 497 -186 l 497 0 l 81 0 l 54 84 l 277 524 z "},"5":{"ha":751,"x_min":68,"x_max":676,"o":"m 366 709 q 449 710 416 709 q 505 715 481 711 q 550 724 530 718 q 595 739 570 729 l 647 607 q 596 588 623 595 q 542 577 570 581 q 487 572 514 573 q 437 570 460 570 l 310 570 l 300 405 q 356 419 326 414 q 419 425 387 425 q 520 409 471 425 q 604 358 569 393 q 659 270 641 321 q 676 165 676 218 q 654 51 676 101 q 594 -38 632 1 q 503 -103 555 -76 q 389 -148 450 -130 q 301 -169 343 -161 q 219 -181 258 -177 q 141 -186 179 -185 q 68 -189 104 -188 l 68 -52 q 174 -41 121 -48 q 273 -22 226 -35 q 359 9 319 -9 q 428 51 399 27 q 474 104 457 74 q 490 171 490 134 q 481 227 490 203 q 454 264 471 250 q 414 284 437 278 q 364 291 391 291 q 293 282 330 291 q 217 258 256 274 l 117 330 l 140 709 l 366 709 z "},"6":{"ha":804,"x_min":70,"x_max":739,"o":"m 663 779 q 640 780 651 779 q 616 780 628 780 q 494 769 549 780 q 397 731 439 758 q 327 664 355 705 q 283 561 298 622 q 361 581 317 573 q 452 588 405 588 q 512 584 482 588 q 571 571 543 580 q 624 549 599 563 q 668 514 648 534 q 720 422 701 477 q 739 295 739 367 q 709 144 739 204 q 633 48 680 84 q 526 -2 585 13 q 404 -16 466 -16 q 322 -11 363 -16 q 243 9 281 -5 q 173 48 205 23 q 117 115 140 74 q 81 213 94 155 q 70 349 68 270 q 83 494 72 427 q 117 624 95 562 q 169 728 138 684 q 237 803 199 772 q 317 853 275 833 q 404 883 359 872 q 491 897 448 893 q 576 901 535 901 q 621 900 600 901 q 663 898 643 899 l 663 779 m 415 460 q 265 426 330 460 q 258 372 260 399 q 256 322 256 344 q 263 241 256 279 q 288 174 271 203 q 334 128 305 145 q 405 111 363 111 q 469 124 441 111 q 515 161 496 138 q 543 219 534 185 q 553 292 553 252 q 547 366 553 334 q 525 420 541 398 q 478 452 508 444 q 415 460 448 460 z "},"7":{"ha":741,"x_min":61,"x_max":686,"o":"m 431 709 q 504 711 473 709 q 559 715 534 712 q 606 723 583 719 q 653 734 628 727 l 686 636 q 575 467 621 541 q 499 332 530 393 q 450 216 468 270 q 424 106 433 162 q 417 53 420 79 q 413 -1 414 27 q 411 -60 411 -28 q 410 -130 410 -91 l 410 -180 l 224 -180 q 227 -30 224 -97 q 238 98 229 37 q 264 217 246 159 q 312 342 281 276 q 368 448 336 393 q 443 570 400 503 l 61 570 l 61 709 l 431 709 z "},"8":{"ha":818,"x_min":68,"x_max":750,"o":"m 412 891 q 473 887 441 891 q 538 873 506 883 q 601 848 571 864 q 654 809 631 833 q 691 752 677 785 q 705 675 705 719 q 610 477 705 555 q 668 441 642 461 q 712 393 694 420 q 740 332 730 366 q 750 252 750 297 q 735 158 750 199 q 693 88 720 117 q 633 38 667 58 q 560 6 598 18 q 483 -11 522 -6 q 409 -16 444 -16 q 332 -11 372 -16 q 254 6 292 -6 q 182 38 216 18 q 123 88 149 58 q 83 160 98 118 q 68 256 68 201 q 79 330 68 296 q 109 393 90 364 q 155 444 128 421 q 216 485 182 467 q 178 517 195 499 q 149 557 161 534 q 129 609 136 580 q 122 675 122 638 q 136 752 122 719 q 173 809 150 785 q 227 849 197 833 q 289 874 256 865 q 353 887 321 884 q 412 891 385 891 m 412 773 q 365 767 387 773 q 328 749 343 762 q 303 718 312 737 q 294 673 294 699 q 311 612 294 635 q 355 575 328 589 q 414 553 381 561 q 478 537 446 545 q 505 568 494 551 q 522 603 515 585 q 530 639 528 621 q 532 673 532 657 q 523 718 532 699 q 498 749 514 737 q 459 767 481 762 q 412 773 437 773 m 340 406 q 299 377 317 392 q 271 344 282 361 q 255 305 260 326 q 250 256 250 283 q 292 142 250 182 q 409 102 333 102 q 526 141 484 102 q 568 252 568 180 q 547 323 568 297 q 494 365 526 350 q 420 389 461 380 q 340 406 380 397 z "},"9":{"ha":804,"x_min":68,"x_max":736,"o":"m 144 -60 q 167 -61 155 -61 q 190 -62 178 -62 q 313 -51 258 -62 q 409 -13 368 -39 q 479 55 451 13 q 524 157 508 96 q 445 138 489 145 q 355 130 401 130 q 294 134 324 130 q 236 147 264 138 q 183 170 208 155 q 138 204 158 184 q 86 296 105 241 q 68 423 68 351 q 81 530 68 484 q 118 612 94 577 q 174 670 142 646 q 242 708 205 693 q 320 728 279 722 q 402 734 361 734 q 485 729 444 734 q 564 709 526 724 q 634 670 602 695 q 689 604 666 644 q 726 505 713 563 q 736 370 739 448 q 723 224 734 292 q 690 94 711 157 q 637 -11 669 33 q 568 -86 606 -55 q 487 -136 530 -117 q 400 -165 444 -155 q 313 -179 356 -175 q 231 -182 270 -182 q 184 -182 206 -182 q 144 -180 163 -181 l 144 -60 m 401 607 q 337 594 365 607 q 291 556 310 581 q 263 499 273 532 q 254 426 254 466 q 260 352 254 384 q 281 298 266 320 q 328 266 298 275 q 391 258 358 258 q 541 292 476 258 q 549 347 547 319 q 551 396 551 374 q 543 477 551 439 q 518 544 536 515 q 472 590 501 573 q 401 607 444 607 z "},"\u0000":{"ha":1389,"x_min":0,"x_max":0,"o":""},"\r":{"ha":1389,"x_min":0,"x_max":0,"o":""}," ":{"ha":387,"x_min":0,"x_max":0,"o":""},"!":{"ha":482,"x_min":102,"x_max":360,"o":"m 102 916 q 163 971 126 953 q 238 990 200 990 q 284 982 262 990 q 323 959 306 975 q 350 919 340 943 q 360 863 360 895 l 332 286 l 184 263 l 157 803 l 102 916 m 252 178 q 291 170 273 178 q 321 150 309 163 q 340 119 334 136 q 347 82 347 102 q 340 45 347 62 q 319 15 332 28 q 289 -6 306 1 q 252 -14 271 -14 q 215 -6 232 -14 q 184 15 197 1 q 163 45 171 28 q 156 82 156 62 q 164 121 156 103 q 185 151 172 138 q 215 171 198 163 q 252 178 233 178 z "},"\"":{"ha":638,"x_min":47,"x_max":598,"o":"m 375 951 q 434 981 402 970 q 495 991 465 991 q 534 986 515 991 q 567 968 553 980 q 590 939 581 956 q 598 897 598 921 q 590 843 598 869 q 565 788 582 818 q 523 720 548 758 q 464 629 498 682 l 347 629 l 418 825 l 375 951 m 75 949 q 134 980 102 969 q 195 991 165 991 q 234 985 216 991 q 267 967 253 979 q 290 938 281 956 q 298 897 298 920 q 290 843 298 868 q 265 787 282 817 q 223 719 248 757 q 164 628 198 681 l 47 628 l 119 824 l 75 949 z "},"#":{"ha":876,"x_min":65,"x_max":810,"o":"m 703 648 l 650 504 l 810 504 l 779 419 l 622 419 l 574 293 l 734 293 l 704 207 l 543 207 l 490 64 l 402 64 l 450 207 l 315 207 l 261 64 l 168 64 l 222 207 l 65 207 l 95 293 l 252 293 l 300 419 l 136 419 l 170 504 l 331 504 l 384 648 l 471 648 l 418 504 l 562 504 l 614 648 l 703 648 m 530 419 l 389 419 l 345 293 l 482 293 l 530 419 z "},"$":{"ha":863,"x_min":69,"x_max":794,"o":"m 498 1065 l 498 988 q 613 970 551 983 q 733 932 675 957 l 685 814 q 595 841 642 829 q 498 856 549 852 l 498 585 q 552 570 522 578 q 616 548 583 562 q 681 513 649 534 q 738 459 713 492 q 779 381 763 427 q 794 274 794 336 q 781 183 794 223 q 747 113 768 143 q 696 62 725 83 q 634 26 667 41 q 566 3 601 12 q 498 -9 531 -5 l 498 -89 l 359 -89 l 359 -15 q 292 -9 328 -13 q 219 3 256 -5 q 143 22 181 11 q 69 50 104 33 l 119 169 q 231 135 172 149 q 359 118 290 121 l 359 441 q 309 453 338 446 q 248 473 279 460 q 184 506 216 486 q 127 557 153 526 q 87 633 102 589 q 71 737 71 677 q 97 844 71 800 q 164 919 123 889 q 256 965 205 949 q 359 988 308 982 l 359 1065 l 498 1065 m 359 848 q 289 810 315 836 q 264 738 264 783 q 270 694 264 712 q 288 662 276 675 q 318 639 300 648 q 359 621 336 629 l 359 848 m 498 135 q 574 185 546 151 q 602 274 602 219 q 594 322 602 302 q 574 358 587 342 q 542 384 561 373 q 498 404 522 395 l 498 135 z "},"%":{"ha":882,"x_min":81,"x_max":800,"o":"m 263 924 q 326 918 294 924 q 384 891 357 911 q 427 831 410 870 q 444 728 444 792 q 427 624 444 663 q 384 564 410 585 q 326 536 357 543 q 263 529 294 529 q 200 536 233 529 q 142 563 168 543 q 98 623 115 584 q 81 728 81 663 q 98 832 81 793 q 142 891 115 871 q 200 918 168 912 q 263 924 233 924 m 263 859 q 224 849 240 859 q 198 822 208 839 q 184 780 189 804 q 180 728 180 756 q 184 674 180 699 q 198 633 189 650 q 224 606 208 616 q 263 597 240 597 q 301 606 286 597 q 328 633 317 616 q 342 674 338 650 q 347 728 347 698 q 342 781 347 757 q 328 822 338 805 q 301 849 317 840 q 263 859 286 859 m 755 753 l 755 652 l 126 181 l 126 281 l 755 753 m 620 404 q 682 398 650 404 q 740 371 714 391 q 783 311 766 350 q 800 208 800 272 q 783 104 800 143 q 740 44 766 65 q 682 16 714 22 q 620 9 650 9 q 557 16 589 9 q 498 43 525 22 q 455 103 472 64 q 438 208 438 142 q 455 312 438 273 q 498 371 472 351 q 557 398 525 392 q 620 404 589 404 m 620 338 q 581 329 597 338 q 555 301 565 319 q 541 260 545 284 q 536 208 536 236 q 541 154 536 178 q 555 113 545 130 q 581 86 565 96 q 620 77 597 77 q 658 86 642 77 q 684 113 674 96 q 699 154 694 130 q 703 208 703 178 q 699 261 703 237 q 684 302 694 285 q 658 329 674 319 q 620 338 642 338 z "},"&":{"ha":1119,"x_min":66,"x_max":1051,"o":"m 1051 165 q 995 75 1020 111 q 946 20 970 40 q 898 -9 922 -1 q 844 -17 873 -17 q 798 -13 820 -17 q 755 1 777 -9 q 710 31 734 12 q 660 80 687 50 q 605 40 636 58 q 536 9 573 22 q 459 -9 500 -3 q 378 -16 419 -16 q 241 4 300 -16 q 144 62 183 25 q 86 149 105 98 q 66 258 66 199 q 83 350 66 304 q 134 438 99 395 q 194 499 159 469 q 278 565 230 530 q 235 625 254 597 q 202 679 216 652 q 182 731 189 705 q 175 787 175 757 q 187 858 175 823 q 225 918 199 892 q 270 952 244 939 q 325 975 295 966 q 387 986 354 983 q 453 990 419 990 q 577 981 515 990 q 690 961 640 972 l 642 824 q 604 833 624 828 q 562 841 583 838 q 519 847 541 844 q 477 849 497 849 q 434 846 454 849 q 400 834 414 842 q 377 813 385 827 q 368 781 368 800 q 372 749 368 764 q 385 717 376 734 q 407 680 393 700 q 440 634 420 659 l 678 327 q 706 391 694 355 q 724 466 719 427 l 633 466 l 633 579 l 1004 579 l 1004 466 l 881 466 q 839 314 865 382 q 780 195 812 245 q 800 170 789 182 q 820 146 810 157 q 840 130 830 136 q 859 124 849 124 q 875 130 867 124 q 894 148 884 135 q 918 183 905 161 q 951 237 932 205 l 1051 165 m 361 456 q 311 416 333 438 q 275 369 290 394 q 252 319 260 345 q 245 268 245 293 q 255 213 245 239 q 287 168 265 187 q 340 136 308 148 q 416 125 372 125 q 499 140 458 125 q 570 184 540 156 l 361 456 z "},"'":{"ha":339,"x_min":47,"x_max":298,"o":"m 75 950 q 134 980 102 970 q 195 991 165 991 q 234 985 216 991 q 267 967 253 979 q 290 938 281 956 q 298 897 298 920 q 290 843 298 868 q 265 787 282 817 q 223 719 248 757 q 164 628 198 681 l 47 628 l 119 824 l 75 950 z "},"(":{"ha":563,"x_min":109,"x_max":454,"o":"m 365 -142 q 259 -41 307 -98 q 179 84 212 16 q 127 231 146 153 q 109 396 109 309 q 127 561 109 483 q 179 708 146 640 q 259 833 212 776 q 365 934 307 890 l 454 897 q 381 781 412 836 q 330 666 350 725 q 300 542 309 608 q 290 396 290 477 q 300 250 290 315 q 330 126 309 184 q 381 12 350 67 q 454 -105 412 -44 l 365 -142 z "},")":{"ha":563,"x_min":109,"x_max":454,"o":"m 199 934 q 304 833 256 890 q 385 708 351 776 q 436 561 418 640 q 454 396 454 483 q 436 231 454 309 q 385 84 418 153 q 304 -41 351 16 q 199 -142 256 -98 l 109 -105 q 183 12 152 -44 q 234 126 214 67 q 264 250 254 184 q 273 396 273 315 q 264 542 273 477 q 234 666 254 608 q 183 781 214 725 q 109 897 152 836 l 199 934 z "},"*":{"ha":745,"x_min":130,"x_max":617,"o":"m 421 989 l 429 823 l 587 865 l 617 777 l 463 719 l 553 582 l 478 528 l 374 656 l 271 528 l 196 582 l 286 720 l 130 779 l 160 867 l 319 823 l 328 989 l 421 989 z "},"+":{"ha":825,"x_min":102,"x_max":723,"o":"m 477 692 l 477 446 l 723 446 l 723 317 l 477 317 l 477 71 l 348 71 l 348 317 l 102 317 l 102 446 l 348 446 l 348 692 l 477 692 z "},",":{"ha":473,"x_min":100,"x_max":328,"o":"m 125 115 q 179 142 150 132 q 235 152 208 152 q 271 147 254 152 q 300 131 288 142 q 321 104 313 120 q 328 66 328 88 q 321 17 328 41 q 298 -33 313 -6 q 260 -95 283 -60 q 206 -178 237 -130 l 100 -178 l 165 0 l 125 115 z "},"-":{"ha":830,"x_min":138,"x_max":692,"o":"m 692 446 l 692 317 l 138 317 l 138 446 l 692 446 z "},".":{"ha":463,"x_min":136,"x_max":327,"o":"m 231 178 q 271 170 253 178 q 301 150 288 163 q 320 119 313 136 q 327 82 327 102 q 319 45 327 62 q 299 15 312 28 q 268 -6 286 1 q 231 -14 251 -14 q 194 -6 212 -14 q 164 15 177 1 q 143 45 151 28 q 136 82 136 62 q 143 121 136 103 q 164 151 151 138 q 195 171 178 163 q 231 178 212 178 z "},"/":{"ha":915,"x_min":75,"x_max":840,"o":"m 840 975 l 230 0 l 75 0 l 685 975 l 840 975 z "},":":{"ha":454,"x_min":127,"x_max":328,"o":"m 227 602 q 268 594 250 602 q 300 572 287 586 q 320 540 313 558 q 328 501 328 522 q 320 463 328 481 q 298 430 312 444 q 266 409 284 416 q 227 401 248 401 q 189 409 207 401 q 156 430 170 416 q 135 463 142 444 q 127 501 127 481 q 135 542 127 524 q 157 573 143 560 q 189 594 171 587 q 227 602 207 602 m 227 187 q 268 179 250 187 q 300 158 287 172 q 320 125 313 144 q 328 87 328 107 q 320 48 328 66 q 298 16 312 30 q 266 -6 284 2 q 227 -14 248 -14 q 189 -6 207 -14 q 156 16 170 2 q 135 48 142 30 q 127 87 127 66 q 135 127 127 109 q 157 159 143 146 q 189 180 171 172 q 227 187 207 187 z "},";":{"ha":491,"x_min":138,"x_max":367,"o":"m 267 602 q 308 594 289 602 q 339 572 326 586 q 360 540 353 558 q 367 501 367 522 q 359 463 367 481 q 337 430 351 444 q 305 409 323 416 q 267 401 287 401 q 228 409 246 401 q 196 430 210 416 q 174 463 182 444 q 166 501 166 481 q 174 542 166 524 q 196 573 182 560 q 228 594 210 587 q 267 602 246 602 m 163 115 q 217 142 188 132 q 273 152 245 152 q 309 147 292 152 q 338 131 326 142 q 359 104 351 120 q 366 66 366 88 q 359 17 366 41 q 336 -33 351 -6 q 298 -95 321 -60 q 244 -178 275 -130 l 138 -178 l 203 0 l 163 115 z "},"<":{"ha":764,"x_min":68,"x_max":696,"o":"m 696 711 l 696 539 l 267 351 l 696 161 l 696 -14 l 68 298 l 68 404 l 696 711 z "},"=":{"ha":825,"x_min":102,"x_max":723,"o":"m 723 574 l 723 446 l 102 446 l 102 574 l 723 574 m 723 317 l 723 188 l 102 188 l 102 317 l 723 317 z "},">":{"ha":764,"x_min":68,"x_max":696,"o":"m 68 711 l 696 404 l 696 298 l 68 -14 l 68 161 l 497 351 l 68 539 l 68 711 z "},"?":{"ha":811,"x_min":81,"x_max":689,"o":"m 81 924 q 230 974 153 957 q 379 991 307 991 q 509 976 452 991 q 606 930 566 960 q 668 853 646 899 q 689 745 689 807 q 670 644 689 686 q 614 568 651 602 q 521 507 576 535 q 394 448 466 479 l 394 286 l 232 259 l 191 508 q 291 550 246 532 q 371 583 336 568 q 431 614 406 599 q 473 647 456 629 q 497 687 489 665 q 505 740 505 709 q 494 791 505 770 q 466 825 484 812 q 422 844 448 838 q 366 850 397 850 q 310 846 340 850 q 251 834 281 842 q 191 815 220 826 q 132 793 161 805 l 81 924 m 313 178 q 352 170 334 178 q 382 150 370 163 q 401 119 395 136 q 408 82 408 102 q 401 45 408 62 q 380 15 393 28 q 350 -6 367 1 q 313 -14 332 -14 q 276 -6 293 -14 q 245 15 258 1 q 224 45 232 28 q 217 82 217 62 q 225 121 217 103 q 246 151 233 138 q 276 171 259 163 q 313 178 294 178 z "},"@":{"ha":1181,"x_min":79,"x_max":1101,"o":"m 590 -149 q 453 -131 519 -149 q 330 -81 387 -113 q 227 -4 273 -50 q 148 95 180 41 q 97 213 115 150 q 79 344 79 276 q 97 475 79 412 q 148 592 115 538 q 227 692 180 647 q 330 769 273 737 q 453 819 387 801 q 590 836 518 836 q 727 819 661 836 q 850 769 793 801 q 953 692 907 737 q 1033 592 1000 647 q 1083 475 1065 538 q 1101 344 1101 412 q 1081 230 1101 279 q 1025 147 1061 181 q 941 96 989 113 q 836 79 892 79 q 796 79 814 79 q 761 80 778 79 q 727 82 744 81 q 690 85 709 83 q 686 111 688 97 q 682 139 684 124 q 680 166 681 153 q 679 194 679 180 l 672 194 q 642 139 658 161 q 607 104 625 117 q 570 86 589 92 q 532 81 551 81 q 483 87 508 81 q 437 111 458 94 q 399 157 416 127 q 375 233 383 186 q 370 272 372 252 q 368 314 368 292 q 386 449 368 394 q 438 538 404 504 q 518 587 471 572 q 624 604 566 602 q 701 597 654 604 q 806 574 747 591 l 799 399 q 797 359 798 382 q 795 312 796 336 q 794 264 795 288 q 793 221 793 240 q 793 212 793 218 q 794 201 793 207 q 794 191 794 195 q 795 184 795 186 q 804 183 798 183 q 816 182 810 182 q 828 182 822 182 q 836 182 833 182 q 940 220 903 182 q 978 344 978 259 q 948 489 978 421 q 865 608 918 557 q 742 687 813 658 q 590 716 671 716 q 438 687 509 716 q 315 608 367 658 q 232 489 262 557 q 202 344 202 421 q 232 198 202 267 q 315 80 262 130 q 438 1 367 30 q 590 -28 509 -28 l 629 -28 l 629 -149 l 590 -149 m 682 503 q 659 507 671 505 q 633 509 646 509 q 558 492 586 509 q 515 447 530 475 q 496 384 500 419 q 492 313 492 349 q 493 270 492 294 q 499 226 494 246 q 515 192 505 205 q 545 178 526 178 q 580 186 564 178 q 610 212 596 195 q 644 264 628 233 q 674 333 659 295 l 682 503 z "},"A":{"ha":986,"x_min":28,"x_max":955,"o":"m 587 975 l 955 0 l 764 0 l 652 300 l 331 300 l 220 0 l 28 0 l 397 975 l 587 975 m 492 774 l 381 436 l 602 436 l 492 774 z "},"B":{"ha":914,"x_min":124,"x_max":850,"o":"m 488 975 q 608 963 551 975 q 708 923 665 950 q 775 853 750 896 q 800 750 800 810 q 791 675 800 708 q 767 615 783 642 q 728 570 751 589 q 677 536 706 550 l 677 529 q 740 503 709 522 q 795 454 771 484 q 835 384 820 424 q 850 296 850 345 q 824 158 850 215 q 751 67 798 102 q 641 16 705 32 q 503 0 577 0 l 124 0 l 124 975 l 488 975 m 424 593 q 511 600 475 593 q 569 621 547 606 q 603 660 592 636 q 614 718 614 684 q 603 776 614 752 q 569 814 592 800 q 511 836 547 829 q 424 843 475 843 l 310 843 l 310 593 l 424 593 m 448 132 q 610 170 555 132 q 665 296 665 208 q 610 422 665 385 q 448 460 555 460 l 310 460 l 310 132 l 448 132 z "},"C":{"ha":874,"x_min":78,"x_max":819,"o":"m 819 27 q 686 -4 758 7 q 539 -16 614 -16 q 325 13 412 -16 q 182 103 237 43 q 102 256 127 164 q 78 473 78 348 q 102 700 78 603 q 178 861 126 797 q 313 958 231 926 q 513 990 395 990 q 594 986 554 990 q 671 975 635 982 q 739 960 707 968 q 795 941 770 951 l 750 805 q 647 836 702 823 q 532 849 593 849 q 410 827 460 849 q 329 762 359 806 q 284 650 298 718 q 271 493 271 583 q 286 327 271 397 q 334 213 300 258 q 421 146 367 168 q 552 125 475 125 q 670 136 611 125 q 781 163 730 146 l 819 27 z "},"D":{"ha":966,"x_min":123,"x_max":895,"o":"m 387 975 q 535 967 467 975 q 660 937 603 958 q 772 870 727 912 q 845 772 818 829 q 884 644 872 715 q 895 490 895 573 q 883 336 895 408 q 844 208 871 265 q 771 108 816 151 q 660 40 726 66 q 535 9 603 18 q 387 0 467 0 l 123 0 l 123 975 l 387 975 m 340 138 q 522 154 452 138 q 633 210 593 170 q 688 317 673 250 q 703 486 703 384 q 688 655 703 587 q 636 763 673 723 q 535 821 599 804 q 374 838 471 838 l 313 838 l 313 138 l 340 138 z "},"E":{"ha":808,"x_min":123,"x_max":721,"o":"m 707 975 l 707 836 l 313 836 l 313 615 l 591 615 l 591 476 l 313 476 l 313 139 l 721 139 l 721 0 l 123 0 l 123 975 l 707 975 z "},"F":{"ha":761,"x_min":123,"x_max":707,"o":"m 707 975 l 707 836 l 313 836 l 313 615 l 591 615 l 591 476 l 313 476 l 313 0 l 123 0 l 123 975 l 707 975 z "},"G":{"ha":980,"x_min":78,"x_max":884,"o":"m 884 47 q 816 21 854 33 q 734 1 778 9 q 644 -12 691 -7 q 551 -16 597 -16 q 343 8 432 -16 q 195 90 254 33 q 107 240 136 146 q 78 474 78 334 q 109 719 78 620 q 196 879 139 818 q 334 966 253 939 q 515 992 415 992 q 602 988 558 992 q 688 975 646 983 q 771 952 731 966 q 845 922 810 939 l 793 790 q 657 837 724 823 q 531 851 591 851 q 414 830 463 851 q 333 765 365 808 q 286 653 301 721 q 271 494 271 586 q 286 328 271 397 q 335 213 302 258 q 421 146 369 168 q 546 125 473 125 q 621 130 583 125 q 699 145 659 136 l 699 380 l 543 380 l 543 518 l 884 518 l 884 47 z "},"H":{"ha":1057,"x_min":123,"x_max":933,"o":"m 933 975 l 933 0 l 744 0 l 744 475 l 313 475 l 313 0 l 123 0 l 123 975 l 313 975 l 313 614 l 744 614 l 744 975 l 933 975 z "},"I":{"ha":466,"x_min":138,"x_max":328,"o":"m 328 975 l 328 0 l 138 0 l 138 975 l 328 975 z "},"J":{"ha":540,"x_min":84,"x_max":424,"o":"m 424 975 l 424 291 q 417 137 424 203 q 387 19 410 71 q 357 -35 375 -8 q 311 -86 338 -61 q 247 -136 283 -112 q 160 -185 210 -161 l 84 -81 q 148 -22 120 -49 q 196 39 176 5 q 225 119 215 73 q 235 237 235 166 l 235 975 l 424 975 z "},"K":{"ha":888,"x_min":125,"x_max":861,"o":"m 671 990 l 793 888 l 464 498 l 861 0 l 623 0 l 314 417 l 314 0 l 125 0 l 125 975 l 314 975 l 314 567 l 671 990 z "},"L":{"ha":768,"x_min":133,"x_max":703,"o":"m 322 975 l 322 139 l 703 139 l 703 0 l 133 0 l 133 975 l 322 975 z "},"M":{"ha":1267,"x_min":50,"x_max":1217,"o":"m 1106 975 l 1217 0 l 1031 0 l 951 726 l 947 726 l 738 -3 l 529 -3 l 319 726 l 315 726 l 235 0 l 50 0 l 161 975 l 409 975 l 633 193 l 858 975 l 1106 975 z "},"N":{"ha":1067,"x_min":121,"x_max":947,"o":"m 947 975 l 947 0 l 737 0 l 311 729 l 311 0 l 121 0 l 121 975 l 331 975 l 758 246 l 758 975 l 947 975 z "},"O":{"ha":1046,"x_min":81,"x_max":964,"o":"m 523 990 q 729 953 645 990 q 866 850 813 916 q 941 691 918 783 q 964 487 964 598 q 941 283 964 376 q 866 124 918 191 q 729 21 813 58 q 523 -16 645 -16 q 319 20 403 -16 q 182 121 235 56 q 105 280 130 187 q 81 487 81 373 q 105 694 81 601 q 182 852 130 787 q 319 954 235 918 q 523 990 403 990 m 523 851 q 404 828 452 851 q 327 759 356 805 q 286 645 298 713 q 274 487 274 577 q 286 329 274 397 q 327 215 298 260 q 404 146 356 169 q 523 123 452 123 q 641 145 593 123 q 718 214 689 168 q 759 328 747 259 q 772 487 772 396 q 759 646 772 578 q 718 760 747 715 q 641 828 689 806 q 523 851 593 851 z "},"P":{"ha":878,"x_min":123,"x_max":802,"o":"m 500 975 q 628 956 572 975 q 722 899 684 937 q 781 807 761 862 q 802 681 802 752 q 777 546 802 604 q 705 449 751 488 q 591 391 658 410 q 443 371 525 371 q 371 373 405 371 q 312 378 338 376 l 312 0 l 123 0 l 123 975 l 500 975 m 312 508 q 355 503 334 505 q 397 501 376 501 q 489 510 449 501 q 555 539 528 519 q 595 592 582 559 q 609 673 609 625 q 599 753 609 720 q 566 806 589 786 q 509 836 544 827 q 423 845 473 845 l 312 845 l 312 508 z "},"Q":{"ha":1046,"x_min":81,"x_max":964,"o":"m 523 990 q 729 953 645 990 q 866 850 813 916 q 941 691 918 783 q 964 487 964 598 q 950 322 964 399 q 904 184 936 246 q 823 78 873 123 q 701 9 772 34 q 757 -34 732 -15 q 807 -69 782 -54 q 860 -97 832 -85 q 925 -117 888 -109 q 917 -151 921 -136 q 909 -181 913 -167 q 898 -211 904 -196 q 883 -243 891 -226 q 819 -226 846 -235 q 767 -205 791 -217 q 718 -178 743 -194 q 663 -140 694 -163 q 593 -87 633 -118 q 500 -16 554 -57 q 307 25 386 -12 q 177 128 227 62 q 104 285 127 194 q 81 487 81 376 q 105 694 81 601 q 182 852 130 787 q 319 954 235 918 q 523 990 403 990 m 523 851 q 404 828 452 851 q 327 759 356 805 q 286 645 298 713 q 274 487 274 577 q 286 329 274 397 q 327 215 298 260 q 404 146 356 169 q 523 123 452 123 q 641 145 593 123 q 718 214 689 168 q 759 328 747 259 q 772 487 772 396 q 759 646 772 578 q 718 760 747 715 q 641 828 689 806 q 523 851 593 851 z "},"R":{"ha":897,"x_min":123,"x_max":860,"o":"m 482 975 q 604 959 548 975 q 700 909 659 942 q 763 825 741 876 q 786 706 786 774 q 768 606 786 651 q 716 527 749 560 q 637 472 683 493 q 537 444 592 451 l 536 442 q 589 398 564 427 q 639 337 615 370 q 685 269 663 304 q 726 205 707 235 l 860 0 l 646 0 q 593 90 623 39 q 534 191 564 140 q 478 284 505 241 q 436 351 452 327 q 407 389 420 374 q 380 414 394 405 q 352 428 367 424 q 317 433 336 432 l 312 433 l 312 0 l 123 0 l 123 975 l 482 975 m 410 563 q 488 570 454 563 q 546 594 522 577 q 581 637 569 610 q 593 704 593 665 q 581 770 593 743 q 546 814 569 798 q 488 838 522 831 q 410 845 454 845 l 312 845 l 312 563 l 410 563 z "},"S":{"ha":862,"x_min":69,"x_max":794,"o":"m 119 169 q 240 133 176 147 q 379 118 304 118 q 469 127 428 118 q 539 155 509 136 q 585 203 568 174 q 602 274 602 233 q 584 345 602 319 q 533 389 566 372 q 454 417 500 406 q 352 443 408 429 q 237 480 289 459 q 149 534 185 501 q 92 616 112 568 q 71 737 71 665 q 87 823 71 785 q 130 889 103 861 q 193 937 157 918 q 268 969 229 957 q 347 987 307 981 q 425 992 388 992 q 487 989 450 992 q 564 980 523 987 q 649 961 605 972 q 733 932 692 949 l 685 814 q 572 846 631 833 q 449 858 513 858 q 374 851 408 858 q 316 831 340 845 q 277 793 291 817 q 264 738 264 770 q 280 672 264 696 q 328 633 297 648 q 405 608 359 618 q 507 583 450 597 q 622 544 569 566 q 712 487 674 522 q 772 401 751 452 q 794 274 794 349 q 773 160 794 208 q 718 80 752 113 q 641 29 684 48 q 553 0 597 10 q 466 -13 508 -10 q 392 -16 424 -16 q 322 -12 361 -16 q 240 -1 283 -9 q 154 19 197 6 q 69 50 110 31 l 119 169 z "},"T":{"ha":884,"x_min":61,"x_max":823,"o":"m 823 975 l 823 836 l 538 836 l 538 0 l 349 0 l 349 836 l 61 836 l 61 975 l 823 975 z "},"U":{"ha":1039,"x_min":113,"x_max":926,"o":"m 926 975 l 926 429 q 905 240 926 323 q 834 100 883 157 q 708 14 786 43 q 519 -16 631 -16 q 327 15 405 -16 q 202 103 250 45 q 133 243 154 161 q 113 429 113 326 l 113 975 l 305 975 l 305 406 q 316 289 305 341 q 353 201 328 237 q 419 145 378 165 q 519 125 460 125 q 621 145 579 125 q 687 201 662 165 q 723 290 712 238 q 734 406 734 342 l 734 975 l 926 975 z "},"V":{"ha":1023,"x_min":77,"x_max":946,"o":"m 946 975 l 600 -1 l 424 -1 l 77 975 l 271 975 l 512 210 l 751 975 l 946 975 z "},"W":{"ha":1267,"x_min":50,"x_max":1217,"o":"m 1217 975 l 1106 0 l 858 0 l 633 781 l 409 0 l 161 0 l 50 975 l 235 975 l 315 243 l 317 243 l 527 975 l 740 975 l 950 243 l 951 243 l 1031 975 l 1217 975 z "},"X":{"ha":987,"x_min":62,"x_max":939,"o":"m 242 992 l 503 635 l 739 975 l 939 975 l 606 496 l 911 77 l 735 -16 l 486 327 l 261 0 l 62 0 l 385 467 l 66 899 l 242 992 z "},"Y":{"ha":949,"x_min":44,"x_max":905,"o":"m 905 975 l 570 439 l 570 0 l 380 0 l 380 439 l 44 975 l 250 975 l 475 566 l 699 975 l 905 975 z "},"Z":{"ha":876,"x_min":100,"x_max":775,"o":"m 771 975 l 771 862 l 325 139 l 775 139 l 775 0 l 100 0 l 100 109 l 547 836 l 115 836 l 115 975 l 771 975 z "},"[":{"ha":557,"x_min":136,"x_max":435,"o":"m 435 1065 l 435 935 l 314 935 l 314 41 l 435 41 l 435 -90 l 136 -90 l 136 1065 l 435 1065 z "},"\\":{"ha":827,"x_min":105,"x_max":722,"o":"m 240 975 l 722 0 l 587 0 l 105 975 l 240 975 z "},"]":{"ha":557,"x_min":122,"x_max":421,"o":"m 421 1065 l 421 -90 l 122 -90 l 122 41 l 243 41 l 243 935 l 122 935 l 122 1065 l 421 1065 z "},"^":{"ha":569,"x_min":18,"x_max":551,"o":"m 340 755 l 551 290 l 431 290 l 284 621 l 137 290 l 18 290 l 227 755 l 340 755 z "},"_":{"ha":789,"x_min":102,"x_max":688,"o":"m 688 136 l 688 0 l 102 0 l 102 136 l 688 136 z "},"`":{"ha":390,"x_min":16,"x_max":244,"o":"m 138 801 q 85 884 108 849 q 46 945 62 918 q 24 996 31 972 q 16 1045 16 1019 q 24 1083 16 1067 q 44 1109 31 1099 q 74 1125 57 1120 q 110 1131 91 1131 q 166 1121 137 1131 q 219 1093 195 1111 l 180 979 l 244 801 l 138 801 z "},"a":{"ha":774,"x_min":56,"x_max":682,"o":"m 127 671 q 184 690 152 681 q 253 706 216 699 q 328 717 289 713 q 407 721 367 721 q 512 712 463 721 q 594 683 562 703 q 645 628 627 663 q 663 540 663 593 l 663 264 q 664 180 663 217 q 667 108 665 143 q 669 84 668 95 q 672 64 671 74 q 676 43 674 54 q 682 20 679 33 q 598 1 640 10 q 514 -16 557 -7 q 502 23 507 3 q 494 69 498 43 l 484 69 q 437 28 460 45 q 387 2 413 12 q 334 -12 361 -8 q 275 -16 306 -16 q 189 -5 229 -16 q 119 29 149 6 q 73 88 90 52 q 56 172 56 123 q 65 244 56 212 q 89 301 73 276 q 126 345 104 326 q 174 378 148 364 q 292 417 227 407 q 425 428 357 428 l 484 428 l 484 516 q 476 556 484 541 q 455 578 468 570 q 424 588 441 585 q 386 590 406 590 q 275 576 331 590 q 168 542 219 562 l 127 671 m 484 328 l 470 328 q 378 321 422 328 q 301 299 334 315 q 248 258 268 283 q 228 194 228 233 q 253 128 228 151 q 322 105 277 105 q 366 111 343 105 q 410 127 388 117 q 450 153 431 138 q 484 189 469 169 l 484 328 z "},"b":{"ha":838,"x_min":120,"x_max":777,"o":"m 304 977 l 304 614 l 307 614 q 349 660 327 640 q 398 694 372 680 q 454 715 424 708 q 522 723 485 723 q 642 695 593 723 q 721 621 690 667 q 764 512 751 574 q 777 382 777 450 q 756 216 777 290 q 688 92 735 143 q 563 13 640 41 q 374 -14 486 -14 q 243 -8 304 -14 q 120 7 182 -1 l 120 977 l 304 977 m 304 134 q 358 125 332 128 q 409 121 385 121 q 482 132 448 121 q 540 165 515 142 q 578 229 564 189 q 591 327 591 268 q 587 432 591 384 q 568 514 582 479 q 527 568 553 549 q 457 587 500 587 q 409 577 430 587 q 369 550 387 568 q 335 509 351 533 q 304 457 319 486 l 304 134 z "},"c":{"ha":721,"x_min":54,"x_max":665,"o":"m 665 26 q 604 8 637 16 q 537 -5 571 0 q 469 -14 503 -11 q 408 -16 436 -16 q 242 7 310 -16 q 133 75 174 30 q 73 186 91 120 q 54 339 54 253 q 78 500 54 429 q 148 621 101 572 q 264 695 195 669 q 428 721 334 721 q 536 712 482 721 q 638 690 589 704 l 593 555 q 514 577 552 569 q 436 585 475 585 q 347 568 384 585 q 286 520 310 551 q 251 446 262 489 q 240 353 240 404 q 281 177 240 235 q 417 119 322 119 q 525 132 475 119 q 623 161 574 144 l 665 26 z "},"d":{"ha":831,"x_min":60,"x_max":736,"o":"m 718 977 l 718 230 l 718 201 q 721 105 718 148 q 736 20 724 63 q 694 8 714 14 q 653 -1 673 3 q 613 -9 633 -5 q 570 -16 593 -13 q 561 11 565 -2 q 554 39 557 24 q 549 71 551 54 q 546 113 547 89 l 538 113 q 316 -16 460 -16 q 196 12 245 -16 q 117 86 147 39 q 74 196 87 134 q 60 327 60 258 q 86 498 60 425 q 160 621 113 572 q 274 696 208 671 q 420 721 340 721 q 476 718 449 721 q 532 711 504 715 l 532 977 l 718 977 m 534 572 q 433 585 479 585 q 358 574 393 585 q 299 539 324 564 q 260 476 274 515 q 246 382 246 437 q 251 276 246 324 q 269 193 255 228 q 310 139 283 158 q 380 119 336 119 q 436 132 412 119 q 480 168 460 145 q 508 205 495 184 q 534 250 521 226 l 534 572 z "},"e":{"ha":815,"x_min":62,"x_max":748,"o":"m 698 32 q 637 12 670 20 q 568 -3 604 3 q 495 -13 532 -9 q 423 -16 458 -16 q 154 70 245 -16 q 62 332 62 155 q 81 481 62 411 q 140 605 99 552 q 248 690 181 659 q 412 721 315 721 q 665 631 581 721 q 748 357 748 541 l 748 303 l 247 303 q 258 222 248 257 q 289 162 267 186 q 347 126 311 138 q 437 113 383 113 q 540 125 485 113 q 654 159 595 137 l 698 32 m 562 424 q 412 591 557 591 q 297 548 336 591 q 250 424 258 505 l 562 424 z "},"f":{"ha":689,"x_min":70,"x_max":689,"o":"m 188 731 q 200 854 188 802 q 240 938 212 905 q 315 987 268 971 q 433 1003 362 1003 q 552 994 488 1003 q 689 970 616 985 l 660 842 q 554 860 599 853 q 476 867 510 867 q 422 862 443 867 q 391 840 402 856 q 377 797 380 825 q 374 725 374 769 l 374 705 l 600 705 l 600 570 l 374 570 l 374 136 l 600 136 l 600 0 l 70 0 l 70 136 l 188 136 l 188 570 l 70 570 l 70 705 l 188 705 l 188 731 z "},"g":{"ha":836,"x_min":66,"x_max":808,"o":"m 568 706 q 623 707 600 706 q 667 710 646 707 q 711 718 688 713 q 767 732 734 724 q 788 668 777 701 q 808 601 799 634 q 767 587 786 593 q 731 578 749 582 q 697 573 714 574 q 662 570 681 571 q 680 513 675 541 q 684 454 684 485 q 665 340 684 389 q 608 258 645 292 q 557 224 586 237 q 498 202 529 210 q 434 190 467 193 q 372 186 402 186 q 272 195 317 186 q 260 143 260 162 q 266 121 260 130 q 282 105 271 112 q 325 93 300 96 q 379 90 349 90 q 402 90 388 90 q 431 91 416 90 q 459 91 446 91 q 484 91 473 91 q 582 81 538 91 q 657 50 626 71 q 706 -8 689 28 q 724 -96 724 -44 q 695 -195 724 -155 q 618 -260 666 -235 q 510 -297 571 -286 q 384 -308 449 -308 q 291 -303 337 -308 q 201 -290 244 -298 q 137 -274 167 -283 q 81 -256 106 -266 q 107 -203 90 -235 q 145 -133 124 -170 q 277 -169 214 -157 q 391 -180 339 -180 q 450 -176 422 -180 q 498 -163 478 -172 q 531 -137 519 -153 q 543 -97 543 -121 q 534 -67 543 -78 q 512 -50 526 -56 q 478 -42 498 -43 q 437 -40 459 -40 q 417 -40 427 -40 q 397 -41 407 -41 l 375 -41 q 313 -40 344 -41 q 254 -34 282 -39 q 201 -20 225 -29 q 158 5 176 -11 q 130 45 140 21 q 119 103 119 69 q 132 171 119 136 q 165 239 145 205 q 129 271 146 251 q 97 317 111 290 q 74 378 83 344 q 66 454 66 412 q 86 567 66 517 q 142 650 106 616 q 191 684 164 671 q 248 706 218 698 q 310 718 278 714 q 372 721 342 721 q 445 716 411 721 q 505 706 479 712 l 568 706 m 375 595 q 281 559 315 595 q 246 454 246 524 q 281 347 246 382 q 375 312 316 312 q 469 348 435 312 q 504 454 504 384 q 468 560 504 524 q 375 595 433 595 z "},"h":{"ha":854,"x_min":117,"x_max":764,"o":"m 303 977 l 303 585 l 308 585 q 351 641 329 616 q 401 684 374 666 q 462 711 429 702 q 537 721 495 721 q 667 689 618 721 q 740 591 716 656 q 759 511 753 555 q 764 412 764 467 l 764 0 l 578 0 l 578 466 q 553 553 578 521 q 479 585 527 585 q 426 572 452 585 q 377 538 400 558 q 335 493 354 517 q 303 446 316 469 l 303 0 l 117 0 l 117 977 l 303 977 z "},"i":{"ha":432,"x_min":103,"x_max":329,"o":"m 216 1049 q 260 1040 239 1049 q 296 1016 281 1031 q 320 980 311 1001 q 329 937 329 960 q 320 892 329 913 q 296 857 311 872 q 260 832 281 841 q 216 823 239 823 q 172 832 193 823 q 136 857 152 841 q 112 892 121 872 q 103 937 103 913 q 112 980 103 960 q 136 1016 121 1001 q 172 1040 152 1031 q 216 1049 193 1049 m 309 705 l 309 0 l 123 0 l 123 705 l 309 705 z "},"j":{"ha":515,"x_min":74,"x_max":397,"o":"m 284 1049 q 328 1040 307 1049 q 364 1016 349 1031 q 388 980 379 1001 q 397 937 397 960 q 388 892 397 913 q 364 857 379 872 q 328 832 349 841 q 284 823 307 823 q 240 832 260 823 q 204 857 220 841 q 180 892 189 872 q 171 937 171 913 q 180 980 171 960 q 204 1016 189 1001 q 240 1040 220 1031 q 284 1049 260 1049 m 377 705 l 377 98 q 373 11 377 50 q 361 -62 370 -28 q 337 -126 352 -96 q 298 -186 321 -157 q 257 -235 281 -208 q 195 -300 233 -262 l 74 -206 l 101 -172 q 139 -119 122 -144 q 167 -65 155 -94 q 185 1 178 -35 q 191 89 191 38 l 191 705 l 377 705 z "},"k":{"ha":772,"x_min":113,"x_max":758,"o":"m 299 977 l 299 460 l 582 721 l 685 609 l 434 378 l 758 0 l 532 0 l 299 281 l 299 0 l 113 0 l 113 977 l 299 977 z "},"l":{"ha":348,"x_min":75,"x_max":280,"o":"m 260 277 q 261 182 260 220 q 265 116 262 144 q 268 90 267 101 q 271 68 269 79 q 274 47 272 58 q 280 24 277 37 q 191 0 235 10 q 99 -16 146 -9 q 82 48 89 14 q 75 123 75 83 l 75 977 l 260 977 l 260 277 z "},"m":{"ha":1284,"x_min":117,"x_max":1201,"o":"m 752 554 q 798 629 774 597 q 849 681 822 661 q 909 711 877 701 q 982 721 941 721 q 1115 681 1067 721 q 1184 566 1164 642 q 1201 412 1201 502 l 1201 0 l 1015 0 l 1015 465 q 1011 512 1015 492 q 998 546 1006 532 q 967 576 987 567 q 922 585 948 585 q 874 572 897 585 q 830 538 851 559 q 792 493 810 518 q 760 444 774 468 q 761 429 761 437 q 761 414 761 422 l 761 0 l 575 0 l 575 465 q 571 512 575 492 q 558 546 566 532 q 527 576 547 567 q 482 585 508 585 q 435 572 458 585 q 393 538 413 559 q 355 493 372 518 q 323 444 337 468 l 323 0 l 137 0 l 137 435 q 136 508 137 474 q 134 573 136 543 q 127 630 132 603 q 117 683 123 657 q 204 704 161 694 q 293 721 248 713 q 302 693 298 707 q 309 663 306 679 q 313 628 311 647 q 317 585 315 609 l 326 585 q 370 643 348 617 q 417 685 392 668 q 473 712 442 703 q 542 721 503 721 q 679 678 629 721 q 747 554 728 635 l 752 554 z "},"n":{"ha":846,"x_min":94,"x_max":762,"o":"m 304 585 q 350 644 326 618 q 402 687 374 669 q 462 712 429 704 q 535 721 495 721 q 614 711 580 721 q 674 683 649 701 q 716 636 699 664 q 744 574 734 609 q 758 499 753 540 q 762 412 762 459 l 762 0 l 576 0 l 576 466 q 550 555 576 524 q 477 585 523 585 q 426 573 451 585 q 378 541 401 561 q 336 496 355 521 q 300 445 316 471 l 300 0 l 115 0 l 115 435 q 114 527 115 490 q 110 592 113 564 q 107 617 109 606 q 104 638 106 628 q 100 659 102 648 q 94 683 98 669 q 182 704 138 694 q 271 721 226 713 q 279 693 275 707 q 286 663 283 679 q 291 628 289 647 q 295 585 293 609 l 304 585 z "},"o":{"ha":823,"x_min":68,"x_max":758,"o":"m 413 721 q 567 693 502 721 q 674 616 632 665 q 738 499 717 567 q 758 353 758 432 q 738 205 758 273 q 674 89 717 138 q 567 12 632 39 q 413 -16 502 -16 q 259 12 324 -16 q 152 89 194 39 q 89 205 109 138 q 68 353 68 273 q 89 499 68 432 q 152 616 109 567 q 259 693 194 665 q 413 721 324 721 m 413 588 q 333 570 364 588 q 284 519 302 551 q 260 445 267 488 q 254 353 254 401 q 260 260 254 303 q 284 185 267 217 q 333 135 302 153 q 413 117 364 117 q 493 135 462 117 q 542 185 524 153 q 566 260 559 217 q 572 353 572 303 q 566 445 572 401 q 542 519 559 488 q 493 570 524 551 q 413 588 462 588 z "},"p":{"ha":831,"x_min":95,"x_max":770,"o":"m 292 592 q 515 721 371 721 q 635 693 586 721 q 714 618 684 665 q 757 509 744 571 q 770 378 770 447 q 744 207 770 280 q 671 83 718 133 q 557 9 623 34 q 411 -16 491 -16 q 354 -14 382 -16 q 299 -7 327 -11 l 299 -272 l 114 -272 l 114 475 q 114 534 114 507 q 111 587 113 562 q 105 636 109 612 q 95 685 102 661 q 177 705 138 697 q 260 721 216 713 q 269 694 265 707 q 276 666 273 681 q 281 633 279 651 q 285 592 283 616 l 292 592 m 297 133 q 398 119 351 119 q 472 130 438 119 q 531 165 507 141 q 570 229 556 190 q 585 323 585 267 q 580 429 585 380 q 561 512 575 477 q 520 566 547 547 q 450 585 494 585 q 394 572 418 585 q 351 536 370 559 q 323 499 336 520 q 297 455 310 479 l 297 133 z "},"q":{"ha":845,"x_min":68,"x_max":725,"o":"m 538 92 q 447 13 498 42 q 323 -16 396 -16 q 203 12 252 -16 q 124 86 155 39 q 81 195 94 133 q 68 325 68 256 q 89 490 68 417 q 157 615 110 564 q 282 693 205 666 q 471 721 359 721 q 602 714 541 721 q 725 699 663 708 l 725 -270 l 541 -270 l 541 92 l 538 92 m 541 572 q 487 582 513 578 q 436 585 460 585 q 363 575 396 585 q 305 541 330 565 q 267 478 281 517 q 254 380 254 439 q 258 275 254 323 q 277 193 262 227 q 317 139 291 158 q 388 119 344 119 q 436 129 415 119 q 476 156 458 139 q 510 197 494 174 q 541 250 526 221 l 541 572 z "},"r":{"ha":644,"x_min":99,"x_max":604,"o":"m 309 585 q 354 644 333 621 q 397 681 374 666 q 442 704 419 695 q 488 717 465 713 q 533 721 511 721 q 570 719 552 721 q 604 713 588 716 q 598 672 602 694 q 591 629 595 651 q 582 587 587 608 q 571 547 576 566 q 504 560 532 555 q 453 565 475 565 q 415 559 432 565 q 380 539 397 553 q 346 502 363 525 q 305 443 328 478 l 305 0 l 119 0 l 119 435 q 119 508 119 474 q 116 573 118 543 q 110 630 114 603 q 99 683 106 657 q 187 704 143 694 q 275 721 231 713 q 284 693 280 707 q 291 663 288 679 q 296 628 294 647 q 300 585 298 609 l 309 585 z "},"s":{"ha":715,"x_min":64,"x_max":648,"o":"m 363 720 q 491 709 429 720 q 600 678 553 697 q 578 623 591 651 q 553 570 566 595 q 472 590 518 582 q 382 598 427 598 q 333 594 356 598 q 292 583 309 591 q 264 561 275 574 q 254 529 254 548 q 268 487 254 503 q 303 463 281 472 q 354 447 325 453 q 415 433 383 441 q 508 404 465 422 q 582 359 551 387 q 631 292 614 332 q 648 197 648 252 q 620 96 646 137 q 549 31 593 56 q 449 -5 505 5 q 335 -16 393 -16 q 258 -12 296 -16 q 184 0 219 -8 q 118 18 149 7 q 64 41 87 28 q 90 96 76 68 q 118 149 104 125 q 162 133 137 141 q 214 120 186 125 q 270 110 241 114 q 327 106 299 106 q 381 111 355 106 q 426 126 407 116 q 457 154 446 137 q 468 197 468 172 q 455 242 468 225 q 419 269 441 259 q 368 286 397 279 q 307 298 338 292 q 217 325 260 307 q 142 370 174 342 q 92 438 111 398 q 75 531 73 477 q 100 620 75 584 q 165 679 125 656 q 257 710 205 701 q 363 720 309 720 z "},"t":{"ha":652,"x_min":73,"x_max":597,"o":"m 360 867 l 360 705 l 597 705 l 597 570 l 360 570 l 360 231 q 363 176 360 198 q 374 142 366 155 q 397 124 382 130 q 433 119 411 119 q 484 124 455 119 q 552 138 513 129 q 561 109 556 125 q 571 76 566 93 q 581 42 576 58 q 590 14 586 26 q 546 2 571 7 q 492 -8 520 -4 q 436 -14 465 -12 q 382 -16 408 -16 q 336 -14 359 -16 q 292 -7 313 -12 q 254 6 271 -2 q 223 27 236 14 q 184 107 193 56 q 174 238 174 159 l 174 570 l 73 570 l 73 705 l 174 705 l 174 867 l 360 867 z "},"u":{"ha":853,"x_min":98,"x_max":766,"o":"m 746 705 l 746 270 q 747 178 746 215 q 751 113 748 141 q 753 87 752 98 q 756 66 755 77 q 761 45 758 56 q 766 22 763 35 q 679 1 722 10 q 590 -16 635 -8 q 581 12 585 -2 q 574 42 577 26 q 570 77 572 58 q 566 120 568 96 l 557 120 q 510 61 534 86 q 459 18 486 35 q 398 -8 431 1 q 326 -16 366 -16 q 192 18 241 -16 q 122 115 144 52 q 104 196 109 152 q 98 292 98 240 l 98 705 l 284 705 l 284 239 q 311 150 284 180 q 384 119 338 119 q 434 132 410 119 q 482 163 459 144 q 525 209 505 183 q 560 260 545 234 l 560 705 l 746 705 z "},"v":{"ha":761,"x_min":34,"x_max":727,"o":"m 727 705 l 492 -7 l 269 -7 l 34 705 l 228 705 l 380 127 l 533 705 l 727 705 z "},"w":{"ha":1069,"x_min":31,"x_max":1022,"o":"m 736 132 q 773 218 755 177 q 805 298 791 258 q 827 379 819 338 q 836 469 836 421 q 833 516 836 494 q 824 563 830 538 q 810 616 819 587 q 789 682 802 645 q 835 696 813 690 q 878 707 857 702 q 920 718 899 713 q 964 727 941 722 q 990 671 980 694 q 1007 625 1000 647 q 1018 578 1015 602 q 1022 529 1022 555 q 1012 438 1022 484 q 987 344 1002 391 q 949 249 970 296 q 904 157 927 202 q 857 70 880 112 q 812 -9 833 28 l 595 -9 l 531 237 l 428 -9 l 214 -9 l 31 706 l 212 706 l 355 132 l 484 431 l 412 706 l 596 706 l 736 132 z "},"x":{"ha":854,"x_min":54,"x_max":800,"o":"m 205 721 l 424 468 l 611 706 l 800 706 l 522 355 l 749 87 l 614 -16 l 412 216 l 243 0 l 54 0 l 315 330 l 70 617 l 205 721 z "},"y":{"ha":872,"x_min":104,"x_max":755,"o":"m 755 705 l 755 5 q 729 -129 755 -74 q 657 -219 704 -184 q 546 -269 611 -254 q 404 -285 481 -285 q 281 -274 343 -285 q 166 -243 219 -264 q 195 -176 180 -209 q 226 -111 210 -144 q 325 -138 275 -127 q 422 -149 375 -149 q 451 -148 435 -149 q 484 -143 467 -147 q 515 -131 500 -139 q 543 -107 531 -122 q 562 -71 555 -93 q 570 -18 570 -49 l 570 120 l 564 120 q 518 61 542 86 q 466 18 494 35 q 405 -8 438 1 q 331 -16 372 -16 q 221 5 264 -16 q 151 65 178 26 q 115 163 125 106 q 104 292 104 220 l 104 705 l 290 705 l 290 239 q 317 150 290 180 q 391 119 344 119 q 442 132 417 119 q 490 163 467 144 q 532 209 513 183 q 568 260 552 234 l 568 705 l 755 705 z "},"z":{"ha":740,"x_min":70,"x_max":661,"o":"m 273 570 q 216 571 241 570 q 169 575 192 572 q 123 584 146 578 q 70 601 100 590 q 90 668 79 634 q 111 732 101 701 q 167 718 144 724 q 211 710 190 713 q 255 707 232 707 q 311 706 278 706 l 655 706 l 655 604 l 319 136 l 661 136 l 661 0 l 87 0 l 87 102 l 422 570 l 273 570 z "},"{":{"ha":539,"x_min":69,"x_max":429,"o":"m 429 1061 l 429 943 q 362 936 387 943 q 324 913 338 929 q 307 876 311 898 q 302 824 302 853 l 302 624 q 288 548 302 578 q 251 490 274 517 q 289 430 275 461 q 302 355 302 399 l 302 155 q 307 104 302 126 q 324 66 311 81 q 362 43 338 50 q 429 36 387 36 l 429 -81 l 361 -81 q 252 -67 296 -81 q 183 -30 209 -54 q 146 25 157 -6 q 135 94 135 57 l 135 355 q 117 428 135 396 q 69 490 98 459 q 117 553 100 522 q 135 624 135 584 l 135 886 q 146 954 135 922 q 183 1009 157 985 q 252 1047 209 1033 q 361 1061 296 1061 l 429 1061 z "},"|":{"ha":471,"x_min":156,"x_max":315,"o":"m 315 1065 l 315 -89 l 156 -89 l 156 1065 l 315 1065 z "},"}":{"ha":539,"x_min":110,"x_max":470,"o":"m 178 1061 q 287 1047 243 1061 q 356 1009 330 1033 q 393 954 382 985 q 404 886 404 922 l 404 624 q 422 552 404 583 q 470 490 441 520 q 422 426 439 457 q 404 355 404 395 l 404 94 q 393 25 404 57 q 356 -30 382 -6 q 287 -67 330 -54 q 178 -81 243 -81 l 110 -81 l 110 36 q 177 43 153 36 q 215 66 201 50 q 233 104 229 81 q 237 155 237 126 l 237 355 q 251 432 237 401 q 288 490 265 463 q 251 549 264 518 q 237 624 237 580 l 237 824 q 233 876 237 853 q 215 913 229 898 q 177 936 201 929 q 110 943 153 943 l 110 1061 l 178 1061 z "},"~":{"ha":777,"x_min":82,"x_max":731,"o":"m 82 385 q 169 454 123 434 q 254 474 214 474 q 344 465 304 474 q 419 444 384 455 q 486 424 454 433 q 553 414 519 414 q 610 427 582 414 q 670 472 638 439 l 731 380 q 651 311 693 330 q 568 291 608 291 l 559 291 q 463 300 506 291 q 385 320 420 309 q 319 341 349 332 q 260 351 288 351 q 203 338 231 351 q 143 293 175 326 l 82 385 z "}," ":{"ha":407,"x_min":0,"x_max":0,"o":""},"¡":{"ha":435,"x_min":88,"x_max":347,"o":"m 197 720 q 234 713 216 720 q 264 692 251 705 q 285 662 277 679 q 292 625 292 644 q 284 586 292 604 q 263 556 277 568 q 233 536 250 543 q 197 529 216 529 q 157 536 175 529 q 127 557 140 544 q 108 588 115 570 q 101 625 101 605 q 109 662 101 644 q 129 692 116 679 q 160 713 142 705 q 197 720 177 720 m 347 -210 q 285 -265 322 -246 q 210 -283 248 -283 q 164 -276 186 -283 q 125 -252 142 -268 q 98 -213 109 -237 q 88 -157 88 -189 l 116 420 l 264 444 l 292 -96 l 347 -210 z "},"¢":{"ha":750,"x_min":52,"x_max":696,"o":"m 612 909 l 571 732 q 620 722 596 728 q 667 709 644 716 l 623 583 q 581 595 602 590 q 541 604 561 601 l 426 114 q 492 118 461 114 q 550 128 522 121 q 604 142 578 134 q 656 159 630 151 l 696 29 q 625 8 663 17 q 550 -6 587 -1 q 480 -14 513 -12 q 421 -16 446 -16 q 407 -16 414 -16 q 395 -16 401 -16 l 364 -149 l 214 -149 l 250 7 q 158 56 195 25 q 96 130 120 87 q 62 228 73 173 q 52 350 52 283 q 79 526 52 451 q 160 650 106 601 q 423 743 253 736 l 462 909 l 612 909 m 391 606 q 338 584 364 599 q 292 541 312 569 q 259 470 271 513 q 246 365 246 427 q 290 176 246 235 l 391 606 z "},"£":{"ha":773,"x_min":81,"x_max":762,"o":"m 199 722 q 210 837 199 787 q 245 922 220 887 q 293 961 265 947 q 351 982 321 975 q 411 989 381 988 q 463 990 440 990 q 574 983 515 990 q 704 961 634 975 l 682 824 q 577 844 624 836 q 495 852 530 852 q 440 844 463 852 q 406 819 418 837 q 391 772 393 800 q 389 704 389 743 l 389 628 l 621 628 l 621 489 l 389 489 l 389 139 l 762 139 l 762 0 l 199 0 l 199 489 l 81 489 l 81 628 l 199 628 l 199 722 z "},"¥":{"ha":970,"x_min":54,"x_max":916,"o":"m 916 975 l 638 533 l 758 533 l 758 418 l 580 418 l 580 320 l 758 320 l 758 205 l 580 205 l 580 0 l 390 0 l 390 205 l 212 205 l 212 320 l 390 320 l 390 418 l 212 418 l 212 533 l 332 533 l 54 975 l 260 975 l 485 566 l 709 975 l 916 975 z "},"¦":{"ha":471,"x_min":156,"x_max":315,"o":"m 315 1065 l 315 611 l 156 611 l 156 1065 l 315 1065 m 315 366 l 315 -89 l 156 -89 l 156 366 l 315 366 z "},"§":{"ha":712,"x_min":64,"x_max":648,"o":"m 362 1005 q 490 995 431 1005 q 600 962 549 985 q 579 909 591 935 q 555 858 568 883 q 507 870 529 865 q 464 878 485 875 q 423 883 444 881 q 378 884 402 884 q 332 881 355 884 q 293 870 310 878 q 265 849 275 863 q 254 815 254 836 q 268 773 254 789 q 303 748 281 758 q 354 731 325 738 q 415 718 383 725 q 508 688 465 706 q 582 643 551 671 q 631 576 614 616 q 648 481 648 536 q 633 402 646 435 q 596 345 619 369 q 635 282 621 319 q 648 197 649 245 q 633 119 647 152 q 597 62 620 85 q 544 23 574 38 q 479 -1 513 8 q 409 -13 446 -9 q 338 -16 373 -16 q 191 -2 260 -16 q 64 41 122 12 q 89 93 76 68 q 116 143 102 119 q 167 126 142 134 q 216 115 191 119 q 269 107 241 110 q 330 104 296 104 q 388 109 362 104 q 431 123 413 113 q 458 151 449 133 q 468 197 468 169 q 455 242 468 225 q 419 269 441 259 q 368 286 397 279 q 307 298 338 292 q 217 325 260 307 q 141 370 174 342 q 91 438 109 398 q 75 531 73 477 q 93 603 76 572 q 138 658 109 635 q 92 720 109 684 q 75 805 75 756 l 75 815 q 100 899 77 863 q 161 959 123 935 q 252 994 200 982 q 362 1005 303 1005 m 291 585 q 266 565 277 578 q 254 531 254 552 q 268 489 254 505 q 303 464 281 473 q 354 447 325 454 q 415 433 383 441 q 433 429 425 431 q 451 424 442 427 q 468 481 468 445 q 454 527 468 510 q 417 554 440 544 q 384 565 404 560 q 346 574 365 570 q 312 581 328 578 q 291 585 297 584 z "},"¨":{"ha":669,"x_min":76,"x_max":593,"o":"m 172 987 q 208 980 191 987 q 238 960 225 972 q 258 930 251 947 q 266 894 266 913 q 258 857 266 874 q 238 827 251 840 q 209 806 226 814 q 172 799 191 799 q 135 806 153 799 q 104 827 117 814 q 83 857 91 840 q 76 894 76 874 q 83 930 76 913 q 104 960 91 947 q 135 980 117 972 q 172 987 153 987 m 499 987 q 535 980 518 987 q 565 960 552 972 q 585 930 578 947 q 593 894 593 913 q 585 857 593 874 q 565 827 578 840 q 535 806 553 814 q 499 799 518 799 q 462 806 479 799 q 431 827 444 814 q 410 857 418 840 q 403 894 403 874 q 410 930 403 913 q 431 960 418 947 q 462 980 444 972 q 499 987 479 987 z "},"©":{"ha":1118,"x_min":65,"x_max":1052,"o":"m 558 836 q 750 798 661 836 q 907 692 840 759 q 1013 535 975 625 q 1052 342 1052 445 q 1034 212 1052 275 q 984 94 1017 149 q 907 -6 952 39 q 807 -83 862 -51 q 689 -133 753 -115 q 558 -151 626 -151 q 427 -133 490 -151 q 310 -83 364 -115 q 210 -6 255 -51 q 133 94 165 39 q 83 212 100 149 q 65 342 65 275 q 83 474 65 411 q 133 592 100 537 q 210 691 165 646 q 310 769 255 736 q 427 819 364 801 q 558 836 490 836 m 559 725 q 410 695 479 725 q 289 613 340 665 q 207 491 237 561 q 176 342 176 422 q 207 194 176 264 q 289 73 237 125 q 410 -9 340 21 q 559 -39 479 -39 q 707 -9 637 -39 q 828 73 777 21 q 910 194 880 125 q 941 342 941 264 q 910 491 941 422 q 828 613 880 561 q 707 695 777 665 q 559 725 637 725 m 744 125 q 702 112 725 118 q 656 103 680 106 q 609 97 633 99 q 566 95 586 95 q 450 111 497 95 q 373 157 402 127 q 331 233 344 188 q 318 336 318 278 q 385 532 318 467 q 581 597 452 597 q 655 591 618 597 q 725 575 692 585 l 696 491 q 640 506 666 500 q 585 511 614 511 q 556 509 569 511 q 529 501 543 507 q 468 448 488 487 q 448 347 448 408 q 464 241 448 279 q 516 191 481 203 q 543 183 530 186 q 572 180 555 180 q 648 190 613 180 q 718 211 683 199 l 744 125 z "},"«":{"ha":922,"x_min":115,"x_max":807,"o":"m 416 650 l 484 583 l 253 351 l 484 118 l 416 51 l 115 351 l 416 650 m 739 650 l 806 583 l 576 351 l 807 118 l 739 51 l 438 351 l 739 650 z "},"¬":{"ha":872,"x_min":125,"x_max":747,"o":"m 747 444 l 747 104 l 611 104 l 611 315 l 125 315 l 125 444 l 747 444 z "},"­":{"ha":830,"x_min":138,"x_max":692,"o":"m 692 446 l 692 317 l 138 317 l 138 446 l 692 446 z "},"®":{"ha":1118,"x_min":65,"x_max":1052,"o":"m 558 836 q 750 798 661 836 q 907 692 840 759 q 1013 535 975 625 q 1052 342 1052 445 q 1034 212 1052 275 q 984 94 1017 149 q 907 -6 952 39 q 807 -83 862 -51 q 689 -133 753 -115 q 558 -151 626 -151 q 427 -133 490 -151 q 310 -83 364 -115 q 210 -6 255 -51 q 133 94 165 39 q 83 212 100 149 q 65 342 65 275 q 83 474 65 411 q 133 592 100 537 q 210 691 165 646 q 310 769 255 736 q 427 819 364 801 q 558 836 490 836 m 559 725 q 410 695 479 725 q 289 613 340 665 q 207 491 237 561 q 176 342 176 422 q 207 194 176 264 q 289 73 237 125 q 410 -9 340 21 q 559 -39 479 -39 q 707 -9 637 -39 q 828 73 777 21 q 910 194 880 125 q 941 342 941 264 q 910 491 941 422 q 828 613 880 561 q 707 695 777 665 q 559 725 637 725 m 593 591 q 660 584 629 591 q 713 559 690 576 q 749 518 736 543 q 762 458 762 493 q 752 403 762 427 q 723 362 741 379 q 680 334 705 345 q 627 321 655 324 q 648 305 637 314 q 673 281 659 296 q 687 262 680 273 q 709 233 695 252 q 746 184 724 214 q 804 105 768 153 l 663 105 q 591 213 616 172 q 550 275 566 254 q 526 304 535 297 q 503 312 516 311 l 502 312 l 502 105 l 374 105 l 374 591 l 593 591 m 548 392 q 613 404 592 392 q 635 452 635 416 q 613 499 635 487 q 548 511 591 511 l 502 511 l 502 392 l 548 392 z "},"¯":{"ha":422,"x_min":6,"x_max":416,"o":"m 416 955 l 416 839 l 6 839 l 6 955 l 416 955 z "},"°":{"ha":542,"x_min":68,"x_max":474,"o":"m 271 1029 q 351 1014 313 1029 q 415 971 388 998 q 458 906 443 943 q 474 826 474 869 q 458 746 474 783 q 415 682 443 709 q 351 639 388 654 q 271 623 313 623 q 191 639 228 623 q 126 682 154 654 q 83 746 99 709 q 68 826 68 783 q 83 906 68 869 q 126 971 99 943 q 191 1014 154 998 q 271 1029 228 1029 m 271 928 q 231 920 249 928 q 198 899 212 912 q 177 866 184 885 q 169 826 169 848 q 177 786 169 804 q 198 754 184 768 q 231 732 212 740 q 271 724 249 724 q 311 732 292 724 q 343 754 330 740 q 365 786 357 768 q 372 826 372 804 q 365 866 372 848 q 343 899 357 885 q 311 920 330 912 q 271 928 292 928 z "},"±":{"ha":826,"x_min":102,"x_max":724,"o":"m 477 692 l 477 446 l 724 446 l 724 317 l 477 317 l 477 71 l 349 71 l 349 317 l 102 317 l 102 446 l 349 446 l 349 692 l 477 692 m 724 -57 l 724 -186 l 102 -186 l 102 -57 l 724 -57 z "},"´":{"ha":390,"x_min":142,"x_max":370,"o":"m 168 1093 q 221 1121 192 1111 q 277 1131 250 1131 q 313 1125 296 1131 q 342 1109 330 1120 q 363 1083 355 1099 q 370 1045 370 1067 q 363 996 370 1019 q 340 945 355 972 q 302 884 325 918 q 248 801 279 849 l 142 801 l 207 979 l 168 1093 z "},"¶":{"ha":407,"x_min":0,"x_max":0,"o":""},"·":{"ha":395,"x_min":102,"x_max":293,"o":"m 197 497 q 237 490 219 497 q 267 469 254 482 q 286 438 279 456 q 293 401 293 421 q 286 365 293 382 q 265 334 278 347 q 234 313 252 321 q 197 306 217 306 q 160 313 178 306 q 130 334 143 321 q 109 365 117 347 q 102 401 102 382 q 110 440 102 422 q 131 470 117 458 q 161 490 144 483 q 197 497 178 497 z "},"¸":{"ha":513,"x_min":48,"x_max":324,"o":"m 286 0 l 224 -77 q 301 -118 279 -94 q 324 -178 324 -142 q 313 -227 324 -206 q 281 -262 301 -248 q 233 -283 261 -276 q 173 -290 205 -290 q 111 -283 142 -290 q 48 -267 79 -277 l 85 -199 q 135 -220 112 -212 q 175 -227 157 -227 q 208 -216 197 -227 q 220 -182 220 -205 q 196 -142 220 -157 q 124 -111 172 -127 l 192 0 l 286 0 z "},"»":{"ha":922,"x_min":115,"x_max":807,"o":"m 184 650 l 484 351 l 184 51 l 115 118 l 347 351 l 116 583 l 184 650 m 507 650 l 807 351 l 507 51 l 438 118 l 669 351 l 439 583 l 507 650 z "},"¿":{"ha":720,"x_min":75,"x_max":645,"o":"m 451 720 q 488 713 471 720 q 518 692 505 705 q 539 662 532 679 q 547 625 547 644 q 539 586 547 604 q 518 556 531 568 q 487 536 505 543 q 451 529 470 529 q 412 536 429 529 q 381 557 394 544 q 362 588 369 570 q 355 625 355 605 q 363 662 355 644 q 384 692 370 679 q 414 713 397 705 q 451 720 431 720 m 572 199 q 430 139 490 163 q 333 93 371 116 q 277 41 295 69 q 259 -33 259 12 q 269 -87 259 -66 q 298 -121 279 -109 q 341 -138 316 -133 q 397 -143 367 -143 q 507 -129 448 -143 q 621 -91 566 -114 q 634 -161 629 -125 q 645 -233 640 -197 q 514 -271 581 -258 q 385 -284 448 -284 q 255 -270 312 -284 q 157 -226 197 -256 q 96 -150 117 -196 q 75 -38 75 -103 q 94 63 75 20 q 150 138 113 105 q 242 200 187 172 q 370 258 298 228 l 370 420 l 532 448 l 572 199 z "},"À":{"ha":986,"x_min":28,"x_max":955,"o":"m 440 1070 q 387 1153 410 1118 q 348 1215 363 1187 q 326 1265 333 1242 q 318 1314 318 1289 q 326 1352 318 1336 q 346 1379 333 1368 q 376 1395 359 1390 q 412 1400 393 1400 q 468 1390 439 1400 q 521 1362 496 1380 l 481 1248 l 546 1070 l 440 1070 m 587 975 l 955 0 l 764 0 l 652 300 l 331 300 l 220 0 l 28 0 l 397 975 l 587 975 m 492 774 l 381 436 l 602 436 l 492 774 z "},"Á":{"ha":986,"x_min":28,"x_max":955,"o":"m 470 1362 q 523 1390 494 1380 q 579 1400 552 1400 q 615 1395 598 1400 q 645 1379 632 1390 q 665 1352 658 1368 q 673 1314 673 1336 q 665 1265 673 1289 q 643 1215 658 1242 q 604 1153 627 1187 q 551 1070 581 1118 l 445 1070 l 509 1248 l 470 1362 m 587 975 l 955 0 l 764 0 l 652 300 l 331 300 l 220 0 l 28 0 l 397 975 l 587 975 m 492 774 l 381 436 l 602 436 l 492 774 z "},"Â":{"ha":986,"x_min":28,"x_max":955,"o":"m 493 1301 l 718 1129 l 667 1070 l 493 1145 l 319 1070 l 269 1129 l 493 1301 m 587 975 l 955 0 l 764 0 l 652 300 l 331 300 l 220 0 l 28 0 l 397 975 l 587 975 m 492 774 l 381 436 l 602 436 l 492 774 z "},"Ã":{"ha":986,"x_min":28,"x_max":955,"o":"m 716 1224 q 703 1170 713 1197 q 674 1121 692 1143 q 634 1085 657 1099 q 582 1072 610 1072 q 535 1079 558 1072 q 491 1095 513 1086 q 448 1112 469 1104 q 407 1119 427 1119 q 369 1104 382 1119 q 351 1065 357 1090 l 270 1065 q 283 1119 273 1092 q 312 1168 294 1146 q 352 1203 329 1190 q 404 1217 376 1217 q 451 1210 428 1217 q 495 1194 473 1202 q 538 1177 517 1185 q 579 1170 559 1170 q 617 1184 604 1170 q 635 1224 629 1199 l 716 1224 m 587 975 l 955 0 l 764 0 l 652 300 l 331 300 l 220 0 l 28 0 l 397 975 l 587 975 m 492 774 l 381 436 l 602 436 l 492 774 z "},"Ä":{"ha":986,"x_min":28,"x_max":955,"o":"m 331 1257 q 367 1249 350 1257 q 397 1229 384 1242 q 417 1199 410 1216 q 425 1163 425 1182 q 417 1126 425 1143 q 397 1096 410 1109 q 367 1076 385 1083 q 331 1068 350 1068 q 294 1076 311 1068 q 263 1096 276 1083 q 242 1126 250 1109 q 235 1163 235 1143 q 242 1199 235 1182 q 263 1229 250 1217 q 294 1249 276 1242 q 331 1257 311 1257 m 658 1257 q 694 1249 677 1257 q 724 1229 711 1242 q 744 1199 736 1216 q 751 1163 751 1182 q 744 1126 751 1143 q 724 1096 736 1109 q 694 1076 711 1083 q 658 1068 677 1068 q 621 1076 638 1068 q 590 1096 603 1083 q 569 1126 576 1109 q 562 1163 562 1143 q 569 1199 562 1182 q 590 1229 576 1217 q 621 1249 603 1242 q 658 1257 638 1257 m 587 975 l 955 0 l 764 0 l 652 300 l 331 300 l 220 0 l 28 0 l 397 975 l 587 975 m 492 774 l 381 436 l 602 436 l 492 774 z "},"Å":{"ha":986,"x_min":28,"x_max":955,"o":"m 493 1327 q 545 1317 521 1327 q 587 1289 569 1307 q 615 1247 605 1271 q 625 1195 625 1223 q 615 1143 625 1167 q 587 1101 605 1119 q 545 1073 569 1083 q 493 1063 521 1063 q 441 1073 465 1063 q 399 1101 417 1083 q 371 1143 381 1119 q 361 1195 361 1167 q 371 1247 361 1223 q 399 1289 381 1271 q 441 1317 417 1307 q 493 1327 465 1327 m 493 1251 q 453 1235 469 1251 q 437 1195 437 1219 q 453 1155 437 1171 q 493 1139 469 1139 q 533 1155 517 1139 q 549 1195 549 1171 q 533 1235 549 1219 q 493 1251 517 1251 m 587 975 l 955 0 l 764 0 l 652 300 l 331 300 l 220 0 l 28 0 l 397 975 l 587 975 m 492 774 l 381 436 l 602 436 l 492 774 z "},"Æ":{"ha":1274,"x_min":0,"x_max":1187,"o":"m 1173 975 l 1173 834 l 779 834 l 779 614 l 1058 614 l 1058 473 l 779 473 l 779 141 l 1187 141 l 1187 0 l 590 0 l 590 300 l 373 300 l 216 0 l 0 0 l 538 975 l 1173 975 m 590 712 l 444 435 l 590 435 l 590 712 z "},"Ç":{"ha":874,"x_min":78,"x_max":819,"o":"m 530 -77 q 607 -118 584 -94 q 629 -178 629 -142 q 618 -227 629 -206 q 586 -262 606 -248 q 538 -283 566 -276 q 478 -290 511 -290 q 416 -283 448 -290 q 353 -267 385 -277 l 390 -199 q 440 -220 417 -212 q 480 -227 463 -227 q 513 -216 502 -227 q 525 -182 525 -205 q 501 -142 525 -157 q 429 -111 477 -127 l 488 -15 q 298 24 376 -9 q 171 117 220 56 q 100 266 122 177 q 78 473 78 355 q 102 700 78 603 q 178 861 126 797 q 313 958 231 926 q 513 990 395 990 q 594 986 554 990 q 671 975 635 982 q 739 960 707 968 q 795 941 770 951 l 750 805 q 647 836 702 823 q 532 849 593 849 q 410 827 460 849 q 329 762 359 806 q 284 650 298 718 q 271 493 271 583 q 286 327 271 397 q 334 213 300 258 q 421 146 367 168 q 552 125 475 125 q 670 136 611 125 q 781 163 730 146 l 819 27 q 705 -1 766 9 q 578 -16 644 -12 l 530 -77 z "},"È":{"ha":808,"x_min":123,"x_max":721,"o":"m 366 1065 q 313 1148 336 1114 q 274 1210 290 1183 q 252 1260 259 1237 q 244 1310 244 1284 q 252 1347 244 1331 q 272 1374 259 1363 q 302 1390 285 1385 q 338 1395 319 1395 q 394 1385 365 1395 q 447 1358 422 1375 l 408 1243 l 472 1065 l 366 1065 m 707 975 l 707 836 l 313 836 l 313 615 l 591 615 l 591 476 l 313 476 l 313 139 l 721 139 l 721 0 l 123 0 l 123 975 l 707 975 z "},"É":{"ha":808,"x_min":123,"x_max":721,"o":"m 396 1358 q 449 1385 420 1375 q 505 1395 478 1395 q 541 1390 524 1395 q 571 1374 558 1385 q 591 1347 584 1363 q 599 1310 599 1331 q 591 1260 599 1284 q 569 1210 584 1237 q 530 1148 553 1183 q 477 1065 507 1114 l 371 1065 l 435 1243 l 396 1358 m 707 975 l 707 836 l 313 836 l 313 615 l 591 615 l 591 476 l 313 476 l 313 139 l 721 139 l 721 0 l 123 0 l 123 975 l 707 975 z "},"Ê":{"ha":808,"x_min":123,"x_max":721,"o":"m 419 1297 l 644 1124 l 593 1065 l 419 1141 l 245 1065 l 195 1124 l 419 1297 m 707 975 l 707 836 l 313 836 l 313 615 l 591 615 l 591 476 l 313 476 l 313 139 l 721 139 l 721 0 l 123 0 l 123 975 l 707 975 z "},"Ë":{"ha":808,"x_min":123,"x_max":721,"o":"m 257 1252 q 293 1244 276 1252 q 323 1224 310 1237 q 343 1194 336 1211 q 351 1158 351 1177 q 343 1121 351 1139 q 323 1091 336 1104 q 293 1071 311 1078 q 257 1063 276 1063 q 220 1071 237 1063 q 189 1091 202 1078 q 168 1121 176 1104 q 161 1158 161 1139 q 168 1195 161 1177 q 189 1224 176 1212 q 220 1244 202 1237 q 257 1252 237 1252 m 584 1252 q 620 1244 603 1252 q 650 1224 637 1237 q 670 1194 663 1211 q 677 1158 677 1177 q 670 1121 677 1139 q 650 1091 663 1104 q 620 1071 637 1078 q 584 1063 603 1063 q 547 1071 564 1063 q 516 1091 529 1078 q 495 1121 503 1104 q 488 1158 488 1139 q 495 1195 488 1177 q 516 1224 503 1212 q 547 1244 529 1237 q 584 1252 564 1252 m 707 975 l 707 836 l 313 836 l 313 615 l 591 615 l 591 476 l 313 476 l 313 139 l 721 139 l 721 0 l 123 0 l 123 975 l 707 975 z "},"Ì":{"ha":466,"x_min":58,"x_max":328,"o":"m 180 1070 q 127 1153 150 1118 q 89 1215 104 1187 q 66 1265 73 1242 q 58 1314 58 1289 q 66 1352 58 1336 q 86 1379 73 1368 q 116 1395 99 1390 q 152 1400 133 1400 q 208 1390 179 1400 q 261 1362 237 1380 l 222 1248 l 286 1070 l 180 1070 m 328 975 l 328 0 l 138 0 l 138 975 l 328 975 z "},"Í":{"ha":466,"x_min":138,"x_max":413,"o":"m 210 1362 q 263 1390 235 1380 q 319 1400 292 1400 q 355 1395 338 1400 q 385 1379 372 1390 q 406 1352 398 1368 q 413 1314 413 1336 q 406 1265 413 1289 q 383 1215 398 1242 q 345 1153 368 1187 q 291 1070 321 1118 l 185 1070 l 250 1248 l 210 1362 m 328 975 l 328 0 l 138 0 l 138 975 l 328 975 z "},"Î":{"ha":466,"x_min":9,"x_max":458,"o":"m 233 1301 l 458 1129 l 407 1070 l 233 1145 l 60 1070 l 9 1129 l 233 1301 m 328 975 l 328 0 l 138 0 l 138 975 l 328 975 z "},"Ï":{"ha":466,"x_min":-25,"x_max":492,"o":"m 71 1257 q 107 1249 90 1257 q 137 1229 124 1242 q 157 1199 150 1216 q 165 1163 165 1182 q 157 1126 165 1143 q 137 1096 150 1109 q 107 1076 125 1083 q 71 1068 90 1068 q 34 1076 52 1068 q 3 1096 16 1083 q -18 1126 -10 1109 q -25 1163 -25 1143 q -18 1199 -25 1182 q 3 1229 -10 1217 q 34 1249 16 1242 q 71 1257 52 1257 m 398 1257 q 434 1249 417 1257 q 464 1229 451 1242 q 484 1199 477 1216 q 492 1163 492 1182 q 484 1126 492 1143 q 464 1096 477 1109 q 434 1076 452 1083 q 398 1068 417 1068 q 361 1076 378 1068 q 330 1096 343 1083 q 309 1126 317 1109 q 302 1163 302 1143 q 309 1199 302 1182 q 330 1229 317 1217 q 361 1249 343 1242 q 398 1257 378 1257 m 328 975 l 328 0 l 138 0 l 138 975 l 328 975 z "},"Ð":{"ha":966,"x_min":-41,"x_max":895,"o":"m 387 975 q 535 967 467 975 q 660 937 603 958 q 772 870 727 912 q 845 772 818 829 q 884 644 872 715 q 895 490 895 573 q 883 336 895 408 q 844 208 871 265 q 771 108 816 151 q 660 40 726 66 q 535 9 603 18 q 387 0 467 0 l 123 0 l 123 429 l -41 429 l -41 558 l 123 558 l 123 975 l 387 975 m 340 138 q 522 154 452 138 q 633 210 593 170 q 688 317 673 250 q 703 486 703 384 q 688 655 703 587 q 636 763 673 723 q 535 821 599 804 q 374 838 471 838 l 313 838 l 313 558 l 513 558 l 513 429 l 313 429 l 313 138 l 340 138 z "},"Ñ":{"ha":1067,"x_min":121,"x_max":947,"o":"m 757 1224 q 743 1170 754 1197 q 715 1121 732 1143 q 674 1085 698 1099 q 623 1072 651 1072 q 576 1079 599 1072 q 532 1095 553 1086 q 489 1112 510 1104 q 448 1119 468 1119 q 410 1104 422 1119 q 391 1065 397 1090 l 311 1065 q 324 1119 313 1092 q 352 1168 335 1146 q 393 1203 370 1190 q 445 1217 416 1217 q 491 1210 469 1217 q 536 1194 514 1202 q 578 1177 557 1185 q 620 1170 600 1170 q 657 1184 645 1170 q 676 1224 670 1199 l 757 1224 m 947 975 l 947 0 l 737 0 l 311 729 l 311 0 l 121 0 l 121 975 l 331 975 l 758 246 l 758 975 l 947 975 z "},"Ò":{"ha":1046,"x_min":81,"x_max":964,"o":"m 470 1070 q 416 1153 439 1118 q 378 1215 393 1187 q 355 1265 363 1242 q 348 1314 348 1289 q 355 1352 348 1336 q 376 1379 363 1368 q 406 1395 389 1390 q 441 1400 422 1400 q 497 1390 469 1400 q 551 1362 526 1380 l 511 1248 l 576 1070 l 470 1070 m 523 990 q 729 953 645 990 q 866 850 813 916 q 941 691 918 783 q 964 487 964 598 q 941 283 964 376 q 866 124 918 191 q 729 21 813 58 q 523 -16 645 -16 q 319 20 403 -16 q 182 121 235 56 q 105 280 130 187 q 81 487 81 373 q 105 694 81 601 q 182 852 130 787 q 319 954 235 918 q 523 990 403 990 m 523 851 q 404 828 452 851 q 327 759 356 805 q 286 645 298 713 q 274 487 274 577 q 286 329 274 397 q 327 215 298 260 q 404 146 356 169 q 523 123 452 123 q 641 145 593 123 q 718 214 689 168 q 759 328 747 259 q 772 487 772 396 q 759 646 772 578 q 718 760 747 715 q 641 828 689 806 q 523 851 593 851 z "},"Ó":{"ha":1046,"x_min":81,"x_max":964,"o":"m 500 1362 q 553 1390 524 1380 q 609 1400 582 1400 q 645 1395 628 1400 q 675 1379 662 1390 q 695 1352 688 1368 q 703 1314 703 1336 q 695 1265 703 1289 q 672 1215 688 1242 q 634 1153 657 1187 q 581 1070 611 1118 l 475 1070 l 539 1248 l 500 1362 m 523 990 q 729 953 645 990 q 866 850 813 916 q 941 691 918 783 q 964 487 964 598 q 941 283 964 376 q 866 124 918 191 q 729 21 813 58 q 523 -16 645 -16 q 319 20 403 -16 q 182 121 235 56 q 105 280 130 187 q 81 487 81 373 q 105 694 81 601 q 182 852 130 787 q 319 954 235 918 q 523 990 403 990 m 523 851 q 404 828 452 851 q 327 759 356 805 q 286 645 298 713 q 274 487 274 577 q 286 329 274 397 q 327 215 298 260 q 404 146 356 169 q 523 123 452 123 q 641 145 593 123 q 718 214 689 168 q 759 328 747 259 q 772 487 772 396 q 759 646 772 578 q 718 760 747 715 q 641 828 689 806 q 523 851 593 851 z "},"Ô":{"ha":1046,"x_min":81,"x_max":964,"o":"m 523 1301 l 747 1129 l 696 1070 l 523 1145 l 349 1070 l 298 1129 l 523 1301 m 523 990 q 729 953 645 990 q 866 850 813 916 q 941 691 918 783 q 964 487 964 598 q 941 283 964 376 q 866 124 918 191 q 729 21 813 58 q 523 -16 645 -16 q 319 20 403 -16 q 182 121 235 56 q 105 280 130 187 q 81 487 81 373 q 105 694 81 601 q 182 852 130 787 q 319 954 235 918 q 523 990 403 990 m 523 851 q 404 828 452 851 q 327 759 356 805 q 286 645 298 713 q 274 487 274 577 q 286 329 274 397 q 327 215 298 260 q 404 146 356 169 q 523 123 452 123 q 641 145 593 123 q 718 214 689 168 q 759 328 747 259 q 772 487 772 396 q 759 646 772 578 q 718 760 747 715 q 641 828 689 806 q 523 851 593 851 z "},"Õ":{"ha":1046,"x_min":81,"x_max":964,"o":"m 746 1224 q 732 1170 743 1197 q 704 1121 722 1143 q 664 1085 687 1099 q 612 1072 640 1072 q 565 1079 588 1072 q 521 1095 543 1086 q 478 1112 499 1104 q 437 1119 457 1119 q 399 1104 412 1119 q 380 1065 387 1090 l 300 1065 q 313 1119 302 1092 q 341 1168 324 1146 q 382 1203 359 1190 q 434 1217 406 1217 q 480 1210 458 1217 q 525 1194 503 1202 q 568 1177 547 1185 q 609 1170 589 1170 q 647 1184 634 1170 q 665 1224 659 1199 l 746 1224 m 523 990 q 729 953 645 990 q 866 850 813 916 q 941 691 918 783 q 964 487 964 598 q 941 283 964 376 q 866 124 918 191 q 729 21 813 58 q 523 -16 645 -16 q 319 20 403 -16 q 182 121 235 56 q 105 280 130 187 q 81 487 81 373 q 105 694 81 601 q 182 852 130 787 q 319 954 235 918 q 523 990 403 990 m 523 851 q 404 828 452 851 q 327 759 356 805 q 286 645 298 713 q 274 487 274 577 q 286 329 274 397 q 327 215 298 260 q 404 146 356 169 q 523 123 452 123 q 641 145 593 123 q 718 214 689 168 q 759 328 747 259 q 772 487 772 396 q 759 646 772 578 q 718 760 747 715 q 641 828 689 806 q 523 851 593 851 z "},"Ö":{"ha":1046,"x_min":81,"x_max":964,"o":"m 361 1257 q 397 1249 380 1257 q 427 1229 414 1242 q 447 1199 439 1216 q 454 1163 454 1182 q 447 1126 454 1143 q 427 1096 439 1109 q 397 1076 414 1083 q 361 1068 380 1068 q 323 1076 341 1068 q 293 1096 306 1083 q 272 1126 279 1109 q 264 1163 264 1143 q 272 1199 264 1182 q 293 1229 279 1217 q 323 1249 306 1242 q 361 1257 341 1257 m 688 1257 q 724 1249 707 1257 q 753 1229 741 1242 q 774 1199 766 1216 q 781 1163 781 1182 q 774 1126 781 1143 q 754 1096 766 1109 q 724 1076 741 1083 q 688 1068 707 1068 q 650 1076 668 1068 q 620 1096 633 1083 q 599 1126 606 1109 q 591 1163 591 1143 q 599 1199 591 1182 q 620 1229 606 1217 q 650 1249 633 1242 q 688 1257 668 1257 m 523 990 q 729 953 645 990 q 866 850 813 916 q 941 691 918 783 q 964 487 964 598 q 941 283 964 376 q 866 124 918 191 q 729 21 813 58 q 523 -16 645 -16 q 319 20 403 -16 q 182 121 235 56 q 105 280 130 187 q 81 487 81 373 q 105 694 81 601 q 182 852 130 787 q 319 954 235 918 q 523 990 403 990 m 523 851 q 404 828 452 851 q 327 759 356 805 q 286 645 298 713 q 274 487 274 577 q 286 329 274 397 q 327 215 298 260 q 404 146 356 169 q 523 123 452 123 q 641 145 593 123 q 718 214 689 168 q 759 328 747 259 q 772 487 772 396 q 759 646 772 578 q 718 760 747 715 q 641 828 689 806 q 523 851 593 851 z "},"×":{"ha":734,"x_min":102,"x_max":632,"o":"m 541 646 l 632 555 l 458 381 l 632 207 l 541 116 l 367 290 l 193 116 l 102 207 l 276 381 l 102 555 l 193 646 l 367 472 l 541 646 z "},"Ø":{"ha":1046,"x_min":81,"x_max":964,"o":"m 843 876 q 936 709 907 809 q 964 487 964 610 q 941 283 964 376 q 866 124 918 191 q 729 21 813 58 q 523 -16 645 -16 q 310 24 398 -16 l 295 0 l 140 0 l 201 99 q 110 264 138 165 q 81 487 81 363 q 105 694 81 601 q 182 852 130 787 q 319 954 235 918 q 523 990 403 990 q 639 980 587 990 q 734 951 691 970 l 750 975 l 905 975 l 843 876 m 654 822 q 523 851 604 851 q 404 828 452 851 q 327 759 356 805 q 286 645 298 713 q 274 487 274 577 q 281 361 274 417 q 304 262 288 306 l 654 822 m 391 153 q 523 123 443 123 q 641 145 593 123 q 718 214 689 168 q 759 328 747 259 q 772 487 772 396 q 765 613 772 557 q 741 713 758 670 l 391 153 z "},"Ù":{"ha":1039,"x_min":113,"x_max":926,"o":"m 467 1070 q 413 1153 436 1118 q 375 1215 390 1187 q 352 1265 359 1242 q 345 1314 345 1289 q 352 1352 345 1336 q 372 1379 359 1368 q 402 1395 385 1390 q 438 1400 419 1400 q 494 1390 465 1400 q 547 1362 523 1380 l 508 1248 l 572 1070 l 467 1070 m 926 975 l 926 429 q 905 240 926 323 q 834 100 883 157 q 708 14 786 43 q 519 -16 631 -16 q 327 15 405 -16 q 202 103 250 45 q 133 243 154 161 q 113 429 113 326 l 113 975 l 305 975 l 305 406 q 316 289 305 341 q 353 201 328 237 q 419 145 378 165 q 519 125 460 125 q 621 145 579 125 q 687 201 662 165 q 723 290 712 238 q 734 406 734 342 l 734 975 l 926 975 z "},"Ú":{"ha":1039,"x_min":113,"x_max":926,"o":"m 496 1362 q 550 1390 521 1380 q 606 1400 578 1400 q 642 1395 625 1400 q 671 1379 659 1390 q 692 1352 684 1368 q 699 1314 699 1336 q 692 1265 699 1289 q 669 1215 684 1242 q 631 1153 654 1187 q 577 1070 608 1118 l 471 1070 l 536 1248 l 496 1362 m 926 975 l 926 429 q 905 240 926 323 q 834 100 883 157 q 708 14 786 43 q 519 -16 631 -16 q 327 15 405 -16 q 202 103 250 45 q 133 243 154 161 q 113 429 113 326 l 113 975 l 305 975 l 305 406 q 316 289 305 341 q 353 201 328 237 q 419 145 378 165 q 519 125 460 125 q 621 145 579 125 q 687 201 662 165 q 723 290 712 238 q 734 406 734 342 l 734 975 l 926 975 z "},"Û":{"ha":1039,"x_min":113,"x_max":926,"o":"m 519 1301 l 744 1129 l 693 1070 l 519 1145 l 346 1070 l 295 1129 l 519 1301 m 926 975 l 926 429 q 905 240 926 323 q 834 100 883 157 q 708 14 786 43 q 519 -16 631 -16 q 327 15 405 -16 q 202 103 250 45 q 133 243 154 161 q 113 429 113 326 l 113 975 l 305 975 l 305 406 q 316 289 305 341 q 353 201 328 237 q 419 145 378 165 q 519 125 460 125 q 621 145 579 125 q 687 201 662 165 q 723 290 712 238 q 734 406 734 342 l 734 975 l 926 975 z "},"Ü":{"ha":1039,"x_min":113,"x_max":926,"o":"m 357 1257 q 393 1249 376 1257 q 423 1229 410 1242 q 444 1199 436 1216 q 451 1163 451 1182 q 444 1126 451 1143 q 424 1096 436 1109 q 394 1076 411 1083 q 357 1068 376 1068 q 320 1076 338 1068 q 289 1096 302 1083 q 269 1126 276 1109 q 261 1163 261 1143 q 269 1199 261 1182 q 289 1229 276 1217 q 320 1249 302 1242 q 357 1257 338 1257 m 684 1257 q 720 1249 703 1257 q 750 1229 737 1242 q 770 1199 763 1216 q 778 1163 778 1182 q 770 1126 778 1143 q 750 1096 763 1109 q 721 1076 738 1083 q 684 1068 703 1068 q 647 1076 665 1068 q 616 1096 629 1083 q 595 1126 603 1109 q 588 1163 588 1143 q 595 1199 588 1182 q 616 1229 603 1217 q 647 1249 629 1242 q 684 1257 665 1257 m 926 975 l 926 429 q 905 240 926 323 q 834 100 883 157 q 708 14 786 43 q 519 -16 631 -16 q 327 15 405 -16 q 202 103 250 45 q 133 243 154 161 q 113 429 113 326 l 113 975 l 305 975 l 305 406 q 316 289 305 341 q 353 201 328 237 q 419 145 378 165 q 519 125 460 125 q 621 145 579 125 q 687 201 662 165 q 723 290 712 238 q 734 406 734 342 l 734 975 l 926 975 z "},"Ý":{"ha":949,"x_min":44,"x_max":905,"o":"m 452 1362 q 505 1390 476 1380 q 561 1400 534 1400 q 597 1395 580 1400 q 627 1379 614 1390 q 647 1352 640 1368 q 654 1314 654 1336 q 647 1265 654 1289 q 624 1215 640 1242 q 586 1153 609 1187 q 532 1070 563 1118 l 427 1070 l 491 1248 l 452 1362 m 905 975 l 570 439 l 570 0 l 380 0 l 380 439 l 44 975 l 250 975 l 475 566 l 699 975 l 905 975 z "},"Þ":{"ha":878,"x_min":123,"x_max":802,"o":"m 312 975 l 312 808 l 500 808 q 628 788 572 808 q 722 732 684 769 q 781 640 761 694 q 802 513 802 585 q 777 378 802 436 q 705 281 751 320 q 591 223 658 243 q 443 203 525 203 q 371 206 405 203 q 312 211 338 208 l 312 0 l 123 0 l 123 975 l 312 975 m 312 340 q 355 335 334 337 q 397 334 376 334 q 489 342 449 334 q 555 372 528 351 q 595 425 582 392 q 609 505 609 457 q 599 586 609 553 q 566 639 589 618 q 509 668 544 659 q 423 677 473 677 l 312 677 l 312 340 z "},"ß":{"ha":895,"x_min":126,"x_max":821,"o":"m 126 711 q 151 841 126 788 q 220 928 176 895 q 323 976 264 961 q 450 990 382 990 q 576 976 518 990 q 677 931 635 962 q 744 856 720 901 q 768 747 768 810 q 741 629 768 680 q 660 530 713 578 q 726 495 696 517 q 777 444 756 473 q 809 377 798 414 q 821 296 821 340 q 790 146 821 206 q 712 50 760 85 q 605 -2 664 14 q 486 -17 545 -17 q 438 -15 462 -17 q 393 -8 414 -12 l 433 123 q 450 122 441 122 q 468 122 458 122 q 528 129 498 122 q 581 154 557 136 q 619 204 604 172 q 633 287 633 236 q 611 371 633 339 q 554 420 589 402 q 478 446 519 438 q 399 458 437 453 l 431 578 q 467 575 448 577 q 502 570 487 572 q 565 641 545 602 q 585 732 585 680 q 549 821 585 790 q 448 851 513 851 q 349 817 386 851 q 311 709 311 783 l 311 1 l 126 1 l 126 711 z "},"à":{"ha":774,"x_min":56,"x_max":682,"o":"m 351 808 q 298 890 321 856 q 259 952 275 925 q 237 1003 244 979 q 229 1052 229 1026 q 237 1089 229 1074 q 257 1116 244 1105 q 287 1132 270 1127 q 323 1137 304 1137 q 379 1127 350 1137 q 432 1100 408 1118 l 393 985 l 457 808 l 351 808 m 127 671 q 184 690 152 681 q 253 706 216 699 q 328 717 289 713 q 407 721 367 721 q 512 712 463 721 q 594 683 562 703 q 645 628 627 663 q 663 540 663 593 l 663 264 q 664 180 663 217 q 667 108 665 143 q 669 84 668 95 q 672 64 671 74 q 676 43 674 54 q 682 20 679 33 q 598 1 640 10 q 514 -16 557 -7 q 502 23 507 3 q 494 69 498 43 l 484 69 q 437 28 460 45 q 387 2 413 12 q 334 -12 361 -8 q 275 -16 306 -16 q 189 -5 229 -16 q 119 29 149 6 q 73 88 90 52 q 56 172 56 123 q 65 244 56 212 q 89 301 73 276 q 126 345 104 326 q 174 378 148 364 q 292 417 227 407 q 425 428 357 428 l 484 428 l 484 516 q 476 556 484 541 q 455 578 468 570 q 424 588 441 585 q 386 590 406 590 q 275 576 331 590 q 168 542 219 562 l 127 671 m 484 328 l 470 328 q 378 321 422 328 q 301 299 334 315 q 248 258 268 283 q 228 194 228 233 q 253 128 228 151 q 322 105 277 105 q 366 111 343 105 q 410 127 388 117 q 450 153 431 138 q 484 189 469 169 l 484 328 z "},"á":{"ha":774,"x_min":56,"x_max":682,"o":"m 381 1100 q 434 1127 406 1118 q 490 1137 463 1137 q 526 1132 509 1137 q 556 1116 543 1127 q 576 1089 569 1105 q 584 1052 584 1074 q 576 1003 584 1026 q 554 952 569 979 q 515 890 538 925 q 462 808 492 856 l 356 808 l 420 985 l 381 1100 m 127 671 q 184 690 152 681 q 253 706 216 699 q 328 717 289 713 q 407 721 367 721 q 512 712 463 721 q 594 683 562 703 q 645 628 627 663 q 663 540 663 593 l 663 264 q 664 180 663 217 q 667 108 665 143 q 669 84 668 95 q 672 64 671 74 q 676 43 674 54 q 682 20 679 33 q 598 1 640 10 q 514 -16 557 -7 q 502 23 507 3 q 494 69 498 43 l 484 69 q 437 28 460 45 q 387 2 413 12 q 334 -12 361 -8 q 275 -16 306 -16 q 189 -5 229 -16 q 119 29 149 6 q 73 88 90 52 q 56 172 56 123 q 65 244 56 212 q 89 301 73 276 q 126 345 104 326 q 174 378 148 364 q 292 417 227 407 q 425 428 357 428 l 484 428 l 484 516 q 476 556 484 541 q 455 578 468 570 q 424 588 441 585 q 386 590 406 590 q 275 576 331 590 q 168 542 219 562 l 127 671 m 484 328 l 470 328 q 378 321 422 328 q 301 299 334 315 q 248 258 268 283 q 228 194 228 233 q 253 128 228 151 q 322 105 277 105 q 366 111 343 105 q 410 127 388 117 q 450 153 431 138 q 484 189 469 169 l 484 328 z "},"â":{"ha":774,"x_min":56,"x_max":682,"o":"m 404 1039 l 629 867 l 578 808 l 404 883 l 231 808 l 180 867 l 404 1039 m 127 671 q 184 690 152 681 q 253 706 216 699 q 328 717 289 713 q 407 721 367 721 q 512 712 463 721 q 594 683 562 703 q 645 628 627 663 q 663 540 663 593 l 663 264 q 664 180 663 217 q 667 108 665 143 q 669 84 668 95 q 672 64 671 74 q 676 43 674 54 q 682 20 679 33 q 598 1 640 10 q 514 -16 557 -7 q 502 23 507 3 q 494 69 498 43 l 484 69 q 437 28 460 45 q 387 2 413 12 q 334 -12 361 -8 q 275 -16 306 -16 q 189 -5 229 -16 q 119 29 149 6 q 73 88 90 52 q 56 172 56 123 q 65 244 56 212 q 89 301 73 276 q 126 345 104 326 q 174 378 148 364 q 292 417 227 407 q 425 428 357 428 l 484 428 l 484 516 q 476 556 484 541 q 455 578 468 570 q 424 588 441 585 q 386 590 406 590 q 275 576 331 590 q 168 542 219 562 l 127 671 m 484 328 l 470 328 q 378 321 422 328 q 301 299 334 315 q 248 258 268 283 q 228 194 228 233 q 253 128 228 151 q 322 105 277 105 q 366 111 343 105 q 410 127 388 117 q 450 153 431 138 q 484 189 469 169 l 484 328 z "},"ã":{"ha":774,"x_min":56,"x_max":682,"o":"m 627 962 q 614 907 625 935 q 586 858 603 880 q 545 823 568 836 q 493 809 522 809 q 447 817 469 809 q 402 833 424 824 q 359 849 380 842 q 318 857 338 857 q 280 842 293 857 q 262 802 268 827 l 181 802 q 195 857 184 829 q 223 905 205 884 q 263 941 240 927 q 315 955 287 955 q 362 947 339 955 q 406 931 385 940 q 449 915 428 922 q 490 907 470 907 q 528 922 515 907 q 547 962 541 937 l 627 962 m 127 671 q 184 690 152 681 q 253 706 216 699 q 328 717 289 713 q 407 721 367 721 q 512 712 463 721 q 594 683 562 703 q 645 628 627 663 q 663 540 663 593 l 663 264 q 664 180 663 217 q 667 108 665 143 q 669 84 668 95 q 672 64 671 74 q 676 43 674 54 q 682 20 679 33 q 598 1 640 10 q 514 -16 557 -7 q 502 23 507 3 q 494 69 498 43 l 484 69 q 437 28 460 45 q 387 2 413 12 q 334 -12 361 -8 q 275 -16 306 -16 q 189 -5 229 -16 q 119 29 149 6 q 73 88 90 52 q 56 172 56 123 q 65 244 56 212 q 89 301 73 276 q 126 345 104 326 q 174 378 148 364 q 292 417 227 407 q 425 428 357 428 l 484 428 l 484 516 q 476 556 484 541 q 455 578 468 570 q 424 588 441 585 q 386 590 406 590 q 275 576 331 590 q 168 542 219 562 l 127 671 m 484 328 l 470 328 q 378 321 422 328 q 301 299 334 315 q 248 258 268 283 q 228 194 228 233 q 253 128 228 151 q 322 105 277 105 q 366 111 343 105 q 410 127 388 117 q 450 153 431 138 q 484 189 469 169 l 484 328 z "},"ä":{"ha":774,"x_min":56,"x_max":682,"o":"m 242 994 q 278 987 261 994 q 308 966 295 979 q 328 937 321 954 q 336 901 336 920 q 328 864 336 881 q 308 833 321 846 q 278 813 296 821 q 242 806 261 806 q 205 813 222 806 q 174 833 187 821 q 153 864 161 846 q 146 901 146 881 q 153 937 146 920 q 174 967 161 954 q 205 987 187 979 q 242 994 222 994 m 569 994 q 605 987 588 994 q 635 966 622 979 q 655 937 648 954 q 663 901 663 920 q 655 864 663 881 q 635 833 648 846 q 605 813 623 821 q 569 806 588 806 q 532 813 549 806 q 501 833 514 821 q 480 864 488 846 q 473 901 473 881 q 480 937 473 920 q 501 967 488 954 q 532 987 514 979 q 569 994 549 994 m 127 671 q 184 690 152 681 q 253 706 216 699 q 328 717 289 713 q 407 721 367 721 q 512 712 463 721 q 594 683 562 703 q 645 628 627 663 q 663 540 663 593 l 663 264 q 664 180 663 217 q 667 108 665 143 q 669 84 668 95 q 672 64 671 74 q 676 43 674 54 q 682 20 679 33 q 598 1 640 10 q 514 -16 557 -7 q 502 23 507 3 q 494 69 498 43 l 484 69 q 437 28 460 45 q 387 2 413 12 q 334 -12 361 -8 q 275 -16 306 -16 q 189 -5 229 -16 q 119 29 149 6 q 73 88 90 52 q 56 172 56 123 q 65 244 56 212 q 89 301 73 276 q 126 345 104 326 q 174 378 148 364 q 292 417 227 407 q 425 428 357 428 l 484 428 l 484 516 q 476 556 484 541 q 455 578 468 570 q 424 588 441 585 q 386 590 406 590 q 275 576 331 590 q 168 542 219 562 l 127 671 m 484 328 l 470 328 q 378 321 422 328 q 301 299 334 315 q 248 258 268 283 q 228 194 228 233 q 253 128 228 151 q 322 105 277 105 q 366 111 343 105 q 410 127 388 117 q 450 153 431 138 q 484 189 469 169 l 484 328 z "},"å":{"ha":774,"x_min":56,"x_max":682,"o":"m 404 1065 q 456 1055 432 1065 q 498 1026 480 1044 q 526 984 516 1008 q 536 932 536 960 q 526 881 536 905 q 498 839 516 857 q 456 810 480 821 q 404 800 432 800 q 352 810 376 800 q 310 839 328 821 q 282 881 292 857 q 272 932 272 905 q 282 984 272 960 q 310 1026 292 1008 q 352 1055 328 1044 q 404 1065 376 1065 m 404 989 q 364 972 380 989 q 348 932 348 956 q 364 892 348 909 q 404 876 380 876 q 444 892 428 876 q 460 932 460 909 q 444 972 460 956 q 404 989 428 989 m 127 671 q 184 690 152 681 q 253 706 216 699 q 328 717 289 713 q 407 721 367 721 q 512 712 463 721 q 594 683 562 703 q 645 628 627 663 q 663 540 663 593 l 663 264 q 664 180 663 217 q 667 108 665 143 q 669 84 668 95 q 672 64 671 74 q 676 43 674 54 q 682 20 679 33 q 598 1 640 10 q 514 -16 557 -7 q 502 23 507 3 q 494 69 498 43 l 484 69 q 437 28 460 45 q 387 2 413 12 q 334 -12 361 -8 q 275 -16 306 -16 q 189 -5 229 -16 q 119 29 149 6 q 73 88 90 52 q 56 172 56 123 q 65 244 56 212 q 89 301 73 276 q 126 345 104 326 q 174 378 148 364 q 292 417 227 407 q 425 428 357 428 l 484 428 l 484 516 q 476 556 484 541 q 455 578 468 570 q 424 588 441 585 q 386 590 406 590 q 275 576 331 590 q 168 542 219 562 l 127 671 m 484 328 l 470 328 q 378 321 422 328 q 301 299 334 315 q 248 258 268 283 q 228 194 228 233 q 253 128 228 151 q 322 105 277 105 q 366 111 343 105 q 410 127 388 117 q 450 153 431 138 q 484 189 469 169 l 484 328 z "},"æ":{"ha":1232,"x_min":56,"x_max":1164,"o":"m 127 671 q 184 690 152 681 q 253 706 216 699 q 328 717 289 713 q 407 721 367 721 q 533 708 480 721 q 617 665 587 694 q 705 706 655 692 q 818 721 754 721 q 971 700 906 721 q 1079 634 1036 678 q 1143 520 1122 589 q 1164 357 1164 452 l 1164 303 l 664 303 q 675 221 665 256 q 706 162 684 186 q 763 125 727 138 q 853 113 799 113 q 956 125 901 113 q 1070 159 1010 137 l 1114 32 q 1053 12 1086 20 q 984 -3 1020 3 q 911 -13 948 -9 q 839 -16 874 -16 q 658 13 733 -16 q 539 104 583 43 q 470 38 504 62 q 404 2 437 14 q 339 -13 372 -10 q 275 -16 307 -16 q 189 -5 229 -16 q 119 29 149 6 q 73 88 90 52 q 56 172 56 123 q 65 244 56 212 q 89 301 73 276 q 126 345 104 326 q 174 378 148 364 q 292 417 227 407 q 425 428 357 428 l 484 428 l 484 516 q 476 556 484 541 q 455 578 468 570 q 424 588 441 585 q 386 590 406 590 q 275 576 331 590 q 168 542 219 562 l 127 671 m 978 424 q 827 591 973 591 q 713 548 752 591 q 665 424 674 505 l 978 424 m 470 328 q 378 321 422 328 q 301 299 334 315 q 248 258 268 283 q 228 194 228 233 q 253 128 228 151 q 322 105 277 105 q 374 113 349 105 q 420 133 399 120 q 461 163 442 146 q 494 199 479 180 q 483 260 487 228 q 478 328 478 292 l 470 328 z "},"ç":{"ha":721,"x_min":54,"x_max":665,"o":"m 399 -77 q 476 -118 454 -94 q 499 -178 499 -142 q 488 -227 499 -206 q 456 -262 476 -248 q 408 -283 436 -276 q 348 -290 380 -290 q 286 -283 317 -290 q 223 -267 254 -277 l 260 -199 q 310 -220 287 -212 q 350 -227 332 -227 q 383 -216 372 -227 q 395 -182 395 -205 q 371 -142 395 -157 q 299 -111 347 -127 l 358 -15 q 216 17 274 -9 q 122 87 158 43 q 70 195 86 132 q 54 339 54 258 q 78 500 54 429 q 148 621 101 572 q 264 695 195 669 q 428 721 334 721 q 536 712 482 721 q 638 690 589 704 l 593 555 q 514 577 552 569 q 436 585 475 585 q 347 568 384 585 q 286 520 310 551 q 251 446 262 489 q 240 353 240 404 q 281 177 240 235 q 417 119 322 119 q 525 132 475 119 q 623 161 574 144 l 665 26 q 615 11 642 18 q 560 -1 588 4 q 503 -10 532 -7 q 448 -15 475 -14 l 399 -77 z "},"è":{"ha":815,"x_min":62,"x_max":748,"o":"m 359 801 q 305 884 328 849 q 267 945 282 918 q 244 996 252 972 q 237 1045 237 1019 q 244 1083 237 1067 q 264 1109 252 1099 q 294 1125 277 1120 q 330 1131 311 1131 q 386 1121 357 1131 q 439 1093 415 1111 l 400 979 l 465 801 l 359 801 m 698 32 q 637 12 670 20 q 568 -3 604 3 q 495 -13 532 -9 q 423 -16 458 -16 q 154 70 245 -16 q 62 332 62 155 q 81 481 62 411 q 140 605 99 552 q 248 690 181 659 q 412 721 315 721 q 665 631 581 721 q 748 357 748 541 l 748 303 l 247 303 q 258 222 248 257 q 289 162 267 186 q 347 126 311 138 q 437 113 383 113 q 540 125 485 113 q 654 159 595 137 l 698 32 m 562 424 q 412 591 557 591 q 297 548 336 591 q 250 424 258 505 l 562 424 z "},"é":{"ha":815,"x_min":62,"x_max":748,"o":"m 389 1093 q 442 1121 413 1111 q 498 1131 471 1131 q 534 1125 517 1131 q 564 1109 551 1120 q 584 1083 576 1099 q 591 1045 591 1067 q 584 996 591 1019 q 561 945 576 972 q 523 884 546 918 q 469 801 500 849 l 363 801 l 428 979 l 389 1093 m 698 32 q 637 12 670 20 q 568 -3 604 3 q 495 -13 532 -9 q 423 -16 458 -16 q 154 70 245 -16 q 62 332 62 155 q 81 481 62 411 q 140 605 99 552 q 248 690 181 659 q 412 721 315 721 q 665 631 581 721 q 748 357 748 541 l 748 303 l 247 303 q 258 222 248 257 q 289 162 267 186 q 347 126 311 138 q 437 113 383 113 q 540 125 485 113 q 654 159 595 137 l 698 32 m 562 424 q 412 591 557 591 q 297 548 336 591 q 250 424 258 505 l 562 424 z "},"ê":{"ha":815,"x_min":62,"x_max":748,"o":"m 412 1032 l 636 860 l 585 801 l 412 876 l 238 801 l 187 860 l 412 1032 m 698 32 q 637 12 670 20 q 568 -3 604 3 q 495 -13 532 -9 q 423 -16 458 -16 q 154 70 245 -16 q 62 332 62 155 q 81 481 62 411 q 140 605 99 552 q 248 690 181 659 q 412 721 315 721 q 665 631 581 721 q 748 357 748 541 l 748 303 l 247 303 q 258 222 248 257 q 289 162 267 186 q 347 126 311 138 q 437 113 383 113 q 540 125 485 113 q 654 159 595 137 l 698 32 m 562 424 q 412 591 557 591 q 297 548 336 591 q 250 424 258 505 l 562 424 z "},"ë":{"ha":815,"x_min":62,"x_max":748,"o":"m 250 987 q 286 980 269 987 q 315 960 302 972 q 336 930 328 947 q 343 894 343 913 q 336 857 343 874 q 316 827 328 840 q 286 806 303 814 q 250 799 269 799 q 212 806 230 799 q 181 827 195 814 q 161 857 168 840 q 153 894 153 874 q 161 930 153 913 q 181 960 168 947 q 212 980 195 972 q 250 987 230 987 m 576 987 q 612 980 595 987 q 642 960 629 972 q 663 930 655 947 q 670 894 670 913 q 663 857 670 874 q 643 827 655 840 q 613 806 630 814 q 576 799 595 799 q 539 806 557 799 q 508 827 522 814 q 488 857 495 840 q 480 894 480 874 q 488 930 480 913 q 508 960 495 947 q 539 980 522 972 q 576 987 557 987 m 698 32 q 637 12 670 20 q 568 -3 604 3 q 495 -13 532 -9 q 423 -16 458 -16 q 154 70 245 -16 q 62 332 62 155 q 81 481 62 411 q 140 605 99 552 q 248 690 181 659 q 412 721 315 721 q 665 631 581 721 q 748 357 748 541 l 748 303 l 247 303 q 258 222 248 257 q 289 162 267 186 q 347 126 311 138 q 437 113 383 113 q 540 125 485 113 q 654 159 595 137 l 698 32 m 562 424 q 412 591 557 591 q 297 548 336 591 q 250 424 258 505 l 562 424 z "},"ì":{"ha":432,"x_min":41,"x_max":309,"o":"m 163 801 q 110 884 133 849 q 72 945 87 918 q 49 996 56 972 q 41 1045 41 1019 q 49 1083 41 1067 q 69 1109 56 1099 q 99 1125 82 1120 q 135 1131 116 1131 q 191 1121 162 1131 q 244 1093 220 1111 l 205 979 l 269 801 l 163 801 m 309 705 l 309 0 l 123 0 l 123 705 l 309 705 z "},"í":{"ha":431,"x_min":123,"x_max":385,"o":"m 182 1100 q 236 1127 207 1118 q 292 1137 264 1137 q 328 1132 311 1137 q 357 1116 345 1127 q 378 1089 370 1105 q 385 1052 385 1074 q 378 1003 385 1026 q 355 952 370 979 q 317 890 340 925 q 263 808 294 856 l 157 808 l 222 985 l 182 1100 m 309 705 l 309 0 l 123 0 l 123 705 l 309 705 z "},"î":{"ha":451,"x_min":1,"x_max":450,"o":"m 225 1039 l 450 867 l 399 808 l 225 883 l 52 808 l 1 867 l 225 1039 m 330 705 l 330 0 l 143 0 l 143 705 l 330 705 z "},"ï":{"ha":432,"x_min":-42,"x_max":475,"o":"m 54 987 q 90 980 73 987 q 120 960 107 972 q 140 930 133 947 q 148 894 148 913 q 140 857 148 874 q 120 827 133 840 q 91 806 108 814 q 54 799 73 799 q 17 806 35 799 q -14 827 -1 814 q -35 857 -27 840 q -42 894 -42 874 q -35 930 -42 913 q -14 960 -27 947 q 17 980 -1 972 q 54 987 35 987 m 381 987 q 417 980 400 987 q 447 960 434 972 q 467 930 460 947 q 475 894 475 913 q 467 857 475 874 q 447 827 460 840 q 417 806 435 814 q 381 799 400 799 q 344 806 361 799 q 313 827 326 814 q 292 857 300 840 q 285 894 285 874 q 292 930 285 913 q 313 960 300 947 q 344 980 326 972 q 381 987 361 987 m 309 705 l 309 0 l 123 0 l 123 705 l 309 705 z "},"ð":{"ha":840,"x_min":61,"x_max":779,"o":"m 595 1109 l 595 953 l 549 916 q 654 829 610 882 q 725 708 697 776 q 766 560 753 641 q 779 387 779 479 q 755 215 779 290 q 686 87 732 139 q 572 9 640 36 q 414 -18 504 -18 q 270 3 335 -18 q 158 67 205 24 q 86 173 112 109 q 61 323 61 237 q 156 576 61 496 q 205 608 178 595 q 260 629 231 621 q 319 640 289 637 q 380 644 350 644 q 484 634 435 644 q 566 610 532 625 q 518 735 549 682 q 433 822 486 787 l 254 676 l 254 834 l 304 873 q 155 890 239 888 l 171 996 q 237 992 203 994 q 301 986 270 989 q 362 977 333 982 q 416 965 391 972 l 595 1109 m 405 520 q 331 505 360 520 q 286 462 302 489 q 262 399 269 435 q 256 323 256 363 q 265 238 256 276 q 294 172 275 199 q 341 130 313 145 q 410 115 370 115 q 478 130 450 115 q 527 169 507 145 q 557 222 546 193 q 575 281 569 252 q 583 338 581 311 q 585 382 585 364 q 583 422 585 402 q 580 461 582 442 q 493 505 537 490 q 405 520 450 520 z "},"ñ":{"ha":846,"x_min":94,"x_max":762,"o":"m 646 955 q 633 901 644 928 q 605 851 622 873 q 564 816 587 829 q 512 802 541 802 q 466 810 488 802 q 421 826 443 817 q 378 842 399 835 q 337 850 357 850 q 299 835 312 850 q 281 795 287 821 l 200 795 q 214 850 203 823 q 242 899 224 877 q 282 934 259 920 q 334 948 306 948 q 381 941 358 948 q 425 924 404 933 q 468 908 447 916 q 509 901 489 901 q 547 915 534 901 q 566 955 559 930 l 646 955 m 304 585 q 350 644 326 618 q 402 687 374 669 q 462 712 429 704 q 535 721 495 721 q 614 711 580 721 q 674 683 649 701 q 716 636 699 664 q 744 574 734 609 q 758 499 753 540 q 762 412 762 459 l 762 0 l 576 0 l 576 466 q 550 555 576 524 q 477 585 523 585 q 426 573 451 585 q 378 541 401 561 q 336 496 355 521 q 300 445 316 471 l 300 0 l 115 0 l 115 435 q 114 527 115 490 q 110 592 113 564 q 107 617 109 606 q 104 638 106 628 q 100 659 102 648 q 94 683 98 669 q 182 704 138 694 q 271 721 226 713 q 279 693 275 707 q 286 663 283 679 q 291 628 289 647 q 295 585 293 609 l 304 585 z "},"ò":{"ha":823,"x_min":68,"x_max":758,"o":"m 359 801 q 305 884 328 849 q 267 945 282 918 q 244 996 252 972 q 237 1045 237 1019 q 244 1083 237 1067 q 264 1109 252 1099 q 294 1125 277 1120 q 330 1131 311 1131 q 386 1121 357 1131 q 439 1093 415 1111 l 400 979 l 465 801 l 359 801 m 413 721 q 567 693 502 721 q 674 616 632 665 q 738 499 717 567 q 758 353 758 432 q 738 205 758 273 q 674 89 717 138 q 567 12 632 39 q 413 -16 502 -16 q 259 12 324 -16 q 152 89 194 39 q 89 205 109 138 q 68 353 68 273 q 89 499 68 432 q 152 616 109 567 q 259 693 194 665 q 413 721 324 721 m 413 588 q 333 570 364 588 q 284 519 302 551 q 260 445 267 488 q 254 353 254 401 q 260 260 254 303 q 284 185 267 217 q 333 135 302 153 q 413 117 364 117 q 493 135 462 117 q 542 185 524 153 q 566 260 559 217 q 572 353 572 303 q 566 445 572 401 q 542 519 559 488 q 493 570 524 551 q 413 588 462 588 z "},"ó":{"ha":823,"x_min":68,"x_max":758,"o":"m 389 1093 q 442 1121 413 1111 q 498 1131 471 1131 q 534 1125 517 1131 q 564 1109 551 1120 q 584 1083 576 1099 q 591 1045 591 1067 q 584 996 591 1019 q 561 945 576 972 q 523 884 546 918 q 469 801 500 849 l 363 801 l 428 979 l 389 1093 m 413 721 q 567 693 502 721 q 674 616 632 665 q 738 499 717 567 q 758 353 758 432 q 738 205 758 273 q 674 89 717 138 q 567 12 632 39 q 413 -16 502 -16 q 259 12 324 -16 q 152 89 194 39 q 89 205 109 138 q 68 353 68 273 q 89 499 68 432 q 152 616 109 567 q 259 693 194 665 q 413 721 324 721 m 413 588 q 333 570 364 588 q 284 519 302 551 q 260 445 267 488 q 254 353 254 401 q 260 260 254 303 q 284 185 267 217 q 333 135 302 153 q 413 117 364 117 q 493 135 462 117 q 542 185 524 153 q 566 260 559 217 q 572 353 572 303 q 566 445 572 401 q 542 519 559 488 q 493 570 524 551 q 413 588 462 588 z "},"ô":{"ha":823,"x_min":68,"x_max":758,"o":"m 412 1032 l 636 860 l 585 801 l 412 876 l 238 801 l 187 860 l 412 1032 m 413 721 q 567 693 502 721 q 674 616 632 665 q 738 499 717 567 q 758 353 758 432 q 738 205 758 273 q 674 89 717 138 q 567 12 632 39 q 413 -16 502 -16 q 259 12 324 -16 q 152 89 194 39 q 89 205 109 138 q 68 353 68 273 q 89 499 68 432 q 152 616 109 567 q 259 693 194 665 q 413 721 324 721 m 413 588 q 333 570 364 588 q 284 519 302 551 q 260 445 267 488 q 254 353 254 401 q 260 260 254 303 q 284 185 267 217 q 333 135 302 153 q 413 117 364 117 q 493 135 462 117 q 542 185 524 153 q 566 260 559 217 q 572 353 572 303 q 566 445 572 401 q 542 519 559 488 q 493 570 524 551 q 413 588 462 588 z "},"õ":{"ha":823,"x_min":68,"x_max":758,"o":"m 635 955 q 621 901 632 928 q 593 851 610 873 q 552 816 576 829 q 500 802 529 802 q 454 810 477 802 q 410 826 431 817 q 367 842 388 835 q 326 850 346 850 q 288 835 300 850 q 269 795 275 821 l 189 795 q 202 850 191 823 q 230 899 213 877 q 271 934 248 920 q 323 948 294 948 q 369 941 347 948 q 414 924 392 933 q 456 908 435 916 q 498 901 477 901 q 535 915 523 901 q 554 955 548 930 l 635 955 m 413 721 q 567 693 502 721 q 674 616 632 665 q 738 499 717 567 q 758 353 758 432 q 738 205 758 273 q 674 89 717 138 q 567 12 632 39 q 413 -16 502 -16 q 259 12 324 -16 q 152 89 194 39 q 89 205 109 138 q 68 353 68 273 q 89 499 68 432 q 152 616 109 567 q 259 693 194 665 q 413 721 324 721 m 413 588 q 333 570 364 588 q 284 519 302 551 q 260 445 267 488 q 254 353 254 401 q 260 260 254 303 q 284 185 267 217 q 333 135 302 153 q 413 117 364 117 q 493 135 462 117 q 542 185 524 153 q 566 260 559 217 q 572 353 572 303 q 566 445 572 401 q 542 519 559 488 q 493 570 524 551 q 413 588 462 588 z "},"ö":{"ha":823,"x_min":68,"x_max":758,"o":"m 250 987 q 286 980 269 987 q 315 960 302 972 q 336 930 328 947 q 343 894 343 913 q 336 857 343 874 q 316 827 328 840 q 286 806 303 814 q 250 799 269 799 q 212 806 230 799 q 181 827 195 814 q 161 857 168 840 q 153 894 153 874 q 161 930 153 913 q 181 960 168 947 q 212 980 195 972 q 250 987 230 987 m 576 987 q 612 980 595 987 q 642 960 629 972 q 663 930 655 947 q 670 894 670 913 q 663 857 670 874 q 643 827 655 840 q 613 806 630 814 q 576 799 595 799 q 539 806 557 799 q 508 827 522 814 q 488 857 495 840 q 480 894 480 874 q 488 930 480 913 q 508 960 495 947 q 539 980 522 972 q 576 987 557 987 m 413 721 q 567 693 502 721 q 674 616 632 665 q 738 499 717 567 q 758 353 758 432 q 738 205 758 273 q 674 89 717 138 q 567 12 632 39 q 413 -16 502 -16 q 259 12 324 -16 q 152 89 194 39 q 89 205 109 138 q 68 353 68 273 q 89 499 68 432 q 152 616 109 567 q 259 693 194 665 q 413 721 324 721 m 413 588 q 333 570 364 588 q 284 519 302 551 q 260 445 267 488 q 254 353 254 401 q 260 260 254 303 q 284 185 267 217 q 333 135 302 153 q 413 117 364 117 q 493 135 462 117 q 542 185 524 153 q 566 260 559 217 q 572 353 572 303 q 566 445 572 401 q 542 519 559 488 q 493 570 524 551 q 413 588 462 588 z "},"÷":{"ha":825,"x_min":102,"x_max":723,"o":"m 412 730 q 452 722 434 730 q 482 702 469 715 q 501 671 494 688 q 508 634 508 654 q 500 597 508 614 q 480 567 493 580 q 449 546 467 553 q 412 538 432 538 q 375 546 393 538 q 345 567 358 553 q 324 597 332 580 q 317 634 317 614 q 325 673 317 655 q 346 703 332 690 q 376 723 359 715 q 412 730 393 730 m 723 446 l 723 317 l 102 317 l 102 446 l 723 446 m 412 224 q 452 216 434 224 q 482 196 469 209 q 501 165 494 182 q 508 128 508 148 q 500 91 508 109 q 480 61 493 74 q 449 40 467 47 q 412 33 432 33 q 375 40 393 33 q 345 61 358 47 q 324 91 332 74 q 317 128 317 109 q 325 167 317 149 q 346 197 332 184 q 376 217 359 210 q 412 224 393 224 z "},"ø":{"ha":823,"x_min":28,"x_max":794,"o":"m 662 629 q 734 509 711 579 q 758 353 758 438 q 738 205 758 273 q 674 89 717 138 q 567 12 632 39 q 413 -16 502 -16 q 337 -11 372 -16 q 272 6 302 -5 l 184 -135 l 28 -135 l 161 78 q 91 198 114 127 q 68 353 68 268 q 89 499 68 432 q 152 616 109 567 q 259 693 194 665 q 413 721 324 721 q 551 699 490 721 l 639 840 l 794 840 l 662 629 m 475 578 q 413 588 448 588 q 333 570 364 588 q 284 519 302 551 q 260 445 267 488 q 254 353 254 401 q 256 294 254 322 q 264 241 258 266 l 475 578 m 348 127 q 413 117 377 117 q 493 135 462 117 q 542 185 524 153 q 566 260 559 217 q 572 353 572 303 q 570 413 572 385 q 561 468 568 442 l 348 127 z "},"ù":{"ha":853,"x_min":98,"x_max":766,"o":"m 370 801 q 316 884 339 849 q 278 945 293 918 q 255 996 262 972 q 248 1045 248 1019 q 255 1083 248 1067 q 275 1109 262 1099 q 305 1125 288 1120 q 341 1131 322 1131 q 397 1121 368 1131 q 450 1093 426 1111 l 411 979 l 475 801 l 370 801 m 746 705 l 746 270 q 747 178 746 215 q 751 113 748 141 q 753 87 752 98 q 756 66 755 77 q 761 45 758 56 q 766 22 763 35 q 679 1 722 10 q 590 -16 635 -8 q 581 12 585 -2 q 574 42 577 26 q 570 77 572 58 q 566 120 568 96 l 557 120 q 510 61 534 86 q 459 18 486 35 q 398 -8 431 1 q 326 -16 366 -16 q 192 18 241 -16 q 122 115 144 52 q 104 196 109 152 q 98 292 98 240 l 98 705 l 284 705 l 284 239 q 311 150 284 180 q 384 119 338 119 q 434 132 410 119 q 482 163 459 144 q 525 209 505 183 q 560 260 545 234 l 560 705 l 746 705 z "},"ú":{"ha":853,"x_min":98,"x_max":766,"o":"m 399 1093 q 453 1121 424 1111 q 509 1131 481 1131 q 545 1125 528 1131 q 574 1109 562 1120 q 595 1083 587 1099 q 602 1045 602 1067 q 595 996 602 1019 q 572 945 587 972 q 534 884 557 918 q 480 801 511 849 l 374 801 l 439 979 l 399 1093 m 746 705 l 746 270 q 747 178 746 215 q 751 113 748 141 q 753 87 752 98 q 756 66 755 77 q 761 45 758 56 q 766 22 763 35 q 679 1 722 10 q 590 -16 635 -8 q 581 12 585 -2 q 574 42 577 26 q 570 77 572 58 q 566 120 568 96 l 557 120 q 510 61 534 86 q 459 18 486 35 q 398 -8 431 1 q 326 -16 366 -16 q 192 18 241 -16 q 122 115 144 52 q 104 196 109 152 q 98 292 98 240 l 98 705 l 284 705 l 284 239 q 311 150 284 180 q 384 119 338 119 q 434 132 410 119 q 482 163 459 144 q 525 209 505 183 q 560 260 545 234 l 560 705 l 746 705 z "},"û":{"ha":853,"x_min":98,"x_max":766,"o":"m 422 1032 l 647 860 l 596 801 l 422 876 l 249 801 l 198 860 l 422 1032 m 746 705 l 746 270 q 747 178 746 215 q 751 113 748 141 q 753 87 752 98 q 756 66 755 77 q 761 45 758 56 q 766 22 763 35 q 679 1 722 10 q 590 -16 635 -8 q 581 12 585 -2 q 574 42 577 26 q 570 77 572 58 q 566 120 568 96 l 557 120 q 510 61 534 86 q 459 18 486 35 q 398 -8 431 1 q 326 -16 366 -16 q 192 18 241 -16 q 122 115 144 52 q 104 196 109 152 q 98 292 98 240 l 98 705 l 284 705 l 284 239 q 311 150 284 180 q 384 119 338 119 q 434 132 410 119 q 482 163 459 144 q 525 209 505 183 q 560 260 545 234 l 560 705 l 746 705 z "},"ü":{"ha":853,"x_min":98,"x_max":766,"o":"m 260 987 q 296 980 279 987 q 326 960 313 972 q 347 930 339 947 q 354 894 354 913 q 347 857 354 874 q 327 827 339 840 q 297 806 314 814 q 260 799 279 799 q 223 806 241 799 q 192 827 205 814 q 172 857 179 840 q 164 894 164 874 q 172 930 164 913 q 192 960 179 947 q 223 980 205 972 q 260 987 241 987 m 587 987 q 623 980 606 987 q 653 960 640 972 q 673 930 666 947 q 681 894 681 913 q 673 857 681 874 q 653 827 666 840 q 624 806 641 814 q 587 799 606 799 q 550 806 568 799 q 519 827 532 814 q 498 857 506 840 q 491 894 491 874 q 498 930 491 913 q 519 960 506 947 q 550 980 532 972 q 587 987 568 987 m 746 705 l 746 270 q 747 178 746 215 q 751 113 748 141 q 753 87 752 98 q 756 66 755 77 q 761 45 758 56 q 766 22 763 35 q 679 1 722 10 q 590 -16 635 -8 q 581 12 585 -2 q 574 42 577 26 q 570 77 572 58 q 566 120 568 96 l 557 120 q 510 61 534 86 q 459 18 486 35 q 398 -8 431 1 q 326 -16 366 -16 q 192 18 241 -16 q 122 115 144 52 q 104 196 109 152 q 98 292 98 240 l 98 705 l 284 705 l 284 239 q 311 150 284 180 q 384 119 338 119 q 434 132 410 119 q 482 163 459 144 q 525 209 505 183 q 560 260 545 234 l 560 705 l 746 705 z "},"ý":{"ha":872,"x_min":104,"x_max":755,"o":"m 410 1093 q 464 1121 435 1111 q 519 1131 492 1131 q 555 1125 538 1131 q 585 1109 572 1120 q 606 1083 598 1099 q 613 1045 613 1067 q 606 996 613 1019 q 583 945 598 972 q 545 884 568 918 q 491 801 522 849 l 385 801 l 450 979 l 410 1093 m 755 705 l 755 5 q 729 -129 755 -74 q 657 -219 704 -184 q 546 -269 611 -254 q 404 -285 481 -285 q 281 -274 343 -285 q 166 -243 219 -264 q 195 -176 180 -209 q 226 -111 210 -144 q 325 -138 275 -127 q 422 -149 375 -149 q 451 -148 435 -149 q 484 -143 467 -147 q 515 -131 500 -139 q 543 -107 531 -122 q 562 -71 555 -93 q 570 -18 570 -49 l 570 120 l 564 120 q 518 61 542 86 q 466 18 494 35 q 405 -8 438 1 q 331 -16 372 -16 q 221 5 264 -16 q 151 65 178 26 q 115 163 125 106 q 104 292 104 220 l 104 705 l 290 705 l 290 239 q 317 150 290 180 q 391 119 344 119 q 442 132 417 119 q 490 163 467 144 q 532 209 513 183 q 568 260 552 234 l 568 705 l 755 705 z "},"þ":{"ha":811,"x_min":94,"x_max":750,"o":"m 279 977 l 279 606 l 281 606 q 494 721 358 721 q 614 693 566 721 q 693 618 663 665 q 737 509 724 571 q 750 378 750 447 q 729 213 750 286 q 661 90 708 140 q 536 11 613 39 q 347 -16 459 -16 q 279 -14 311 -16 l 279 -271 l 94 -271 l 94 977 l 279 977 m 279 132 q 338 123 308 126 q 404 119 369 119 q 468 132 439 119 q 519 170 498 144 q 552 234 541 195 q 564 323 564 272 q 559 429 564 380 q 541 512 555 477 q 500 566 526 547 q 430 585 473 585 q 382 576 404 585 q 343 550 361 566 q 309 510 325 533 q 279 459 294 486 l 279 132 z "},"ÿ":{"ha":872,"x_min":104,"x_max":755,"o":"m 271 987 q 307 980 290 987 q 337 960 324 972 q 357 930 350 947 q 365 894 365 913 q 357 857 365 874 q 337 827 350 840 q 308 806 325 814 q 271 799 290 799 q 234 806 252 799 q 203 827 216 814 q 182 857 190 840 q 175 894 175 874 q 182 930 175 913 q 203 960 190 947 q 234 980 216 972 q 271 987 252 987 m 598 987 q 634 980 617 987 q 664 960 651 972 q 684 930 677 947 q 692 894 692 913 q 684 857 692 874 q 664 827 677 840 q 634 806 652 814 q 598 799 617 799 q 561 806 578 799 q 530 827 543 814 q 509 857 517 840 q 502 894 502 874 q 509 930 502 913 q 530 960 517 947 q 561 980 543 972 q 598 987 578 987 m 755 705 l 755 5 q 729 -129 755 -74 q 657 -219 704 -184 q 546 -269 611 -254 q 404 -285 481 -285 q 281 -274 343 -285 q 166 -243 219 -264 q 195 -176 180 -209 q 226 -111 210 -144 q 325 -138 275 -127 q 422 -149 375 -149 q 451 -148 435 -149 q 484 -143 467 -147 q 515 -131 500 -139 q 543 -107 531 -122 q 562 -71 555 -93 q 570 -18 570 -49 l 570 120 l 564 120 q 518 61 542 86 q 466 18 494 35 q 405 -8 438 1 q 331 -16 372 -16 q 221 5 264 -16 q 151 65 178 26 q 115 163 125 106 q 104 292 104 220 l 104 705 l 290 705 l 290 239 q 317 150 290 180 q 391 119 344 119 q 442 132 417 119 q 490 163 467 144 q 532 209 513 183 q 568 260 552 234 l 568 705 l 755 705 z "},"Ā":{"ha":986,"x_min":28,"x_max":955,"o":"m 699 1224 l 699 1108 l 288 1108 l 288 1224 l 699 1224 m 587 975 l 955 0 l 764 0 l 652 300 l 331 300 l 220 0 l 28 0 l 397 975 l 587 975 m 492 774 l 381 436 l 602 436 l 492 774 z "},"ā":{"ha":774,"x_min":56,"x_max":682,"o":"m 610 962 l 610 846 l 199 846 l 199 962 l 610 962 m 127 671 q 184 690 152 681 q 253 706 216 699 q 328 717 289 713 q 407 721 367 721 q 512 712 463 721 q 594 683 562 703 q 645 628 627 663 q 663 540 663 593 l 663 264 q 664 180 663 217 q 667 108 665 143 q 669 84 668 95 q 672 64 671 74 q 676 43 674 54 q 682 20 679 33 q 598 1 640 10 q 514 -16 557 -7 q 502 23 507 3 q 494 69 498 43 l 484 69 q 437 28 460 45 q 387 2 413 12 q 334 -12 361 -8 q 275 -16 306 -16 q 189 -5 229 -16 q 119 29 149 6 q 73 88 90 52 q 56 172 56 123 q 65 244 56 212 q 89 301 73 276 q 126 345 104 326 q 174 378 148 364 q 292 417 227 407 q 425 428 357 428 l 484 428 l 484 516 q 476 556 484 541 q 455 578 468 570 q 424 588 441 585 q 386 590 406 590 q 275 576 331 590 q 168 542 219 562 l 127 671 m 484 328 l 470 328 q 378 321 422 328 q 301 299 334 315 q 248 258 268 283 q 228 194 228 233 q 253 128 228 151 q 322 105 277 105 q 366 111 343 105 q 410 127 388 117 q 450 153 431 138 q 484 189 469 169 l 484 328 z "},"Ă":{"ha":986,"x_min":28,"x_max":955,"o":"m 715 1291 q 647 1141 703 1193 q 493 1088 590 1088 q 339 1141 396 1088 q 271 1291 283 1193 l 338 1291 q 401 1221 363 1240 q 493 1201 440 1201 q 585 1221 546 1201 q 648 1291 623 1240 l 715 1291 m 587 975 l 955 0 l 764 0 l 652 300 l 331 300 l 220 0 l 28 0 l 397 975 l 587 975 m 492 774 l 381 436 l 602 436 l 492 774 z "},"ă":{"ha":774,"x_min":56,"x_max":682,"o":"m 627 1029 q 558 878 614 930 q 404 826 501 826 q 251 878 307 826 q 182 1029 194 930 l 250 1029 q 313 958 274 978 q 404 939 351 939 q 496 958 457 939 q 559 1029 534 978 l 627 1029 m 127 671 q 184 690 152 681 q 253 706 216 699 q 328 717 289 713 q 407 721 367 721 q 512 712 463 721 q 594 683 562 703 q 645 628 627 663 q 663 540 663 593 l 663 264 q 664 180 663 217 q 667 108 665 143 q 669 84 668 95 q 672 64 671 74 q 676 43 674 54 q 682 20 679 33 q 598 1 640 10 q 514 -16 557 -7 q 502 23 507 3 q 494 69 498 43 l 484 69 q 437 28 460 45 q 387 2 413 12 q 334 -12 361 -8 q 275 -16 306 -16 q 189 -5 229 -16 q 119 29 149 6 q 73 88 90 52 q 56 172 56 123 q 65 244 56 212 q 89 301 73 276 q 126 345 104 326 q 174 378 148 364 q 292 417 227 407 q 425 428 357 428 l 484 428 l 484 516 q 476 556 484 541 q 455 578 468 570 q 424 588 441 585 q 386 590 406 590 q 275 576 331 590 q 168 542 219 562 l 127 671 m 484 328 l 470 328 q 378 321 422 328 q 301 299 334 315 q 248 258 268 283 q 228 194 228 233 q 253 128 228 151 q 322 105 277 105 q 366 111 343 105 q 410 127 388 117 q 450 153 431 138 q 484 189 469 169 l 484 328 z "},"Ą":{"ha":986,"x_min":28,"x_max":955,"o":"m 898 0 q 862 -39 878 -21 q 836 -73 846 -56 q 819 -105 825 -89 q 813 -138 813 -121 q 828 -184 813 -171 q 869 -197 842 -197 q 905 -193 885 -197 q 949 -180 926 -188 l 945 -245 q 892 -268 919 -260 q 828 -277 865 -277 q 782 -269 803 -277 q 745 -247 760 -262 q 721 -212 730 -233 q 712 -164 712 -191 q 719 -118 712 -139 q 740 -78 726 -98 q 771 -40 753 -59 q 812 0 789 -22 l 764 0 l 652 300 l 331 300 l 220 0 l 28 0 l 397 975 l 587 975 l 955 0 l 898 0 m 602 436 l 492 774 l 381 436 l 602 436 z "},"ą":{"ha":774,"x_min":56,"x_max":682,"o":"m 663 264 q 664 180 663 217 q 667 108 665 143 q 669 84 668 95 q 672 64 671 74 q 676 43 674 54 q 682 20 679 33 q 633 9 657 14 q 583 -2 608 3 q 522 -73 543 -43 q 500 -138 500 -104 q 514 -184 500 -171 q 555 -197 529 -197 q 592 -193 572 -197 q 635 -180 612 -188 l 631 -245 q 579 -268 606 -260 q 515 -277 552 -277 q 468 -269 490 -277 q 432 -247 447 -262 q 408 -212 416 -233 q 399 -164 399 -191 q 407 -116 399 -138 q 428 -75 414 -95 q 462 -36 442 -56 q 507 7 482 -16 q 494 69 498 35 l 484 69 q 437 28 460 45 q 387 2 413 12 q 334 -12 361 -8 q 275 -16 306 -16 q 189 -5 229 -16 q 119 29 149 6 q 73 88 90 52 q 56 172 56 123 q 65 244 56 212 q 89 301 73 276 q 126 345 104 326 q 174 378 148 364 q 292 417 227 407 q 425 428 357 428 l 484 428 l 484 516 q 476 556 484 541 q 455 578 468 570 q 424 588 441 585 q 386 590 406 590 q 275 576 331 590 q 168 542 219 562 l 127 671 q 184 690 152 681 q 253 706 216 699 q 328 717 289 713 q 407 721 367 721 q 512 712 463 721 q 594 683 562 703 q 645 628 627 663 q 663 540 663 593 l 663 264 m 484 328 l 470 328 q 378 321 422 328 q 301 299 334 315 q 248 258 268 283 q 228 194 228 233 q 253 128 228 151 q 322 105 277 105 q 366 111 343 105 q 410 127 388 117 q 450 153 431 138 q 484 189 469 169 l 484 328 z "},"Ć":{"ha":874,"x_min":78,"x_max":819,"o":"m 488 1362 q 542 1390 513 1380 q 597 1400 570 1400 q 633 1395 616 1400 q 663 1379 650 1390 q 684 1352 676 1368 q 691 1314 691 1336 q 684 1265 691 1289 q 661 1215 676 1242 q 623 1153 646 1187 q 569 1070 600 1118 l 463 1070 l 528 1248 l 488 1362 m 819 27 q 686 -4 758 7 q 539 -16 614 -16 q 325 13 412 -16 q 182 103 237 43 q 102 256 127 164 q 78 473 78 348 q 102 700 78 603 q 178 861 126 797 q 313 958 231 926 q 513 990 395 990 q 594 986 554 990 q 671 975 635 982 q 739 960 707 968 q 795 941 770 951 l 750 805 q 647 836 702 823 q 532 849 593 849 q 410 827 460 849 q 329 762 359 806 q 284 650 298 718 q 271 493 271 583 q 286 327 271 397 q 334 213 300 258 q 421 146 367 168 q 552 125 475 125 q 670 136 611 125 q 781 163 730 146 l 819 27 z "},"ć":{"ha":721,"x_min":54,"x_max":665,"o":"m 365 1093 q 418 1121 389 1111 q 474 1131 447 1131 q 510 1125 493 1131 q 540 1109 527 1120 q 560 1083 553 1099 q 568 1045 568 1067 q 560 996 568 1019 q 537 945 553 972 q 499 884 522 918 q 446 801 476 849 l 340 801 l 404 979 l 365 1093 m 665 26 q 604 8 637 16 q 537 -5 571 0 q 469 -14 503 -11 q 408 -16 436 -16 q 242 7 310 -16 q 133 75 174 30 q 73 186 91 120 q 54 339 54 253 q 78 500 54 429 q 148 621 101 572 q 264 695 195 669 q 428 721 334 721 q 536 712 482 721 q 638 690 589 704 l 593 555 q 514 577 552 569 q 436 585 475 585 q 347 568 384 585 q 286 520 310 551 q 251 446 262 489 q 240 353 240 404 q 281 177 240 235 q 417 119 322 119 q 525 132 475 119 q 623 161 574 144 l 665 26 z "},"Ċ":{"ha":874,"x_min":78,"x_max":819,"o":"m 511 1257 q 547 1249 530 1257 q 577 1229 564 1242 q 597 1199 590 1216 q 605 1163 605 1182 q 597 1126 605 1143 q 577 1096 590 1109 q 548 1076 565 1083 q 511 1068 530 1068 q 474 1076 492 1068 q 443 1096 456 1083 q 422 1126 430 1109 q 415 1163 415 1143 q 422 1199 415 1182 q 443 1229 430 1217 q 474 1249 456 1242 q 511 1257 492 1257 m 819 27 q 686 -4 758 7 q 539 -16 614 -16 q 325 13 412 -16 q 182 103 237 43 q 102 256 127 164 q 78 473 78 348 q 102 700 78 603 q 178 861 126 797 q 313 958 231 926 q 513 990 395 990 q 594 986 554 990 q 671 975 635 982 q 739 960 707 968 q 795 941 770 951 l 750 805 q 647 836 702 823 q 532 849 593 849 q 410 827 460 849 q 329 762 359 806 q 284 650 298 718 q 271 493 271 583 q 286 327 271 397 q 334 213 300 258 q 421 146 367 168 q 552 125 475 125 q 670 136 611 125 q 781 163 730 146 l 819 27 z "},"ċ":{"ha":721,"x_min":54,"x_max":665,"o":"m 388 987 q 424 980 407 987 q 454 960 441 972 q 474 930 467 947 q 481 894 481 913 q 474 857 481 874 q 454 827 467 840 q 424 806 441 814 q 388 799 407 799 q 351 806 368 799 q 320 827 333 814 q 299 857 307 840 q 292 894 292 874 q 299 930 292 913 q 320 960 307 947 q 351 980 333 972 q 388 987 368 987 m 665 26 q 604 8 637 16 q 537 -5 571 0 q 469 -14 503 -11 q 408 -16 436 -16 q 242 7 310 -16 q 133 75 174 30 q 73 186 91 120 q 54 339 54 253 q 78 500 54 429 q 148 621 101 572 q 264 695 195 669 q 428 721 334 721 q 536 712 482 721 q 638 690 589 704 l 593 555 q 514 577 552 569 q 436 585 475 585 q 347 568 384 585 q 286 520 310 551 q 251 446 262 489 q 240 353 240 404 q 281 177 240 235 q 417 119 322 119 q 525 132 475 119 q 623 161 574 144 l 665 26 z "},"Č":{"ha":874,"x_min":78,"x_max":819,"o":"m 685 1301 l 736 1242 l 511 1070 l 287 1242 l 338 1301 l 511 1226 l 685 1301 m 819 27 q 686 -4 758 7 q 539 -16 614 -16 q 325 13 412 -16 q 182 103 237 43 q 102 256 127 164 q 78 473 78 348 q 102 700 78 603 q 178 861 126 797 q 313 958 231 926 q 513 990 395 990 q 594 986 554 990 q 671 975 635 982 q 739 960 707 968 q 795 941 770 951 l 750 805 q 647 836 702 823 q 532 849 593 849 q 410 827 460 849 q 329 762 359 806 q 284 650 298 718 q 271 493 271 583 q 286 327 271 397 q 334 213 300 258 q 421 146 367 168 q 552 125 475 125 q 670 136 611 125 q 781 163 730 146 l 819 27 z "},"č":{"ha":721,"x_min":54,"x_max":665,"o":"m 562 1032 l 612 973 l 388 801 l 163 973 l 214 1032 l 388 957 l 562 1032 m 665 26 q 604 8 637 16 q 537 -5 571 0 q 469 -14 503 -11 q 408 -16 436 -16 q 242 7 310 -16 q 133 75 174 30 q 73 186 91 120 q 54 339 54 253 q 78 500 54 429 q 148 621 101 572 q 264 695 195 669 q 428 721 334 721 q 536 712 482 721 q 638 690 589 704 l 593 555 q 514 577 552 569 q 436 585 475 585 q 347 568 384 585 q 286 520 310 551 q 251 446 262 489 q 240 353 240 404 q 281 177 240 235 q 417 119 322 119 q 525 132 475 119 q 623 161 574 144 l 665 26 z "},"Ď":{"ha":966,"x_min":123,"x_max":895,"o":"m 635 1301 l 686 1242 l 461 1070 l 237 1242 l 288 1301 l 461 1226 l 635 1301 m 387 975 q 535 967 467 975 q 660 937 603 958 q 772 870 727 912 q 845 772 818 829 q 884 644 872 715 q 895 490 895 573 q 883 336 895 408 q 844 208 871 265 q 771 108 816 151 q 660 40 726 66 q 535 9 603 18 q 387 0 467 0 l 123 0 l 123 975 l 387 975 m 340 138 q 522 154 452 138 q 633 210 593 170 q 688 317 673 250 q 703 486 703 384 q 688 655 703 587 q 636 763 673 723 q 535 821 599 804 q 374 838 471 838 l 313 838 l 313 138 l 340 138 z "},"ď":{"ha":831,"x_min":60,"x_max":1065,"o":"m 842 1091 q 900 1121 869 1111 q 962 1132 932 1132 q 1001 1126 982 1132 q 1034 1108 1019 1120 q 1056 1079 1048 1097 q 1065 1038 1065 1061 q 1057 984 1065 1009 q 1031 928 1048 958 q 989 860 1015 898 q 930 769 964 822 l 814 769 l 885 965 l 842 1091 m 718 977 l 718 230 l 718 201 q 721 105 718 148 q 736 20 724 63 q 694 8 714 14 q 653 -1 673 3 q 613 -9 633 -5 q 570 -16 593 -13 q 561 11 565 -2 q 554 39 557 24 q 549 71 551 54 q 546 113 547 89 l 538 113 q 316 -16 460 -16 q 196 12 245 -16 q 117 86 147 39 q 74 196 87 134 q 60 327 60 258 q 86 498 60 425 q 160 621 113 572 q 274 696 208 671 q 420 721 340 721 q 476 718 449 721 q 532 711 504 715 l 532 977 l 718 977 m 534 572 q 433 585 479 585 q 358 574 393 585 q 299 539 324 564 q 260 476 274 515 q 246 382 246 437 q 251 276 246 324 q 269 193 255 228 q 310 139 283 158 q 380 119 336 119 q 436 132 412 119 q 480 168 460 145 q 508 205 495 184 q 534 250 521 226 l 534 572 z "},"Đ":{"ha":966,"x_min":123,"x_max":895,"o":"m 667 1224 l 667 1108 l 256 1108 l 256 1224 l 667 1224 m 387 975 q 535 967 467 975 q 660 937 603 958 q 772 870 727 912 q 845 772 818 829 q 884 644 872 715 q 895 490 895 573 q 883 336 895 408 q 844 208 871 265 q 771 108 816 151 q 660 40 726 66 q 535 9 603 18 q 387 0 467 0 l 123 0 l 123 975 l 387 975 m 340 138 q 522 154 452 138 q 633 210 593 170 q 688 317 673 250 q 703 486 703 384 q 688 655 703 587 q 636 763 673 723 q 535 821 599 804 q 374 838 471 838 l 313 838 l 313 138 l 340 138 z "},"đ":{"ha":831,"x_min":60,"x_max":831,"o":"m 718 230 l 718 201 q 721 105 718 148 q 736 20 724 63 q 694 8 714 14 q 653 -1 673 3 q 613 -9 633 -5 q 570 -16 593 -13 q 561 11 565 -2 q 554 39 557 24 q 549 71 551 54 q 546 113 547 89 l 538 113 q 316 -16 460 -16 q 196 12 245 -16 q 117 86 147 39 q 74 196 87 134 q 60 327 60 258 q 86 498 60 425 q 160 621 113 572 q 274 696 208 671 q 420 721 340 721 q 476 718 449 721 q 532 711 504 715 l 532 825 l 420 825 l 420 941 l 532 941 l 532 977 l 718 977 l 718 941 l 831 941 l 831 825 l 718 825 l 718 230 m 534 572 q 433 585 479 585 q 358 574 393 585 q 299 539 324 564 q 260 476 274 515 q 246 382 246 437 q 251 276 246 324 q 269 193 255 228 q 310 139 283 158 q 380 119 336 119 q 436 132 412 119 q 480 168 460 145 q 508 205 495 184 q 534 250 521 226 l 534 572 z "},"Ē":{"ha":808,"x_min":123,"x_max":721,"o":"m 625 1219 l 625 1103 l 214 1103 l 214 1219 l 625 1219 m 707 975 l 707 836 l 313 836 l 313 615 l 591 615 l 591 476 l 313 476 l 313 139 l 721 139 l 721 0 l 123 0 l 123 975 l 707 975 z "},"ē":{"ha":815,"x_min":62,"x_max":748,"o":"m 617 955 l 617 839 l 207 839 l 207 955 l 617 955 m 698 32 q 637 12 670 20 q 568 -3 604 3 q 495 -13 532 -9 q 423 -16 458 -16 q 154 70 245 -16 q 62 332 62 155 q 81 481 62 411 q 140 605 99 552 q 248 690 181 659 q 412 721 315 721 q 665 631 581 721 q 748 357 748 541 l 748 303 l 247 303 q 258 222 248 257 q 289 162 267 186 q 347 126 311 138 q 437 113 383 113 q 540 125 485 113 q 654 159 595 137 l 698 32 m 562 424 q 412 591 557 591 q 297 548 336 591 q 250 424 258 505 l 562 424 z "},"Ė":{"ha":808,"x_min":123,"x_max":721,"o":"m 419 1252 q 455 1244 438 1252 q 485 1224 472 1237 q 505 1194 498 1211 q 513 1158 513 1177 q 505 1121 513 1139 q 485 1091 498 1104 q 455 1071 473 1078 q 419 1063 438 1063 q 382 1071 399 1063 q 351 1091 364 1078 q 330 1121 338 1104 q 323 1158 323 1139 q 330 1195 323 1177 q 351 1224 338 1212 q 382 1244 364 1237 q 419 1252 399 1252 m 707 975 l 707 836 l 313 836 l 313 615 l 591 615 l 591 476 l 313 476 l 313 139 l 721 139 l 721 0 l 123 0 l 123 975 l 707 975 z "},"ė":{"ha":815,"x_min":62,"x_max":748,"o":"m 412 987 q 448 980 431 987 q 477 960 465 972 q 498 930 490 947 q 505 894 505 913 q 498 857 505 874 q 478 827 490 840 q 448 806 465 814 q 412 799 431 799 q 374 806 392 799 q 343 827 357 814 q 323 857 330 840 q 315 894 315 874 q 323 930 315 913 q 343 960 330 947 q 374 980 357 972 q 412 987 392 987 m 698 32 q 637 12 670 20 q 568 -3 604 3 q 495 -13 532 -9 q 423 -16 458 -16 q 154 70 245 -16 q 62 332 62 155 q 81 481 62 411 q 140 605 99 552 q 248 690 181 659 q 412 721 315 721 q 665 631 581 721 q 748 357 748 541 l 748 303 l 247 303 q 258 222 248 257 q 289 162 267 186 q 347 126 311 138 q 437 113 383 113 q 540 125 485 113 q 654 159 595 137 l 698 32 m 562 424 q 412 591 557 591 q 297 548 336 591 q 250 424 258 505 l 562 424 z "},"Ę":{"ha":808,"x_min":123,"x_max":721,"o":"m 595 0 q 559 -39 575 -21 q 533 -73 544 -56 q 516 -105 522 -89 q 511 -138 511 -121 q 525 -184 511 -171 q 566 -197 540 -197 q 603 -193 583 -197 q 646 -180 623 -188 l 642 -245 q 590 -268 616 -260 q 526 -277 563 -277 q 479 -269 500 -277 q 443 -247 458 -262 q 418 -212 427 -233 q 410 -164 410 -191 q 417 -118 410 -139 q 437 -78 424 -98 q 469 -40 450 -59 q 510 0 487 -22 l 123 0 l 123 975 l 707 975 l 707 836 l 313 836 l 313 615 l 591 615 l 591 476 l 313 476 l 313 139 l 721 139 l 721 0 l 595 0 z "},"ę":{"ha":815,"x_min":62,"x_max":748,"o":"m 748 303 l 247 303 q 258 222 248 257 q 289 162 267 186 q 347 126 311 138 q 437 113 383 113 q 540 125 485 113 q 654 159 595 137 l 698 32 q 591 1 651 13 q 555 -38 570 -20 q 528 -72 539 -56 q 511 -105 517 -89 q 505 -138 505 -121 q 520 -184 505 -171 q 561 -197 534 -197 q 597 -193 577 -197 q 641 -180 618 -188 l 637 -245 q 584 -268 611 -260 q 520 -277 557 -277 q 474 -269 495 -277 q 437 -247 452 -262 q 413 -212 422 -233 q 404 -164 404 -191 q 410 -122 404 -141 q 428 -84 416 -102 q 455 -49 439 -66 q 490 -14 471 -32 q 456 -16 473 -15 q 423 -16 439 -16 q 154 70 245 -16 q 62 332 62 155 q 81 481 62 411 q 140 605 99 552 q 248 690 181 659 q 412 721 315 721 q 665 631 581 721 q 748 357 748 541 l 748 303 m 562 424 q 412 591 557 591 q 297 548 336 591 q 250 424 258 505 l 562 424 z "},"Ě":{"ha":808,"x_min":123,"x_max":721,"o":"m 593 1297 l 644 1238 l 419 1065 l 195 1238 l 245 1297 l 419 1221 l 593 1297 m 707 975 l 707 836 l 313 836 l 313 615 l 591 615 l 591 476 l 313 476 l 313 139 l 721 139 l 721 0 l 123 0 l 123 975 l 707 975 z "},"ě":{"ha":815,"x_min":62,"x_max":748,"o":"m 585 1032 l 636 973 l 412 801 l 187 973 l 238 1032 l 412 957 l 585 1032 m 698 32 q 637 12 670 20 q 568 -3 604 3 q 495 -13 532 -9 q 423 -16 458 -16 q 154 70 245 -16 q 62 332 62 155 q 81 481 62 411 q 140 605 99 552 q 248 690 181 659 q 412 721 315 721 q 665 631 581 721 q 748 357 748 541 l 748 303 l 247 303 q 258 222 248 257 q 289 162 267 186 q 347 126 311 138 q 437 113 383 113 q 540 125 485 113 q 654 159 595 137 l 698 32 m 562 424 q 412 591 557 591 q 297 548 336 591 q 250 424 258 505 l 562 424 z "},"Ğ":{"ha":980,"x_min":78,"x_max":884,"o":"m 741 1291 q 672 1141 728 1193 q 518 1088 615 1088 q 365 1141 421 1088 q 296 1291 308 1193 l 363 1291 q 427 1221 388 1240 q 518 1201 465 1201 q 610 1221 571 1201 q 673 1291 648 1240 l 741 1291 m 884 47 q 816 21 854 33 q 734 1 778 9 q 644 -12 691 -7 q 551 -16 597 -16 q 343 8 432 -16 q 195 90 254 33 q 107 240 136 146 q 78 474 78 334 q 109 719 78 620 q 196 879 139 818 q 334 966 253 939 q 515 992 415 992 q 602 988 558 992 q 688 975 646 983 q 771 952 731 966 q 845 922 810 939 l 793 790 q 657 837 724 823 q 531 851 591 851 q 414 830 463 851 q 333 765 365 808 q 286 653 301 721 q 271 494 271 586 q 286 328 271 397 q 335 213 302 258 q 421 146 369 168 q 546 125 473 125 q 621 130 583 125 q 699 145 659 136 l 699 380 l 543 380 l 543 518 l 884 518 l 884 47 z "},"ğ":{"ha":836,"x_min":66,"x_max":808,"o":"m 595 1022 q 526 871 583 924 q 372 819 469 819 q 219 871 275 819 q 150 1022 162 924 l 218 1022 q 281 951 242 971 q 372 932 319 932 q 464 951 425 932 q 527 1022 503 971 l 595 1022 m 568 706 q 623 707 600 706 q 667 710 646 707 q 711 718 688 713 q 767 732 734 724 q 788 668 777 701 q 808 601 799 634 q 767 587 786 593 q 731 578 749 582 q 697 573 714 574 q 662 570 681 571 q 680 513 675 541 q 684 454 684 485 q 665 340 684 389 q 608 258 645 292 q 557 224 586 237 q 498 202 529 210 q 434 190 467 193 q 372 186 402 186 q 272 195 317 186 q 260 143 260 162 q 266 121 260 130 q 282 105 271 112 q 325 93 300 96 q 379 90 349 90 q 402 90 388 90 q 431 91 416 90 q 459 91 446 91 q 484 91 473 91 q 582 81 538 91 q 657 50 626 71 q 706 -8 689 28 q 724 -96 724 -44 q 695 -195 724 -155 q 618 -260 666 -235 q 510 -297 571 -286 q 384 -308 449 -308 q 291 -303 337 -308 q 201 -290 244 -298 q 137 -274 167 -283 q 81 -256 106 -266 q 107 -203 90 -235 q 145 -133 124 -170 q 277 -169 214 -157 q 391 -180 339 -180 q 450 -176 422 -180 q 498 -163 478 -172 q 531 -137 519 -153 q 543 -97 543 -121 q 534 -67 543 -78 q 512 -50 526 -56 q 478 -42 498 -43 q 437 -40 459 -40 q 417 -40 427 -40 q 397 -41 407 -41 l 375 -41 q 313 -40 344 -41 q 254 -34 282 -39 q 201 -20 225 -29 q 158 5 176 -11 q 130 45 140 21 q 119 103 119 69 q 132 171 119 136 q 165 239 145 205 q 129 271 146 251 q 97 317 111 290 q 74 378 83 344 q 66 454 66 412 q 86 567 66 517 q 142 650 106 616 q 191 684 164 671 q 248 706 218 698 q 310 718 278 714 q 372 721 342 721 q 445 716 411 721 q 505 706 479 712 l 568 706 m 375 595 q 281 559 315 595 q 246 454 246 524 q 281 347 246 382 q 375 312 316 312 q 469 348 435 312 q 504 454 504 384 q 468 560 504 524 q 375 595 433 595 z "},"Ġ":{"ha":980,"x_min":78,"x_max":884,"o":"m 518 1257 q 554 1249 537 1257 q 584 1229 571 1242 q 604 1199 597 1216 q 612 1163 612 1182 q 604 1126 612 1143 q 584 1096 597 1109 q 554 1076 572 1083 q 518 1068 537 1068 q 481 1076 498 1068 q 450 1096 463 1083 q 429 1126 437 1109 q 422 1163 422 1143 q 429 1199 422 1182 q 450 1229 437 1217 q 481 1249 463 1242 q 518 1257 498 1257 m 884 47 q 816 21 854 33 q 734 1 778 9 q 644 -12 691 -7 q 551 -16 597 -16 q 343 8 432 -16 q 195 90 254 33 q 107 240 136 146 q 78 474 78 334 q 109 719 78 620 q 196 879 139 818 q 334 966 253 939 q 515 992 415 992 q 602 988 558 992 q 688 975 646 983 q 771 952 731 966 q 845 922 810 939 l 793 790 q 657 837 724 823 q 531 851 591 851 q 414 830 463 851 q 333 765 365 808 q 286 653 301 721 q 271 494 271 586 q 286 328 271 397 q 335 213 302 258 q 421 146 369 168 q 546 125 473 125 q 621 130 583 125 q 699 145 659 136 l 699 380 l 543 380 l 543 518 l 884 518 l 884 47 z "},"ġ":{"ha":836,"x_min":66,"x_max":808,"o":"m 372 987 q 408 980 391 987 q 438 960 425 972 q 458 930 451 947 q 466 894 466 913 q 458 857 466 874 q 438 827 451 840 q 409 806 426 814 q 372 799 391 799 q 335 806 353 799 q 304 827 317 814 q 283 857 291 840 q 276 894 276 874 q 283 930 276 913 q 304 960 291 947 q 335 980 317 972 q 372 987 353 987 m 568 706 q 623 707 600 706 q 667 710 646 707 q 711 718 688 713 q 767 732 734 724 q 788 668 777 701 q 808 601 799 634 q 767 587 786 593 q 731 578 749 582 q 697 573 714 574 q 662 570 681 571 q 680 513 675 541 q 684 454 684 485 q 665 340 684 389 q 608 258 645 292 q 557 224 586 237 q 498 202 529 210 q 434 190 467 193 q 372 186 402 186 q 272 195 317 186 q 260 143 260 162 q 266 121 260 130 q 282 105 271 112 q 325 93 300 96 q 379 90 349 90 q 402 90 388 90 q 431 91 416 90 q 459 91 446 91 q 484 91 473 91 q 582 81 538 91 q 657 50 626 71 q 706 -8 689 28 q 724 -96 724 -44 q 695 -195 724 -155 q 618 -260 666 -235 q 510 -297 571 -286 q 384 -308 449 -308 q 291 -303 337 -308 q 201 -290 244 -298 q 137 -274 167 -283 q 81 -256 106 -266 q 107 -203 90 -235 q 145 -133 124 -170 q 277 -169 214 -157 q 391 -180 339 -180 q 450 -176 422 -180 q 498 -163 478 -172 q 531 -137 519 -153 q 543 -97 543 -121 q 534 -67 543 -78 q 512 -50 526 -56 q 478 -42 498 -43 q 437 -40 459 -40 q 417 -40 427 -40 q 397 -41 407 -41 l 375 -41 q 313 -40 344 -41 q 254 -34 282 -39 q 201 -20 225 -29 q 158 5 176 -11 q 130 45 140 21 q 119 103 119 69 q 132 171 119 136 q 165 239 145 205 q 129 271 146 251 q 97 317 111 290 q 74 378 83 344 q 66 454 66 412 q 86 567 66 517 q 142 650 106 616 q 191 684 164 671 q 248 706 218 698 q 310 718 278 714 q 372 721 342 721 q 445 716 411 721 q 505 706 479 712 l 568 706 m 375 595 q 281 559 315 595 q 246 454 246 524 q 281 347 246 382 q 375 312 316 312 q 469 348 435 312 q 504 454 504 384 q 468 560 504 524 q 375 595 433 595 z "},"Ģ":{"ha":980,"x_min":78,"x_max":884,"o":"m 884 47 q 816 21 854 33 q 734 1 778 9 q 644 -12 691 -7 q 551 -16 597 -16 q 343 8 432 -16 q 195 90 254 33 q 107 240 136 146 q 78 474 78 334 q 109 719 78 620 q 196 879 139 818 q 334 966 253 939 q 515 992 415 992 q 602 988 558 992 q 688 975 646 983 q 771 952 731 966 q 845 922 810 939 l 793 790 q 657 837 724 823 q 531 851 591 851 q 414 830 463 851 q 333 765 365 808 q 286 653 301 721 q 271 494 271 586 q 286 328 271 397 q 335 213 302 258 q 421 146 369 168 q 546 125 473 125 q 621 130 583 125 q 699 145 659 136 l 699 380 l 543 380 l 543 518 l 884 518 l 884 47 m 459 -123 q 512 -96 484 -106 q 568 -86 541 -86 q 604 -91 587 -86 q 634 -107 621 -96 q 654 -134 647 -118 q 662 -172 662 -150 q 654 -221 662 -197 q 632 -271 647 -244 q 593 -333 616 -298 q 540 -416 570 -368 l 434 -416 l 498 -238 l 459 -123 z "},"ģ":{"ha":836,"x_min":66,"x_max":808,"o":"m 501 1155 l 437 977 l 476 863 q 423 835 452 845 q 367 825 394 825 q 331 830 348 825 q 301 846 314 836 q 281 873 288 857 q 273 911 273 889 q 281 960 273 937 q 303 1010 288 983 q 342 1072 319 1038 q 395 1155 365 1107 l 501 1155 m 568 706 q 623 707 600 706 q 667 710 646 707 q 711 718 688 713 q 767 732 734 724 q 788 668 777 701 q 808 601 799 634 q 767 587 786 593 q 731 578 749 582 q 697 573 714 574 q 662 570 681 571 q 680 513 675 541 q 684 454 684 485 q 665 340 684 389 q 608 258 645 292 q 557 224 586 237 q 498 202 529 210 q 434 190 467 193 q 372 186 402 186 q 272 195 317 186 q 260 143 260 162 q 266 121 260 130 q 282 105 271 112 q 325 93 300 96 q 379 90 349 90 q 402 90 388 90 q 431 91 416 90 q 459 91 446 91 q 484 91 473 91 q 582 81 538 91 q 657 50 626 71 q 706 -8 689 28 q 724 -96 724 -44 q 695 -195 724 -155 q 618 -260 666 -235 q 510 -297 571 -286 q 384 -308 449 -308 q 291 -303 337 -308 q 201 -290 244 -298 q 137 -274 167 -283 q 81 -256 106 -266 q 107 -203 90 -235 q 145 -133 124 -170 q 277 -169 214 -157 q 391 -180 339 -180 q 450 -176 422 -180 q 498 -163 478 -172 q 531 -137 519 -153 q 543 -97 543 -121 q 534 -67 543 -78 q 512 -50 526 -56 q 478 -42 498 -43 q 437 -40 459 -40 q 417 -40 427 -40 q 397 -41 407 -41 l 375 -41 q 313 -40 344 -41 q 254 -34 282 -39 q 201 -20 225 -29 q 158 5 176 -11 q 130 45 140 21 q 119 103 119 69 q 132 171 119 136 q 165 239 145 205 q 129 271 146 251 q 97 317 111 290 q 74 378 83 344 q 66 454 66 412 q 86 567 66 517 q 142 650 106 616 q 191 684 164 671 q 248 706 218 698 q 310 718 278 714 q 372 721 342 721 q 445 716 411 721 q 505 706 479 712 l 568 706 m 375 595 q 281 559 315 595 q 246 454 246 524 q 281 347 246 382 q 375 312 316 312 q 469 348 435 312 q 504 454 504 384 q 468 560 504 524 q 375 595 433 595 z "},"Ħ":{"ha":1184,"x_min":68,"x_max":1116,"o":"m 1001 975 l 1001 833 l 1116 833 l 1116 724 l 1001 724 l 1001 0 l 812 0 l 812 475 l 380 475 l 380 0 l 191 0 l 191 724 l 68 724 l 68 833 l 191 833 l 191 975 l 380 975 l 380 833 l 812 833 l 812 975 l 1001 975 m 812 724 l 380 724 l 380 614 l 812 614 l 812 724 z "},"ħ":{"ha":854,"x_min":1,"x_max":764,"o":"m 303 977 l 303 860 l 426 860 l 426 745 l 303 745 l 303 585 l 308 585 q 351 641 329 616 q 401 684 374 666 q 462 711 429 702 q 537 721 495 721 q 667 689 618 721 q 740 591 716 656 q 759 511 753 555 q 764 412 764 467 l 764 0 l 578 0 l 578 466 q 553 553 578 521 q 479 585 527 585 q 426 572 452 585 q 377 538 400 558 q 335 493 354 517 q 303 446 316 469 l 303 0 l 117 0 l 117 745 l 1 745 l 1 860 l 117 860 l 117 977 l 303 977 z "},"Ī":{"ha":466,"x_min":28,"x_max":439,"o":"m 439 1224 l 439 1108 l 28 1108 l 28 1224 l 439 1224 m 328 975 l 328 0 l 138 0 l 138 975 l 328 975 z "},"ī":{"ha":432,"x_min":12,"x_max":422,"o":"m 422 955 l 422 839 l 12 839 l 12 955 l 422 955 m 309 705 l 309 0 l 123 0 l 123 705 l 309 705 z "},"Į":{"ha":466,"x_min":104,"x_max":341,"o":"m 290 0 q 254 -39 270 -21 q 228 -73 239 -56 q 211 -105 217 -89 q 205 -138 205 -121 q 220 -184 205 -171 q 261 -197 235 -197 q 298 -193 277 -197 q 341 -180 318 -188 l 337 -245 q 284 -268 311 -260 q 220 -277 258 -277 q 174 -269 195 -277 q 137 -247 153 -262 q 113 -212 122 -233 q 104 -164 104 -191 q 112 -118 104 -139 q 132 -78 119 -98 q 163 -40 145 -59 q 205 0 182 -22 l 138 0 l 138 975 l 328 975 l 328 0 l 290 0 z "},"į":{"ha":432,"x_min":75,"x_max":311,"o":"m 216 799 q 179 806 197 799 q 148 827 161 814 q 127 857 135 840 q 120 894 120 874 q 127 930 120 913 q 148 960 135 947 q 179 980 161 972 q 216 987 197 987 q 252 980 235 987 q 282 960 269 972 q 302 930 295 947 q 310 894 310 913 q 302 857 310 874 q 282 827 295 840 q 253 806 270 814 q 216 799 235 799 m 260 0 q 224 -39 240 -21 q 198 -73 209 -56 q 181 -105 187 -89 q 176 -138 176 -121 q 190 -184 176 -171 q 231 -197 205 -197 q 268 -193 248 -197 q 311 -180 288 -188 l 307 -245 q 255 -268 281 -260 q 191 -277 228 -277 q 144 -269 165 -277 q 107 -247 123 -262 q 83 -212 92 -233 q 75 -164 75 -191 q 82 -118 75 -139 q 102 -78 89 -98 q 134 -40 115 -59 q 175 0 152 -22 l 123 0 l 123 705 l 309 705 l 309 0 l 260 0 z "},"İ":{"ha":466,"x_min":137,"x_max":328,"o":"m 233 1257 q 269 1249 252 1257 q 299 1229 286 1242 q 319 1199 312 1216 q 327 1163 327 1182 q 319 1126 327 1143 q 299 1096 312 1109 q 270 1076 287 1083 q 233 1068 252 1068 q 196 1076 214 1068 q 165 1096 178 1083 q 144 1126 152 1109 q 137 1163 137 1143 q 144 1199 137 1182 q 165 1229 152 1217 q 196 1249 178 1242 q 233 1257 214 1257 m 328 975 l 328 0 l 138 0 l 138 975 l 328 975 z "},"ı":{"ha":432,"x_min":123,"x_max":309,"o":"m 309 705 l 309 0 l 123 0 l 123 705 l 309 705 z "},"Ĳ":{"ha":831,"x_min":109,"x_max":722,"o":"m 109 975 l 298 975 l 298 0 l 109 0 l 109 975 m 722 222 q 711 81 722 140 q 679 -24 701 22 q 623 -109 656 -71 q 543 -187 589 -147 q 477 -136 511 -163 q 413 -81 442 -109 q 469 -17 446 -45 q 506 43 492 12 q 527 115 520 75 q 533 213 533 155 l 533 975 l 722 975 l 722 222 z "},"ĳ":{"ha":759,"x_min":75,"x_max":684,"o":"m 188 1049 q 232 1040 211 1049 q 268 1016 252 1031 q 292 980 283 1001 q 300 937 300 960 q 292 892 300 913 q 268 857 283 872 q 232 832 252 841 q 188 823 211 823 q 144 832 164 823 q 108 857 123 841 q 83 892 92 872 q 75 937 75 913 q 83 980 75 960 q 108 1016 92 1001 q 144 1040 123 1031 q 188 1049 164 1049 m 572 1049 q 615 1040 595 1049 q 651 1016 636 1031 q 675 980 667 1001 q 684 937 684 960 q 675 892 684 913 q 651 857 667 872 q 615 832 636 841 q 572 823 595 823 q 528 832 548 823 q 492 857 507 841 q 467 892 476 872 q 458 937 458 913 q 467 980 458 960 q 492 1016 476 1001 q 528 1040 507 1031 q 572 1049 548 1049 m 94 705 l 280 705 l 280 0 l 94 0 l 94 705 m 665 98 q 654 -41 665 17 q 622 -144 644 -98 q 567 -227 600 -189 q 489 -303 534 -264 q 424 -253 457 -279 q 361 -199 390 -227 q 416 -137 393 -164 q 452 -78 438 -109 q 472 -7 466 -47 q 479 89 479 32 l 479 705 l 665 705 l 665 98 z "},"Ķ":{"ha":888,"x_min":125,"x_max":861,"o":"m 671 990 l 793 888 l 464 498 l 861 0 l 623 0 l 314 417 l 314 0 l 125 0 l 125 975 l 314 975 l 314 567 l 671 990 m 355 -123 q 409 -96 380 -106 q 465 -86 437 -86 q 500 -91 484 -86 q 530 -107 517 -96 q 551 -134 543 -118 q 558 -172 558 -150 q 551 -221 558 -197 q 528 -271 543 -244 q 490 -333 513 -298 q 436 -416 467 -368 l 330 -416 l 395 -238 l 355 -123 z "},"ķ":{"ha":772,"x_min":113,"x_max":758,"o":"m 299 977 l 299 460 l 582 721 l 685 609 l 434 378 l 758 0 l 532 0 l 299 281 l 299 0 l 113 0 l 113 977 l 299 977 m 320 -123 q 373 -96 345 -106 q 429 -86 402 -86 q 465 -91 448 -86 q 495 -107 482 -96 q 515 -134 508 -118 q 523 -172 523 -150 q 515 -221 523 -197 q 493 -271 508 -244 q 454 -333 477 -298 q 401 -416 431 -368 l 295 -416 l 359 -238 l 320 -123 z "},"Ĺ":{"ha":768,"x_min":133,"x_max":703,"o":"m 203 1362 q 257 1390 228 1380 q 313 1400 286 1400 q 349 1395 332 1400 q 378 1379 366 1390 q 399 1352 391 1368 q 406 1314 406 1336 q 399 1265 406 1289 q 376 1215 391 1242 q 338 1153 361 1187 q 284 1070 315 1118 l 178 1070 l 243 1248 l 203 1362 m 322 975 l 322 139 l 703 139 l 703 0 l 133 0 l 133 975 l 322 975 z "},"ĺ":{"ha":348,"x_min":75,"x_max":354,"o":"m 151 1364 q 204 1392 176 1382 q 260 1402 233 1402 q 296 1397 279 1402 q 326 1381 313 1392 q 347 1354 339 1370 q 354 1316 354 1338 q 347 1267 354 1291 q 324 1217 339 1244 q 286 1155 309 1190 q 232 1072 262 1120 l 126 1072 l 191 1250 l 151 1364 m 260 277 q 261 182 260 220 q 265 116 262 144 q 268 90 267 101 q 271 68 269 79 q 274 47 272 58 q 280 24 277 37 q 191 0 235 10 q 99 -16 146 -9 q 82 48 89 14 q 75 123 75 83 l 75 977 l 260 977 l 260 277 z "},"Ļ":{"ha":768,"x_min":133,"x_max":703,"o":"m 322 975 l 322 139 l 703 139 l 703 0 l 133 0 l 133 975 l 322 975 m 326 -123 q 379 -96 351 -106 q 435 -86 408 -86 q 471 -91 454 -86 q 501 -107 488 -96 q 522 -134 514 -118 q 529 -172 529 -150 q 522 -221 529 -197 q 499 -271 514 -244 q 460 -333 484 -298 q 407 -416 437 -368 l 301 -416 l 366 -238 l 326 -123 z "},"ļ":{"ha":348,"x_min":40,"x_max":280,"o":"m 260 277 q 261 182 260 220 q 265 116 262 144 q 268 90 267 101 q 271 68 269 79 q 274 47 272 58 q 280 24 277 37 q 191 0 235 10 q 99 -16 146 -9 q 82 48 89 14 q 75 123 75 83 l 75 977 l 260 977 l 260 277 m 65 -123 q 118 -96 90 -106 q 174 -86 147 -86 q 210 -91 193 -86 q 240 -107 227 -96 q 260 -134 253 -118 q 268 -172 268 -150 q 260 -221 268 -197 q 238 -271 253 -244 q 199 -333 222 -298 q 146 -416 176 -368 l 40 -416 l 104 -238 l 65 -123 z "},"Ľ":{"ha":768,"x_min":133,"x_max":738,"o":"m 515 1100 q 573 1130 542 1120 q 635 1141 605 1141 q 674 1135 655 1141 q 707 1117 692 1129 q 729 1088 721 1105 q 738 1046 738 1070 q 730 992 738 1018 q 705 937 722 967 q 663 869 688 907 q 604 778 637 831 l 487 778 l 558 974 l 515 1100 m 322 975 l 322 139 l 703 139 l 703 0 l 133 0 l 133 975 l 322 975 z "},"ľ":{"ha":348,"x_min":75,"x_max":608,"o":"m 385 1056 q 443 1086 412 1076 q 505 1097 475 1097 q 544 1091 525 1097 q 576 1073 562 1085 q 599 1044 591 1061 q 608 1002 608 1026 q 600 948 608 974 q 574 893 591 923 q 532 825 557 863 q 473 734 507 787 l 357 734 l 428 930 l 385 1056 m 260 277 q 261 182 260 220 q 265 116 262 144 q 268 90 267 101 q 271 68 269 79 q 274 47 272 58 q 280 24 277 37 q 191 0 235 10 q 99 -16 146 -9 q 82 48 89 14 q 75 123 75 83 l 75 977 l 260 977 l 260 277 z "},"Ŀ":{"ha":702,"x_min":88,"x_max":658,"o":"m 658 0 l 88 0 l 88 975 l 277 975 l 277 139 l 658 139 l 658 0 m 515 631 q 551 623 534 631 q 581 603 568 616 q 601 573 593 590 q 608 537 608 556 q 601 500 608 517 q 581 470 593 483 q 551 450 568 457 q 515 442 534 442 q 477 450 495 442 q 447 470 460 457 q 426 500 433 483 q 418 537 418 517 q 426 573 418 556 q 447 603 433 591 q 477 623 460 616 q 515 631 495 631 z "},"ŀ":{"ha":334,"x_min":75,"x_max":546,"o":"m 260 277 q 261 182 260 220 q 265 116 262 144 q 268 90 267 101 q 271 68 269 79 q 274 47 272 58 q 280 24 277 37 q 191 0 235 10 q 99 -16 146 -9 q 82 48 89 14 q 75 123 75 83 l 75 977 l 260 977 l 260 277 m 452 589 q 488 581 471 589 q 518 561 505 574 q 538 531 531 548 q 546 495 546 514 q 538 458 546 475 q 518 428 531 441 q 489 408 506 415 q 452 400 471 400 q 415 408 433 400 q 384 428 397 415 q 363 458 371 441 q 356 495 356 475 q 363 531 356 514 q 384 561 371 549 q 415 581 397 574 q 452 589 433 589 z "},"Ł":{"ha":776,"x_min":7,"x_max":709,"o":"m 329 975 l 329 642 l 551 766 l 551 626 l 329 501 l 329 139 l 709 139 l 709 0 l 140 0 l 140 395 l 7 320 l 7 460 l 140 535 l 140 975 l 329 975 z "},"ł":{"ha":465,"x_min":20,"x_max":444,"o":"m 326 977 l 326 632 l 444 699 l 444 558 l 326 492 l 326 0 l 139 0 l 139 387 l 20 320 l 20 460 l 139 527 l 139 977 l 326 977 z "},"Ń":{"ha":1067,"x_min":121,"x_max":947,"o":"m 511 1362 q 564 1390 535 1380 q 620 1400 593 1400 q 656 1395 639 1400 q 686 1379 673 1390 q 706 1352 699 1368 q 713 1314 713 1336 q 706 1265 713 1289 q 683 1215 699 1242 q 645 1153 668 1187 q 591 1070 622 1118 l 486 1070 l 550 1248 l 511 1362 m 947 975 l 947 0 l 737 0 l 311 729 l 311 0 l 121 0 l 121 975 l 331 975 l 758 246 l 758 975 l 947 975 z "},"ń":{"ha":846,"x_min":94,"x_max":762,"o":"m 400 1093 q 453 1121 425 1111 q 509 1131 482 1131 q 545 1125 528 1131 q 575 1109 562 1120 q 595 1083 588 1099 q 603 1045 603 1067 q 595 996 603 1019 q 573 945 588 972 q 534 884 557 918 q 481 801 511 849 l 375 801 l 439 979 l 400 1093 m 304 585 q 350 644 326 618 q 402 687 374 669 q 462 712 429 704 q 535 721 495 721 q 614 711 580 721 q 674 683 649 701 q 716 636 699 664 q 744 574 734 609 q 758 499 753 540 q 762 412 762 459 l 762 0 l 576 0 l 576 466 q 550 555 576 524 q 477 585 523 585 q 426 573 451 585 q 378 541 401 561 q 336 496 355 521 q 300 445 316 471 l 300 0 l 115 0 l 115 435 q 114 527 115 490 q 110 592 113 564 q 107 617 109 606 q 104 638 106 628 q 100 659 102 648 q 94 683 98 669 q 182 704 138 694 q 271 721 226 713 q 279 693 275 707 q 286 663 283 679 q 291 628 289 647 q 295 585 293 609 l 304 585 z "},"Ņ":{"ha":1067,"x_min":121,"x_max":947,"o":"m 947 975 l 947 0 l 737 0 l 311 729 l 311 0 l 121 0 l 121 975 l 331 975 l 758 246 l 758 975 l 947 975 m 445 -123 q 498 -96 469 -106 q 554 -86 527 -86 q 590 -91 573 -86 q 620 -107 607 -96 q 640 -134 633 -118 q 648 -172 648 -150 q 640 -221 648 -197 q 617 -271 633 -244 q 579 -333 602 -298 q 526 -416 556 -368 l 420 -416 l 484 -238 l 445 -123 z "},"ņ":{"ha":846,"x_min":94,"x_max":762,"o":"m 304 585 q 350 644 326 618 q 402 687 374 669 q 462 712 429 704 q 535 721 495 721 q 614 711 580 721 q 674 683 649 701 q 716 636 699 664 q 744 574 734 609 q 758 499 753 540 q 762 412 762 459 l 762 0 l 576 0 l 576 466 q 550 555 576 524 q 477 585 523 585 q 426 573 451 585 q 378 541 401 561 q 336 496 355 521 q 300 445 316 471 l 300 0 l 115 0 l 115 435 q 114 527 115 490 q 110 592 113 564 q 107 617 109 606 q 104 638 106 628 q 100 659 102 648 q 94 683 98 669 q 182 704 138 694 q 271 721 226 713 q 279 693 275 707 q 286 663 283 679 q 291 628 289 647 q 295 585 293 609 l 304 585 m 348 -123 q 401 -96 372 -106 q 457 -86 430 -86 q 493 -91 476 -86 q 523 -107 510 -96 q 543 -134 536 -118 q 551 -172 551 -150 q 543 -221 551 -197 q 520 -271 536 -244 q 482 -333 505 -298 q 429 -416 459 -368 l 323 -416 l 387 -238 l 348 -123 z "},"Ň":{"ha":1067,"x_min":121,"x_max":947,"o":"m 707 1301 l 758 1242 l 534 1070 l 309 1242 l 360 1301 l 534 1226 l 707 1301 m 947 975 l 947 0 l 737 0 l 311 729 l 311 0 l 121 0 l 121 975 l 331 975 l 758 246 l 758 975 l 947 975 z "},"ň":{"ha":846,"x_min":94,"x_max":762,"o":"m 597 1032 l 648 973 l 423 801 l 199 973 l 250 1032 l 423 957 l 597 1032 m 304 585 q 350 644 326 618 q 402 687 374 669 q 462 712 429 704 q 535 721 495 721 q 614 711 580 721 q 674 683 649 701 q 716 636 699 664 q 744 574 734 609 q 758 499 753 540 q 762 412 762 459 l 762 0 l 576 0 l 576 466 q 550 555 576 524 q 477 585 523 585 q 426 573 451 585 q 378 541 401 561 q 336 496 355 521 q 300 445 316 471 l 300 0 l 115 0 l 115 435 q 114 527 115 490 q 110 592 113 564 q 107 617 109 606 q 104 638 106 628 q 100 659 102 648 q 94 683 98 669 q 182 704 138 694 q 271 721 226 713 q 279 693 275 707 q 286 663 283 679 q 291 628 289 647 q 295 585 293 609 l 304 585 z "},"Ŋ":{"ha":1069,"x_min":121,"x_max":947,"o":"m 947 975 l 947 119 q 940 -35 947 31 q 910 -153 932 -102 q 880 -207 898 -180 q 834 -259 861 -233 q 769 -309 806 -284 q 683 -357 732 -333 l 607 -253 q 671 -194 643 -221 q 719 -134 699 -168 q 744 -71 734 -106 q 756 14 753 -36 l 311 729 l 311 0 l 121 0 l 121 975 l 331 975 l 758 290 l 758 975 l 947 975 z "},"ŋ":{"ha":884,"x_min":94,"x_max":762,"o":"m 304 585 q 350 644 326 618 q 402 687 374 669 q 462 712 429 704 q 535 721 495 721 q 631 706 591 721 q 697 662 671 690 q 748 559 734 622 q 762 412 762 496 l 762 98 q 759 11 762 50 q 746 -62 755 -28 q 722 -126 737 -96 q 684 -186 707 -157 q 642 -235 667 -208 q 580 -300 618 -262 l 459 -206 l 486 -172 q 524 -119 507 -144 q 552 -65 541 -94 q 570 1 564 -35 q 576 89 576 38 l 576 466 q 550 555 576 524 q 477 585 523 585 q 426 573 451 585 q 378 541 401 561 q 336 496 355 521 q 300 445 316 471 l 300 0 l 115 0 l 115 435 q 114 527 115 490 q 110 592 113 564 q 107 617 109 606 q 104 638 106 628 q 100 659 102 648 q 94 683 98 669 q 182 704 138 694 q 271 721 226 713 q 279 693 275 707 q 286 663 283 679 q 291 628 289 647 q 295 585 293 609 l 304 585 z "},"Ō":{"ha":1046,"x_min":81,"x_max":964,"o":"m 728 1224 l 728 1108 l 318 1108 l 318 1224 l 728 1224 m 523 990 q 729 953 645 990 q 866 850 813 916 q 941 691 918 783 q 964 487 964 598 q 941 283 964 376 q 866 124 918 191 q 729 21 813 58 q 523 -16 645 -16 q 319 20 403 -16 q 182 121 235 56 q 105 280 130 187 q 81 487 81 373 q 105 694 81 601 q 182 852 130 787 q 319 954 235 918 q 523 990 403 990 m 523 851 q 404 828 452 851 q 327 759 356 805 q 286 645 298 713 q 274 487 274 577 q 286 329 274 397 q 327 215 298 260 q 404 146 356 169 q 523 123 452 123 q 641 145 593 123 q 718 214 689 168 q 759 328 747 259 q 772 487 772 396 q 759 646 772 578 q 718 760 747 715 q 641 828 689 806 q 523 851 593 851 z "},"ō":{"ha":823,"x_min":68,"x_max":758,"o":"m 617 955 l 617 839 l 207 839 l 207 955 l 617 955 m 413 721 q 567 693 502 721 q 674 616 632 665 q 738 499 717 567 q 758 353 758 432 q 738 205 758 273 q 674 89 717 138 q 567 12 632 39 q 413 -16 502 -16 q 259 12 324 -16 q 152 89 194 39 q 89 205 109 138 q 68 353 68 273 q 89 499 68 432 q 152 616 109 567 q 259 693 194 665 q 413 721 324 721 m 413 588 q 333 570 364 588 q 284 519 302 551 q 260 445 267 488 q 254 353 254 401 q 260 260 254 303 q 284 185 267 217 q 333 135 302 153 q 413 117 364 117 q 493 135 462 117 q 542 185 524 153 q 566 260 559 217 q 572 353 572 303 q 566 445 572 401 q 542 519 559 488 q 493 570 524 551 q 413 588 462 588 z "},"Ő":{"ha":1046,"x_min":81,"x_max":964,"o":"m 374 1362 q 428 1390 399 1380 q 484 1400 456 1400 q 519 1395 503 1400 q 549 1379 536 1390 q 570 1352 562 1368 q 577 1314 577 1336 q 570 1265 577 1289 q 547 1215 562 1242 q 509 1153 532 1187 q 455 1070 486 1118 l 349 1070 l 414 1248 l 374 1362 m 646 1362 q 699 1390 670 1380 q 755 1400 728 1400 q 791 1395 774 1400 q 821 1379 808 1390 q 841 1352 833 1368 q 848 1314 848 1336 q 841 1265 848 1289 q 818 1215 833 1242 q 780 1153 803 1187 q 726 1070 757 1118 l 621 1070 l 685 1248 l 646 1362 m 523 990 q 729 953 645 990 q 866 850 813 916 q 941 691 918 783 q 964 487 964 598 q 941 283 964 376 q 866 124 918 191 q 729 21 813 58 q 523 -16 645 -16 q 319 20 403 -16 q 182 121 235 56 q 105 280 130 187 q 81 487 81 373 q 105 694 81 601 q 182 852 130 787 q 319 954 235 918 q 523 990 403 990 m 523 851 q 404 828 452 851 q 327 759 356 805 q 286 645 298 713 q 274 487 274 577 q 286 329 274 397 q 327 215 298 260 q 404 146 356 169 q 523 123 452 123 q 641 145 593 123 q 718 214 689 168 q 759 328 747 259 q 772 487 772 396 q 759 646 772 578 q 718 760 747 715 q 641 828 689 806 q 523 851 593 851 z "},"ő":{"ha":823,"x_min":68,"x_max":758,"o":"m 263 1093 q 316 1121 288 1111 q 372 1131 345 1131 q 408 1125 391 1131 q 438 1109 425 1120 q 458 1083 451 1099 q 466 1045 466 1067 q 458 996 466 1019 q 436 945 451 972 q 397 884 420 918 q 344 801 374 849 l 238 801 l 302 979 l 263 1093 m 534 1093 q 588 1121 559 1111 q 644 1131 616 1131 q 680 1125 663 1131 q 709 1109 696 1120 q 730 1083 722 1099 q 737 1045 737 1067 q 730 996 737 1019 q 707 945 722 972 q 669 884 692 918 q 615 801 646 849 l 509 801 l 574 979 l 534 1093 m 413 721 q 567 693 502 721 q 674 616 632 665 q 738 499 717 567 q 758 353 758 432 q 738 205 758 273 q 674 89 717 138 q 567 12 632 39 q 413 -16 502 -16 q 259 12 324 -16 q 152 89 194 39 q 89 205 109 138 q 68 353 68 273 q 89 499 68 432 q 152 616 109 567 q 259 693 194 665 q 413 721 324 721 m 413 588 q 333 570 364 588 q 284 519 302 551 q 260 445 267 488 q 254 353 254 401 q 260 260 254 303 q 284 185 267 217 q 333 135 302 153 q 413 117 364 117 q 493 135 462 117 q 542 185 524 153 q 566 260 559 217 q 572 353 572 303 q 566 445 572 401 q 542 519 559 488 q 493 570 524 551 q 413 588 462 588 z "},"Œ":{"ha":1459,"x_min":81,"x_max":1297,"o":"m 700 33 q 616 -4 661 7 q 523 -16 572 -16 q 319 20 403 -16 q 182 121 235 56 q 105 280 130 187 q 81 487 81 373 q 105 693 81 601 q 182 851 130 785 q 319 952 235 916 q 523 990 403 989 q 616 978 572 990 q 700 941 661 966 l 700 975 l 1283 975 l 1283 836 l 889 836 l 889 615 l 1168 615 l 1168 476 l 889 476 l 889 139 l 1297 139 l 1297 0 l 700 0 l 700 33 m 700 785 q 627 834 670 818 q 523 851 584 851 q 404 828 452 851 q 327 759 356 805 q 286 645 298 713 q 274 487 274 577 q 286 329 274 397 q 327 215 298 260 q 404 146 356 169 q 523 123 452 123 q 627 139 584 123 q 700 189 670 156 l 700 785 z "},"œ":{"ha":1324,"x_min":68,"x_max":1256,"o":"m 1207 33 q 1146 12 1179 21 q 1078 -3 1114 3 q 1005 -12 1042 -9 q 932 -16 968 -16 q 773 9 842 -16 q 660 94 705 34 q 556 11 617 37 q 413 -16 495 -16 q 259 12 324 -16 q 152 89 194 40 q 89 206 109 138 q 68 353 68 274 q 89 500 68 433 q 152 617 109 568 q 259 694 194 667 q 413 722 324 722 q 561 695 498 722 q 666 613 623 669 q 767 695 707 668 q 911 722 827 722 q 1064 701 1000 722 q 1172 634 1129 679 q 1235 520 1215 589 q 1256 357 1256 452 l 1256 305 l 758 305 q 768 225 759 260 q 799 167 778 191 q 857 131 821 143 q 947 118 892 118 q 1049 130 994 118 q 1164 164 1104 142 l 1207 33 m 1072 426 q 921 593 1067 593 q 807 550 846 593 q 759 426 768 507 l 1072 426 m 413 587 q 333 569 364 587 q 284 519 302 551 q 260 445 267 487 q 254 353 254 402 q 260 262 254 304 q 284 188 267 220 q 333 138 302 156 q 413 119 364 119 q 493 138 462 119 q 542 188 524 156 q 566 262 559 220 q 572 353 572 304 q 566 445 572 402 q 542 519 559 487 q 493 569 524 551 q 413 587 462 587 z "},"Ŕ":{"ha":897,"x_min":123,"x_max":860,"o":"m 412 1362 q 466 1390 437 1380 q 522 1400 494 1400 q 557 1395 541 1400 q 587 1379 574 1390 q 608 1352 600 1368 q 615 1314 615 1336 q 608 1265 615 1289 q 585 1215 600 1242 q 547 1153 570 1187 q 493 1070 524 1118 l 387 1070 l 452 1248 l 412 1362 m 482 975 q 604 959 548 975 q 700 909 659 942 q 763 825 741 876 q 786 706 786 774 q 768 606 786 651 q 716 527 749 560 q 637 472 683 493 q 537 444 592 451 l 536 442 q 589 398 564 427 q 639 337 615 370 q 685 269 663 304 q 726 205 707 235 l 860 0 l 646 0 q 593 90 623 39 q 534 191 564 140 q 478 284 505 241 q 436 351 452 327 q 407 389 420 374 q 380 414 394 405 q 352 428 367 424 q 317 433 336 432 l 312 433 l 312 0 l 123 0 l 123 975 l 482 975 m 410 563 q 488 570 454 563 q 546 594 522 577 q 581 637 569 610 q 593 704 593 665 q 581 770 593 743 q 546 814 569 798 q 488 838 522 831 q 410 845 454 845 l 312 845 l 312 563 l 410 563 z "},"ŕ":{"ha":644,"x_min":99,"x_max":604,"o":"m 312 1093 q 365 1121 336 1111 q 421 1131 394 1131 q 457 1125 440 1131 q 487 1109 474 1120 q 507 1083 500 1099 q 515 1045 515 1067 q 507 996 515 1019 q 485 945 500 972 q 446 884 469 918 q 393 801 423 849 l 287 801 l 351 979 l 312 1093 m 309 585 q 354 644 333 621 q 397 681 374 666 q 442 704 419 695 q 488 717 465 713 q 533 721 511 721 q 570 719 552 721 q 604 713 588 716 q 598 672 602 694 q 591 629 595 651 q 582 587 587 608 q 571 547 576 566 q 504 560 532 555 q 453 565 475 565 q 415 559 432 565 q 380 539 397 553 q 346 502 363 525 q 305 443 328 478 l 305 0 l 119 0 l 119 435 q 119 508 119 474 q 116 573 118 543 q 110 630 114 603 q 99 683 106 657 q 187 704 143 694 q 275 721 231 713 q 284 693 280 707 q 291 663 288 679 q 296 628 294 647 q 300 585 298 609 l 309 585 z "},"Ŗ":{"ha":897,"x_min":123,"x_max":860,"o":"m 482 975 q 604 959 548 975 q 700 909 659 942 q 763 825 741 876 q 786 706 786 774 q 768 606 786 651 q 716 527 749 560 q 637 472 683 493 q 537 444 592 451 l 536 442 q 589 398 564 427 q 639 337 615 370 q 685 269 663 304 q 726 205 707 235 l 860 0 l 646 0 q 593 90 623 39 q 534 191 564 140 q 478 284 505 241 q 436 351 452 327 q 407 389 420 374 q 380 414 394 405 q 352 428 367 424 q 317 433 336 432 l 312 433 l 312 0 l 123 0 l 123 975 l 482 975 m 410 563 q 488 570 454 563 q 546 594 522 577 q 581 637 569 610 q 593 704 593 665 q 581 770 593 743 q 546 814 569 798 q 488 838 522 831 q 410 845 454 845 l 312 845 l 312 563 l 410 563 m 374 -123 q 427 -96 398 -106 q 483 -86 456 -86 q 519 -91 502 -86 q 549 -107 536 -96 q 569 -134 562 -118 q 576 -172 576 -150 q 569 -221 576 -197 q 546 -271 562 -244 q 508 -333 531 -298 q 454 -416 485 -368 l 349 -416 l 413 -238 l 374 -123 z "},"ŗ":{"ha":644,"x_min":99,"x_max":604,"o":"m 309 585 q 354 644 333 621 q 397 681 374 666 q 442 704 419 695 q 488 717 465 713 q 533 721 511 721 q 570 719 552 721 q 604 713 588 716 q 598 672 602 694 q 591 629 595 651 q 582 587 587 608 q 571 547 576 566 q 504 560 532 555 q 453 565 475 565 q 415 559 432 565 q 380 539 397 553 q 346 502 363 525 q 305 443 328 478 l 305 0 l 119 0 l 119 435 q 119 508 119 474 q 116 573 118 543 q 110 630 114 603 q 99 683 106 657 q 187 704 143 694 q 275 721 231 713 q 284 693 280 707 q 291 663 288 679 q 296 628 294 647 q 300 585 298 609 l 309 585 m 124 -123 q 177 -96 149 -106 q 233 -86 206 -86 q 269 -91 252 -86 q 299 -107 286 -96 q 319 -134 312 -118 q 327 -172 327 -150 q 319 -221 327 -197 q 297 -271 312 -244 q 258 -333 281 -298 q 205 -416 235 -368 l 99 -416 l 163 -238 l 124 -123 z "},"Ř":{"ha":897,"x_min":123,"x_max":860,"o":"m 609 1301 l 660 1242 l 435 1070 l 211 1242 l 262 1301 l 435 1226 l 609 1301 m 482 975 q 604 959 548 975 q 700 909 659 942 q 763 825 741 876 q 786 706 786 774 q 768 606 786 651 q 716 527 749 560 q 637 472 683 493 q 537 444 592 451 l 536 442 q 589 398 564 427 q 639 337 615 370 q 685 269 663 304 q 726 205 707 235 l 860 0 l 646 0 q 593 90 623 39 q 534 191 564 140 q 478 284 505 241 q 436 351 452 327 q 407 389 420 374 q 380 414 394 405 q 352 428 367 424 q 317 433 336 432 l 312 433 l 312 0 l 123 0 l 123 975 l 482 975 m 410 563 q 488 570 454 563 q 546 594 522 577 q 581 637 569 610 q 593 704 593 665 q 581 770 593 743 q 546 814 569 798 q 488 838 522 831 q 410 845 454 845 l 312 845 l 312 563 l 410 563 z "},"ř":{"ha":644,"x_min":99,"x_max":604,"o":"m 509 1032 l 559 973 l 335 801 l 111 973 l 161 1032 l 335 957 l 509 1032 m 309 585 q 354 644 333 621 q 397 681 374 666 q 442 704 419 695 q 488 717 465 713 q 533 721 511 721 q 570 719 552 721 q 604 713 588 716 q 598 672 602 694 q 591 629 595 651 q 582 587 587 608 q 571 547 576 566 q 504 560 532 555 q 453 565 475 565 q 415 559 432 565 q 380 539 397 553 q 346 502 363 525 q 305 443 328 478 l 305 0 l 119 0 l 119 435 q 119 508 119 474 q 116 573 118 543 q 110 630 114 603 q 99 683 106 657 q 187 704 143 694 q 275 721 231 713 q 284 693 280 707 q 291 663 288 679 q 296 628 294 647 q 300 585 298 609 l 309 585 z "},"Ś":{"ha":862,"x_min":69,"x_max":794,"o":"m 402 1362 q 455 1390 427 1380 q 511 1400 484 1400 q 547 1395 530 1400 q 577 1379 564 1390 q 597 1352 590 1368 q 605 1314 605 1336 q 597 1265 605 1289 q 575 1215 590 1242 q 536 1153 559 1187 q 483 1070 513 1118 l 377 1070 l 441 1248 l 402 1362 m 119 169 q 240 133 176 147 q 379 118 304 118 q 469 127 428 118 q 539 155 509 136 q 585 203 568 174 q 602 274 602 233 q 584 345 602 319 q 533 389 566 372 q 454 417 500 406 q 352 443 408 429 q 237 480 289 459 q 149 534 185 501 q 92 616 112 568 q 71 737 71 665 q 87 823 71 785 q 130 889 103 861 q 193 937 157 918 q 268 969 229 957 q 347 987 307 981 q 425 992 388 992 q 487 989 450 992 q 564 980 523 987 q 649 961 605 972 q 733 932 692 949 l 685 814 q 572 846 631 833 q 449 858 513 858 q 374 851 408 858 q 316 831 340 845 q 277 793 291 817 q 264 738 264 770 q 280 672 264 696 q 328 633 297 648 q 405 608 359 618 q 507 583 450 597 q 622 544 569 566 q 712 487 674 522 q 772 401 751 452 q 794 274 794 349 q 773 160 794 208 q 718 80 752 113 q 641 29 684 48 q 553 0 597 10 q 466 -13 508 -10 q 392 -16 424 -16 q 322 -12 361 -16 q 240 -1 283 -9 q 154 19 197 6 q 69 50 110 31 l 119 169 z "},"ś":{"ha":715,"x_min":64,"x_max":648,"o":"m 340 1093 q 393 1121 364 1111 q 449 1131 422 1131 q 485 1125 468 1131 q 515 1109 502 1120 q 535 1083 528 1099 q 543 1045 543 1067 q 535 996 543 1019 q 512 945 528 972 q 474 884 497 918 q 420 801 451 849 l 315 801 l 379 979 l 340 1093 m 363 720 q 491 709 429 720 q 600 678 553 697 q 578 623 591 651 q 553 570 566 595 q 472 590 518 582 q 382 598 427 598 q 333 594 356 598 q 292 583 309 591 q 264 561 275 574 q 254 529 254 548 q 268 487 254 503 q 303 463 281 472 q 354 447 325 453 q 415 433 383 441 q 508 404 465 422 q 582 359 551 387 q 631 292 614 332 q 648 197 648 252 q 620 96 646 137 q 549 31 593 56 q 449 -5 505 5 q 335 -16 393 -16 q 258 -12 296 -16 q 184 0 219 -8 q 118 18 149 7 q 64 41 87 28 q 90 96 76 68 q 118 149 104 125 q 162 133 137 141 q 214 120 186 125 q 270 110 241 114 q 327 106 299 106 q 381 111 355 106 q 426 126 407 116 q 457 154 446 137 q 468 197 468 172 q 455 242 468 225 q 419 269 441 259 q 368 286 397 279 q 307 298 338 292 q 217 325 260 307 q 142 370 174 342 q 92 438 111 398 q 75 531 73 477 q 100 620 75 584 q 165 679 125 656 q 257 710 205 701 q 363 720 309 720 z "},"Ş":{"ha":862,"x_min":69,"x_max":794,"o":"m 685 814 q 572 846 631 833 q 449 858 513 858 q 374 851 408 858 q 316 831 340 845 q 277 793 291 817 q 264 738 264 770 q 280 672 264 696 q 328 633 297 648 q 405 608 359 618 q 507 583 450 597 q 622 544 569 566 q 712 487 674 522 q 772 401 751 452 q 794 274 794 349 q 780 178 794 220 q 742 106 766 136 q 685 54 718 75 q 617 19 653 33 q 545 -2 582 5 q 473 -12 507 -9 l 422 -77 q 499 -118 477 -94 q 522 -178 522 -142 q 511 -227 522 -206 q 479 -262 499 -248 q 431 -283 459 -276 q 371 -290 404 -290 q 309 -283 340 -290 q 246 -267 277 -277 l 283 -199 q 333 -220 310 -212 q 373 -227 355 -227 q 406 -216 395 -227 q 418 -182 418 -205 q 394 -142 418 -157 q 322 -111 370 -127 l 380 -16 q 311 -12 349 -16 q 232 0 273 -7 q 150 20 191 7 q 69 50 108 32 l 119 169 q 240 133 176 147 q 379 118 304 118 q 469 127 428 118 q 539 155 509 136 q 585 203 568 174 q 602 274 602 233 q 584 345 602 319 q 533 389 566 372 q 454 417 500 406 q 352 443 408 429 q 237 480 289 459 q 149 534 185 501 q 92 616 112 568 q 71 737 71 665 q 87 823 71 785 q 130 889 103 861 q 193 937 157 918 q 268 969 229 957 q 347 987 307 981 q 425 992 388 992 q 487 989 450 992 q 564 980 523 987 q 649 961 605 972 q 733 932 692 949 l 685 814 z "},"ş":{"ha":715,"x_min":64,"x_max":648,"o":"m 299 -16 q 231 -9 264 -14 q 168 3 198 -4 q 111 20 138 11 q 64 41 85 30 q 90 96 76 68 q 118 149 104 125 q 162 133 137 141 q 214 120 186 125 q 270 110 241 114 q 327 106 299 106 q 381 111 355 106 q 426 126 407 116 q 457 154 446 137 q 468 197 468 172 q 455 242 468 225 q 419 269 441 259 q 368 286 397 279 q 307 298 338 292 q 217 325 260 307 q 142 370 174 342 q 92 438 111 398 q 75 531 73 477 q 100 620 75 584 q 165 679 125 656 q 257 710 205 701 q 363 720 309 720 q 491 709 429 720 q 600 678 553 697 q 578 623 591 651 q 553 570 566 595 q 472 590 518 582 q 382 598 427 598 q 333 594 356 598 q 292 583 309 591 q 264 561 275 574 q 254 529 254 548 q 268 487 254 503 q 303 463 281 472 q 354 447 325 453 q 415 433 383 441 q 508 404 465 422 q 582 359 551 387 q 631 292 614 332 q 648 197 648 252 q 625 107 646 144 q 569 44 604 69 q 488 5 534 18 q 391 -14 442 -9 l 341 -77 q 418 -118 395 -94 q 441 -178 441 -142 q 429 -227 441 -206 q 398 -262 418 -248 q 350 -283 378 -276 q 290 -290 322 -290 q 228 -283 259 -290 q 165 -267 196 -277 l 201 -199 q 251 -220 229 -212 q 292 -227 274 -227 q 325 -216 313 -227 q 336 -182 336 -205 q 312 -142 336 -157 q 241 -111 288 -127 l 299 -16 z "},"Š":{"ha":862,"x_min":69,"x_max":794,"o":"m 599 1301 l 650 1242 l 425 1070 l 201 1242 l 252 1301 l 425 1226 l 599 1301 m 119 169 q 240 133 176 147 q 379 118 304 118 q 469 127 428 118 q 539 155 509 136 q 585 203 568 174 q 602 274 602 233 q 584 345 602 319 q 533 389 566 372 q 454 417 500 406 q 352 443 408 429 q 237 480 289 459 q 149 534 185 501 q 92 616 112 568 q 71 737 71 665 q 87 823 71 785 q 130 889 103 861 q 193 937 157 918 q 268 969 229 957 q 347 987 307 981 q 425 992 388 992 q 487 989 450 992 q 564 980 523 987 q 649 961 605 972 q 733 932 692 949 l 685 814 q 572 846 631 833 q 449 858 513 858 q 374 851 408 858 q 316 831 340 845 q 277 793 291 817 q 264 738 264 770 q 280 672 264 696 q 328 633 297 648 q 405 608 359 618 q 507 583 450 597 q 622 544 569 566 q 712 487 674 522 q 772 401 751 452 q 794 274 794 349 q 773 160 794 208 q 718 80 752 113 q 641 29 684 48 q 553 0 597 10 q 466 -13 508 -10 q 392 -16 424 -16 q 322 -12 361 -16 q 240 -1 283 -9 q 154 19 197 6 q 69 50 110 31 l 119 169 z "},"š":{"ha":715,"x_min":64,"x_max":648,"o":"m 536 1032 l 587 973 l 363 801 l 138 973 l 189 1032 l 363 957 l 536 1032 m 363 720 q 491 709 429 720 q 600 678 553 697 q 578 623 591 651 q 553 570 566 595 q 472 590 518 582 q 382 598 427 598 q 333 594 356 598 q 292 583 309 591 q 264 561 275 574 q 254 529 254 548 q 268 487 254 503 q 303 463 281 472 q 354 447 325 453 q 415 433 383 441 q 508 404 465 422 q 582 359 551 387 q 631 292 614 332 q 648 197 648 252 q 620 96 646 137 q 549 31 593 56 q 449 -5 505 5 q 335 -16 393 -16 q 258 -12 296 -16 q 184 0 219 -8 q 118 18 149 7 q 64 41 87 28 q 90 96 76 68 q 118 149 104 125 q 162 133 137 141 q 214 120 186 125 q 270 110 241 114 q 327 106 299 106 q 381 111 355 106 q 426 126 407 116 q 457 154 446 137 q 468 197 468 172 q 455 242 468 225 q 419 269 441 259 q 368 286 397 279 q 307 298 338 292 q 217 325 260 307 q 142 370 174 342 q 92 438 111 398 q 75 531 73 477 q 100 620 75 584 q 165 679 125 656 q 257 710 205 701 q 363 720 309 720 z "},"Ţ":{"ha":884,"x_min":61,"x_max":823,"o":"m 823 975 l 823 836 l 538 836 l 538 0 l 477 0 l 416 -77 q 493 -118 470 -94 q 515 -178 515 -142 q 504 -227 515 -206 q 472 -262 492 -248 q 425 -283 452 -276 q 364 -290 397 -290 q 302 -283 334 -290 q 239 -267 271 -277 l 276 -199 q 326 -220 303 -212 q 366 -227 349 -227 q 399 -216 388 -227 q 411 -182 411 -205 q 387 -142 411 -157 q 315 -111 363 -127 l 383 0 l 349 0 l 349 836 l 61 836 l 61 975 l 823 975 z "},"ţ":{"ha":652,"x_min":73,"x_max":597,"o":"m 360 570 l 360 231 q 363 176 360 198 q 374 142 366 155 q 397 124 382 130 q 433 119 411 119 q 484 124 455 119 q 552 138 513 129 q 561 109 556 125 q 571 76 566 93 q 581 42 576 58 q 590 14 586 26 q 555 4 574 9 q 513 -4 535 -1 q 469 -11 492 -8 q 423 -15 446 -14 l 374 -77 q 451 -118 429 -94 q 474 -178 474 -142 q 463 -227 474 -206 q 431 -262 451 -248 q 383 -283 411 -276 q 323 -290 355 -290 q 261 -283 292 -290 q 198 -267 229 -277 l 235 -199 q 284 -220 262 -212 q 325 -227 307 -227 q 358 -216 347 -227 q 370 -182 370 -205 q 346 -142 370 -157 q 274 -111 321 -127 l 333 -14 q 271 -1 300 -11 q 223 27 243 8 q 184 107 193 56 q 174 238 174 159 l 174 570 l 73 570 l 73 705 l 174 705 l 174 867 l 360 867 l 360 705 l 597 705 l 597 570 l 360 570 z "},"Ť":{"ha":884,"x_min":61,"x_max":823,"o":"m 616 1301 l 667 1242 l 442 1070 l 218 1242 l 269 1301 l 442 1226 l 616 1301 m 823 975 l 823 836 l 538 836 l 538 0 l 349 0 l 349 836 l 61 836 l 61 975 l 823 975 z "},"ť":{"ha":652,"x_min":73,"x_max":919,"o":"m 696 1012 q 754 1042 723 1031 q 816 1053 786 1053 q 855 1047 836 1053 q 888 1029 873 1041 q 910 1000 902 1017 q 919 958 919 982 q 911 904 919 930 q 886 849 903 879 q 844 781 869 819 q 785 690 819 743 l 668 690 l 739 886 l 696 1012 m 360 867 l 360 705 l 597 705 l 597 570 l 360 570 l 360 231 q 363 176 360 198 q 374 142 366 155 q 397 124 382 130 q 433 119 411 119 q 484 124 455 119 q 552 138 513 129 q 561 109 556 125 q 571 76 566 93 q 581 42 576 58 q 590 14 586 26 q 546 2 571 7 q 492 -8 520 -4 q 436 -14 465 -12 q 382 -16 408 -16 q 336 -14 359 -16 q 292 -7 313 -12 q 254 6 271 -2 q 223 27 236 14 q 184 107 193 56 q 174 238 174 159 l 174 570 l 73 570 l 73 705 l 174 705 l 174 867 l 360 867 z "},"Ŧ":{"ha":884,"x_min":61,"x_max":823,"o":"m 648 1224 l 648 1108 l 237 1108 l 237 1224 l 648 1224 m 823 975 l 823 836 l 538 836 l 538 0 l 349 0 l 349 836 l 61 836 l 61 975 l 823 975 z "},"ŧ":{"ha":652,"x_min":73,"x_max":597,"o":"m 360 570 l 360 464 l 484 464 l 484 348 l 360 348 l 360 231 q 363 176 360 198 q 374 142 366 155 q 397 124 382 130 q 433 119 411 119 q 484 124 455 119 q 552 138 513 129 q 561 109 556 125 q 571 76 566 93 q 581 42 576 58 q 590 14 586 26 q 546 2 571 7 q 492 -8 520 -4 q 436 -14 465 -12 q 382 -16 408 -16 q 336 -14 359 -16 q 292 -7 313 -12 q 254 6 271 -2 q 223 27 236 14 q 184 107 193 56 q 174 238 174 159 l 174 348 l 74 348 l 74 464 l 174 464 l 174 570 l 73 570 l 73 705 l 174 705 l 174 867 l 360 867 l 360 705 l 597 705 l 597 570 l 360 570 z "},"Ū":{"ha":1039,"x_min":113,"x_max":926,"o":"m 725 1224 l 725 1108 l 315 1108 l 315 1224 l 725 1224 m 926 975 l 926 429 q 905 240 926 323 q 834 100 883 157 q 708 14 786 43 q 519 -16 631 -16 q 327 15 405 -16 q 202 103 250 45 q 133 243 154 161 q 113 429 113 326 l 113 975 l 305 975 l 305 406 q 316 289 305 341 q 353 201 328 237 q 419 145 378 165 q 519 125 460 125 q 621 145 579 125 q 687 201 662 165 q 723 290 712 238 q 734 406 734 342 l 734 975 l 926 975 z "},"ū":{"ha":853,"x_min":98,"x_max":766,"o":"m 628 955 l 628 839 l 218 839 l 218 955 l 628 955 m 746 705 l 746 270 q 747 178 746 215 q 751 113 748 141 q 753 87 752 98 q 756 66 755 77 q 761 45 758 56 q 766 22 763 35 q 679 1 722 10 q 590 -16 635 -8 q 581 12 585 -2 q 574 42 577 26 q 570 77 572 58 q 566 120 568 96 l 557 120 q 510 61 534 86 q 459 18 486 35 q 398 -8 431 1 q 326 -16 366 -16 q 192 18 241 -16 q 122 115 144 52 q 104 196 109 152 q 98 292 98 240 l 98 705 l 284 705 l 284 239 q 311 150 284 180 q 384 119 338 119 q 434 132 410 119 q 482 163 459 144 q 525 209 505 183 q 560 260 545 234 l 560 705 l 746 705 z "},"Ů":{"ha":1039,"x_min":113,"x_max":926,"o":"m 519 1327 q 571 1317 547 1327 q 613 1289 595 1307 q 642 1247 631 1271 q 652 1195 652 1223 q 642 1143 652 1167 q 613 1101 631 1119 q 571 1073 595 1083 q 519 1063 547 1063 q 468 1073 492 1063 q 426 1101 444 1083 q 397 1143 408 1119 q 387 1195 387 1167 q 397 1247 387 1223 q 426 1289 408 1271 q 468 1317 444 1307 q 519 1327 492 1327 m 519 1251 q 479 1235 496 1251 q 463 1195 463 1219 q 479 1155 463 1171 q 519 1139 496 1139 q 559 1155 543 1139 q 576 1195 576 1171 q 559 1235 576 1219 q 519 1251 543 1251 m 926 975 l 926 429 q 905 240 926 323 q 834 100 883 157 q 708 14 786 43 q 519 -16 631 -16 q 327 15 405 -16 q 202 103 250 45 q 133 243 154 161 q 113 429 113 326 l 113 975 l 305 975 l 305 406 q 316 289 305 341 q 353 201 328 237 q 419 145 378 165 q 519 125 460 125 q 621 145 579 125 q 687 201 662 165 q 723 290 712 238 q 734 406 734 342 l 734 975 l 926 975 z "},"ů":{"ha":853,"x_min":98,"x_max":766,"o":"m 422 1058 q 474 1048 450 1058 q 516 1020 498 1038 q 545 978 534 1002 q 555 926 555 954 q 545 874 555 898 q 516 832 534 850 q 474 804 498 814 q 422 793 450 793 q 371 804 395 793 q 329 832 347 814 q 300 874 311 850 q 290 926 290 898 q 300 978 290 954 q 329 1020 311 1002 q 371 1048 347 1038 q 422 1058 395 1058 m 422 982 q 382 966 399 982 q 366 926 366 949 q 382 886 366 902 q 422 869 399 869 q 463 886 446 869 q 479 926 479 902 q 463 966 479 949 q 422 982 446 982 m 746 705 l 746 270 q 747 178 746 215 q 751 113 748 141 q 753 87 752 98 q 756 66 755 77 q 761 45 758 56 q 766 22 763 35 q 679 1 722 10 q 590 -16 635 -8 q 581 12 585 -2 q 574 42 577 26 q 570 77 572 58 q 566 120 568 96 l 557 120 q 510 61 534 86 q 459 18 486 35 q 398 -8 431 1 q 326 -16 366 -16 q 192 18 241 -16 q 122 115 144 52 q 104 196 109 152 q 98 292 98 240 l 98 705 l 284 705 l 284 239 q 311 150 284 180 q 384 119 338 119 q 434 132 410 119 q 482 163 459 144 q 525 209 505 183 q 560 260 545 234 l 560 705 l 746 705 z "},"Ű":{"ha":1039,"x_min":113,"x_max":926,"o":"m 371 1362 q 424 1390 395 1380 q 480 1400 453 1400 q 516 1395 499 1400 q 546 1379 533 1390 q 566 1352 559 1368 q 574 1314 574 1336 q 566 1265 574 1289 q 544 1215 559 1242 q 505 1153 528 1187 q 452 1070 482 1118 l 346 1070 l 410 1248 l 371 1362 m 642 1362 q 695 1390 667 1380 q 751 1400 724 1400 q 787 1395 770 1400 q 817 1379 804 1390 q 838 1352 830 1368 q 845 1314 845 1336 q 838 1265 845 1289 q 815 1215 830 1242 q 777 1153 800 1187 q 723 1070 753 1118 l 617 1070 l 682 1248 l 642 1362 m 926 975 l 926 429 q 905 240 926 323 q 834 100 883 157 q 708 14 786 43 q 519 -16 631 -16 q 327 15 405 -16 q 202 103 250 45 q 133 243 154 161 q 113 429 113 326 l 113 975 l 305 975 l 305 406 q 316 289 305 341 q 353 201 328 237 q 419 145 378 165 q 519 125 460 125 q 621 145 579 125 q 687 201 662 165 q 723 290 712 238 q 734 406 734 342 l 734 975 l 926 975 z "},"ű":{"ha":853,"x_min":98,"x_max":766,"o":"m 274 1093 q 327 1121 298 1111 q 383 1131 356 1131 q 419 1125 402 1131 q 449 1109 436 1120 q 469 1083 462 1099 q 477 1045 477 1067 q 469 996 477 1019 q 447 945 462 972 q 408 884 431 918 q 355 801 385 849 l 249 801 l 313 979 l 274 1093 m 545 1093 q 598 1121 570 1111 q 654 1131 627 1131 q 690 1125 673 1131 q 720 1109 707 1120 q 741 1083 733 1099 q 748 1045 748 1067 q 741 996 748 1019 q 718 945 733 972 q 680 884 703 918 q 626 801 656 849 l 520 801 l 585 979 l 545 1093 m 746 705 l 746 270 q 747 178 746 215 q 751 113 748 141 q 753 87 752 98 q 756 66 755 77 q 761 45 758 56 q 766 22 763 35 q 679 1 722 10 q 590 -16 635 -8 q 581 12 585 -2 q 574 42 577 26 q 570 77 572 58 q 566 120 568 96 l 557 120 q 510 61 534 86 q 459 18 486 35 q 398 -8 431 1 q 326 -16 366 -16 q 192 18 241 -16 q 122 115 144 52 q 104 196 109 152 q 98 292 98 240 l 98 705 l 284 705 l 284 239 q 311 150 284 180 q 384 119 338 119 q 434 132 410 119 q 482 163 459 144 q 525 209 505 183 q 560 260 545 234 l 560 705 l 746 705 z "},"Ų":{"ha":1039,"x_min":113,"x_max":926,"o":"m 926 975 l 926 429 q 905 243 926 325 q 838 104 884 161 q 717 17 791 47 q 535 -16 642 -14 q 484 -79 502 -51 q 465 -138 465 -106 q 480 -184 465 -171 q 521 -197 494 -197 q 557 -193 537 -197 q 601 -180 578 -188 l 597 -245 q 544 -268 571 -260 q 480 -277 517 -277 q 434 -269 455 -277 q 397 -247 412 -262 q 373 -212 382 -233 q 364 -164 364 -191 q 370 -121 364 -141 q 388 -84 376 -102 q 415 -49 399 -66 q 451 -13 431 -32 q 292 31 357 -4 q 188 122 228 65 q 130 256 148 178 q 113 429 113 334 l 113 975 l 305 975 l 305 406 q 316 289 305 341 q 353 201 328 237 q 419 145 378 165 q 519 125 460 125 q 621 145 579 125 q 687 201 662 165 q 723 290 712 238 q 734 406 734 342 l 734 975 l 926 975 z "},"ų":{"ha":853,"x_min":98,"x_max":766,"o":"m 746 270 q 747 178 746 215 q 751 113 748 141 q 753 87 752 98 q 756 66 755 77 q 761 45 758 56 q 766 22 763 35 q 722 11 744 16 q 677 1 699 6 q 641 -38 656 -20 q 614 -72 625 -56 q 597 -105 603 -89 q 591 -138 591 -121 q 606 -184 591 -171 q 647 -197 621 -197 q 684 -193 663 -197 q 727 -180 704 -188 l 723 -245 q 670 -268 697 -260 q 606 -277 644 -277 q 560 -269 581 -277 q 523 -247 538 -262 q 499 -212 508 -233 q 490 -164 490 -191 q 497 -119 490 -140 q 516 -80 504 -99 q 547 -43 529 -62 q 586 -5 564 -25 q 579 21 582 8 q 573 49 576 34 q 569 81 571 64 q 566 120 567 98 l 557 120 q 510 61 534 86 q 459 18 486 35 q 398 -8 431 1 q 326 -16 366 -16 q 192 18 241 -16 q 122 115 144 52 q 104 196 109 152 q 98 292 98 240 l 98 705 l 284 705 l 284 239 q 311 150 284 180 q 384 119 338 119 q 434 132 410 119 q 482 163 459 144 q 525 209 505 183 q 560 260 545 234 l 560 705 l 746 705 l 746 270 z "},"Ŵ":{"ha":1267,"x_min":50,"x_max":1217,"o":"m 633 1301 l 858 1129 l 807 1070 l 633 1145 l 460 1070 l 409 1129 l 633 1301 m 1217 975 l 1106 0 l 858 0 l 633 781 l 409 0 l 161 0 l 50 975 l 235 975 l 315 243 l 317 243 l 527 975 l 740 975 l 950 243 l 951 243 l 1031 975 l 1217 975 z "},"ŵ":{"ha":1069,"x_min":31,"x_max":1022,"o":"m 490 1032 l 714 860 l 663 801 l 490 876 l 316 801 l 265 860 l 490 1032 m 736 132 q 773 218 755 177 q 805 298 791 258 q 827 379 819 338 q 836 469 836 421 q 833 516 836 494 q 824 563 830 538 q 810 616 819 587 q 789 682 802 645 q 835 696 813 690 q 878 707 857 702 q 920 718 899 713 q 964 727 941 722 q 990 671 980 694 q 1007 625 1000 647 q 1018 578 1015 602 q 1022 529 1022 555 q 1012 438 1022 484 q 987 344 1002 391 q 949 249 970 296 q 904 157 927 202 q 857 70 880 112 q 812 -9 833 28 l 595 -9 l 531 237 l 428 -9 l 214 -9 l 31 706 l 212 706 l 355 132 l 484 431 l 412 706 l 596 706 l 736 132 z "},"Ŷ":{"ha":949,"x_min":44,"x_max":905,"o":"m 475 1301 l 699 1129 l 648 1070 l 475 1145 l 301 1070 l 250 1129 l 475 1301 m 905 975 l 570 439 l 570 0 l 380 0 l 380 439 l 44 975 l 250 975 l 475 566 l 699 975 l 905 975 z "},"ŷ":{"ha":872,"x_min":104,"x_max":755,"o":"m 433 1032 l 658 860 l 607 801 l 433 876 l 260 801 l 209 860 l 433 1032 m 755 705 l 755 5 q 729 -129 755 -74 q 657 -219 704 -184 q 546 -269 611 -254 q 404 -285 481 -285 q 281 -274 343 -285 q 166 -243 219 -264 q 195 -176 180 -209 q 226 -111 210 -144 q 325 -138 275 -127 q 422 -149 375 -149 q 451 -148 435 -149 q 484 -143 467 -147 q 515 -131 500 -139 q 543 -107 531 -122 q 562 -71 555 -93 q 570 -18 570 -49 l 570 120 l 564 120 q 518 61 542 86 q 466 18 494 35 q 405 -8 438 1 q 331 -16 372 -16 q 221 5 264 -16 q 151 65 178 26 q 115 163 125 106 q 104 292 104 220 l 104 705 l 290 705 l 290 239 q 317 150 290 180 q 391 119 344 119 q 442 132 417 119 q 490 163 467 144 q 532 209 513 183 q 568 260 552 234 l 568 705 l 755 705 z "},"Ÿ":{"ha":949,"x_min":44,"x_max":905,"o":"m 313 1257 q 349 1249 332 1257 q 378 1229 366 1242 q 399 1199 391 1216 q 406 1163 406 1182 q 399 1126 406 1143 q 379 1096 391 1109 q 349 1076 366 1083 q 313 1068 332 1068 q 275 1076 293 1068 q 244 1096 258 1083 q 224 1126 231 1109 q 216 1163 216 1143 q 224 1199 216 1182 q 244 1229 231 1217 q 275 1249 258 1242 q 313 1257 293 1257 m 640 1257 q 675 1249 659 1257 q 705 1229 692 1242 q 726 1199 718 1216 q 733 1163 733 1182 q 726 1126 733 1143 q 706 1096 718 1109 q 676 1076 693 1083 q 640 1068 659 1068 q 602 1076 620 1068 q 571 1096 585 1083 q 551 1126 558 1109 q 543 1163 543 1143 q 551 1199 543 1182 q 571 1229 558 1217 q 602 1249 585 1242 q 640 1257 620 1257 m 905 975 l 570 439 l 570 0 l 380 0 l 380 439 l 44 975 l 250 975 l 475 566 l 699 975 l 905 975 z "},"Ź":{"ha":876,"x_min":100,"x_max":775,"o":"m 415 1362 q 468 1390 439 1380 q 524 1400 497 1400 q 560 1395 543 1400 q 590 1379 577 1390 q 610 1352 603 1368 q 618 1314 618 1336 q 610 1265 618 1289 q 588 1215 603 1242 q 549 1153 572 1187 q 496 1070 526 1118 l 390 1070 l 454 1248 l 415 1362 m 771 975 l 771 862 l 325 139 l 775 139 l 775 0 l 100 0 l 100 109 l 547 836 l 115 836 l 115 975 l 771 975 z "},"ź":{"ha":740,"x_min":70,"x_max":661,"o":"m 361 1093 q 414 1121 385 1111 q 470 1131 443 1131 q 506 1125 489 1131 q 536 1109 523 1120 q 556 1083 549 1099 q 564 1045 564 1067 q 556 996 564 1019 q 533 945 549 972 q 495 884 518 918 q 441 801 472 849 l 336 801 l 400 979 l 361 1093 m 273 570 q 216 571 241 570 q 169 575 192 572 q 123 584 146 578 q 70 601 100 590 q 90 668 79 634 q 111 732 101 701 q 167 718 144 724 q 211 710 190 713 q 255 707 232 707 q 311 706 278 706 l 655 706 l 655 604 l 319 136 l 661 136 l 661 0 l 87 0 l 87 102 l 422 570 l 273 570 z "},"Ż":{"ha":876,"x_min":100,"x_max":775,"o":"m 438 1257 q 474 1249 457 1257 q 504 1229 491 1242 q 524 1199 517 1216 q 532 1163 532 1182 q 524 1126 532 1143 q 504 1096 517 1109 q 474 1076 492 1083 q 438 1068 457 1068 q 401 1076 418 1068 q 370 1096 383 1083 q 349 1126 357 1109 q 342 1163 342 1143 q 349 1199 342 1182 q 370 1229 357 1217 q 401 1249 383 1242 q 438 1257 418 1257 m 771 975 l 771 862 l 325 139 l 775 139 l 775 0 l 100 0 l 100 109 l 547 836 l 115 836 l 115 975 l 771 975 z "},"ż":{"ha":740,"x_min":70,"x_max":661,"o":"m 384 987 q 420 980 403 987 q 450 960 437 972 q 470 930 463 947 q 477 894 477 913 q 470 857 477 874 q 450 827 463 840 q 420 806 437 814 q 384 799 403 799 q 347 806 364 799 q 316 827 329 814 q 295 857 302 840 q 288 894 288 874 q 295 930 288 913 q 316 960 302 947 q 347 980 329 972 q 384 987 364 987 m 273 570 q 216 571 241 570 q 169 575 192 572 q 123 584 146 578 q 70 601 100 590 q 90 668 79 634 q 111 732 101 701 q 167 718 144 724 q 211 710 190 713 q 255 707 232 707 q 311 706 278 706 l 655 706 l 655 604 l 319 136 l 661 136 l 661 0 l 87 0 l 87 102 l 422 570 l 273 570 z "},"Ž":{"ha":876,"x_min":100,"x_max":775,"o":"m 612 1301 l 663 1242 l 438 1070 l 214 1242 l 264 1301 l 438 1226 l 612 1301 m 771 975 l 771 862 l 325 139 l 775 139 l 775 0 l 100 0 l 100 109 l 547 836 l 115 836 l 115 975 l 771 975 z "},"ž":{"ha":740,"x_min":70,"x_max":661,"o":"m 557 1032 l 608 973 l 384 801 l 159 973 l 210 1032 l 384 957 l 557 1032 m 273 570 q 216 571 241 570 q 169 575 192 572 q 123 584 146 578 q 70 601 100 590 q 90 668 79 634 q 111 732 101 701 q 167 718 144 724 q 211 710 190 713 q 255 707 232 707 q 311 706 278 706 l 655 706 l 655 604 l 319 136 l 661 136 l 661 0 l 87 0 l 87 102 l 422 570 l 273 570 z "},"Ș":{"ha":862,"x_min":69,"x_max":794,"o":"m 119 169 q 240 133 176 147 q 379 118 304 118 q 469 127 428 118 q 539 155 509 136 q 585 203 568 174 q 602 274 602 233 q 584 345 602 319 q 533 389 566 372 q 454 417 500 406 q 352 443 408 429 q 237 480 289 459 q 149 534 185 501 q 92 616 112 568 q 71 737 71 665 q 87 823 71 785 q 130 889 103 861 q 193 937 157 918 q 268 969 229 957 q 347 987 307 981 q 425 992 388 992 q 487 989 450 992 q 564 980 523 987 q 649 961 605 972 q 733 932 692 949 l 685 814 q 572 846 631 833 q 449 858 513 858 q 374 851 408 858 q 316 831 340 845 q 277 793 291 817 q 264 738 264 770 q 280 672 264 696 q 328 633 297 648 q 405 608 359 618 q 507 583 450 597 q 622 544 569 566 q 712 487 674 522 q 772 401 751 452 q 794 274 794 349 q 773 160 794 208 q 718 80 752 113 q 641 29 684 48 q 553 0 597 10 q 466 -13 508 -10 q 392 -16 424 -16 q 322 -12 361 -16 q 240 -1 283 -9 q 154 19 197 6 q 69 50 110 31 l 119 169 m 342 -123 q 396 -96 367 -106 q 452 -86 425 -86 q 488 -91 471 -86 q 517 -107 505 -96 q 538 -134 530 -118 q 545 -172 545 -150 q 538 -221 545 -197 q 515 -271 530 -244 q 477 -333 500 -298 q 423 -416 454 -368 l 317 -416 l 382 -238 l 342 -123 z "},"ș":{"ha":715,"x_min":64,"x_max":648,"o":"m 363 720 q 491 709 429 720 q 600 678 553 697 q 578 623 591 651 q 553 570 566 595 q 472 590 518 582 q 382 598 427 598 q 333 594 356 598 q 292 583 309 591 q 264 561 275 574 q 254 529 254 548 q 268 487 254 503 q 303 463 281 472 q 354 447 325 453 q 415 433 383 441 q 508 404 465 422 q 582 359 551 387 q 631 292 614 332 q 648 197 648 252 q 620 96 646 137 q 549 31 593 56 q 449 -5 505 5 q 335 -16 393 -16 q 258 -12 296 -16 q 184 0 219 -8 q 118 18 149 7 q 64 41 87 28 q 90 96 76 68 q 118 149 104 125 q 162 133 137 141 q 214 120 186 125 q 270 110 241 114 q 327 106 299 106 q 381 111 355 106 q 426 126 407 116 q 457 154 446 137 q 468 197 468 172 q 455 242 468 225 q 419 269 441 259 q 368 286 397 279 q 307 298 338 292 q 217 325 260 307 q 142 370 174 342 q 92 438 111 398 q 75 531 73 477 q 100 620 75 584 q 165 679 125 656 q 257 710 205 701 q 363 720 309 720 m 261 -123 q 314 -96 286 -106 q 370 -86 343 -86 q 406 -91 389 -86 q 436 -107 423 -96 q 456 -134 449 -118 q 464 -172 464 -150 q 456 -221 464 -197 q 434 -271 449 -244 q 395 -333 418 -298 q 342 -416 372 -368 l 236 -416 l 300 -238 l 261 -123 z "},"Ț":{"ha":884,"x_min":61,"x_max":823,"o":"m 823 975 l 823 836 l 538 836 l 538 0 l 349 0 l 349 836 l 61 836 l 61 975 l 823 975 m 336 -123 q 389 -96 360 -106 q 445 -86 418 -86 q 481 -91 464 -86 q 511 -107 498 -96 q 531 -134 524 -118 q 538 -172 538 -150 q 531 -221 538 -197 q 508 -271 524 -244 q 470 -333 493 -298 q 416 -416 447 -368 l 311 -416 l 375 -238 l 336 -123 z "},"ț":{"ha":652,"x_min":73,"x_max":597,"o":"m 360 867 l 360 705 l 597 705 l 597 570 l 360 570 l 360 231 q 363 176 360 198 q 374 142 366 155 q 397 124 382 130 q 433 119 411 119 q 484 124 455 119 q 552 138 513 129 q 561 109 556 125 q 571 76 566 93 q 581 42 576 58 q 590 14 586 26 q 546 2 571 7 q 492 -8 520 -4 q 436 -14 465 -12 q 382 -16 408 -16 q 336 -14 359 -16 q 292 -7 313 -12 q 254 6 271 -2 q 223 27 236 14 q 184 107 193 56 q 174 238 174 159 l 174 570 l 73 570 l 73 705 l 174 705 l 174 867 l 360 867 m 294 -123 q 348 -96 319 -106 q 404 -86 376 -86 q 439 -91 422 -86 q 469 -107 456 -96 q 490 -134 482 -118 q 497 -172 497 -150 q 490 -221 497 -197 q 467 -271 482 -244 q 429 -333 452 -298 q 375 -416 406 -368 l 269 -416 l 334 -238 l 294 -123 z "},"ˆ":{"ha":563,"x_min":57,"x_max":506,"o":"m 281 1032 l 506 860 l 455 801 l 281 876 l 108 801 l 57 860 l 281 1032 z "},"ˇ":{"ha":563,"x_min":57,"x_max":506,"o":"m 455 1032 l 506 973 l 281 801 l 57 973 l 108 1032 l 281 957 l 455 1032 z "},"˘":{"ha":491,"x_min":23,"x_max":468,"o":"m 468 1022 q 399 871 456 924 q 245 819 342 819 q 92 871 149 819 q 23 1022 35 924 l 91 1022 q 154 951 115 971 q 245 932 193 932 q 337 951 298 932 q 400 1022 376 971 l 468 1022 z "},"˙":{"ha":407,"x_min":107,"x_max":297,"o":"m 203 987 q 239 980 222 987 q 269 960 256 972 q 290 930 282 947 q 297 894 297 913 q 290 857 297 874 q 270 827 282 840 q 240 806 257 814 q 203 799 222 799 q 166 806 184 799 q 135 827 149 814 q 115 857 122 840 q 107 894 107 874 q 115 930 107 913 q 135 960 122 947 q 166 980 149 972 q 203 987 184 987 z "},"˚":{"ha":481,"x_min":109,"x_max":373,"o":"m 241 1058 q 293 1048 269 1058 q 335 1020 317 1038 q 363 978 353 1002 q 373 926 373 954 q 363 874 373 898 q 335 832 353 850 q 293 804 317 814 q 241 793 269 793 q 189 804 213 793 q 147 832 165 814 q 119 874 129 850 q 109 926 109 898 q 119 978 109 954 q 147 1020 129 1002 q 189 1048 165 1038 q 241 1058 213 1058 m 241 982 q 201 966 217 982 q 184 926 184 949 q 201 886 184 902 q 241 869 217 869 q 281 886 264 869 q 297 926 297 902 q 281 966 297 949 q 241 982 264 982 z "},"˛":{"ha":407,"x_min":96,"x_max":332,"o":"m 328 -245 q 276 -268 302 -260 q 212 -277 249 -277 q 165 -269 186 -277 q 129 -247 144 -262 q 104 -212 113 -233 q 96 -164 96 -191 q 103 -116 96 -138 q 125 -74 111 -94 q 160 -35 140 -54 q 205 8 180 -15 l 283 1 q 247 -38 262 -20 q 219 -72 231 -56 q 202 -105 208 -89 q 197 -138 197 -121 q 211 -184 197 -171 q 252 -197 226 -197 q 289 -193 269 -197 q 332 -180 309 -188 l 328 -245 z "},"˜":{"ha":589,"x_min":71,"x_max":517,"o":"m 517 955 q 504 901 515 928 q 476 851 493 873 q 435 816 458 829 q 383 802 412 802 q 337 810 359 802 q 292 826 314 817 q 250 842 271 835 q 208 850 229 850 q 171 835 183 850 q 152 795 158 821 l 71 795 q 85 850 74 823 q 113 899 96 877 q 154 934 130 920 q 205 948 177 948 q 252 941 229 948 q 296 924 275 933 q 339 908 318 916 q 380 901 360 901 q 418 915 406 901 q 437 955 431 930 l 517 955 z "},"˝":{"ha":597,"x_min":99,"x_max":598,"o":"m 124 1093 q 177 1121 149 1111 q 233 1131 206 1131 q 269 1125 252 1131 q 299 1109 286 1120 q 319 1083 312 1099 q 327 1045 327 1067 q 319 996 327 1019 q 297 945 312 972 q 258 884 281 918 q 205 801 235 849 l 99 801 l 163 979 l 124 1093 m 395 1093 q 449 1121 420 1111 q 505 1131 477 1131 q 541 1125 524 1131 q 570 1109 557 1120 q 591 1083 583 1099 q 598 1045 598 1067 q 591 996 598 1019 q 568 945 583 972 q 530 884 553 918 q 476 801 507 849 l 370 801 l 435 979 l 395 1093 z "},"ְ":{"ha":0,"x_min":243,"x_max":355,"o":"m 298 -86 q 339 -103 322 -86 q 355 -143 355 -119 q 351 -166 355 -156 q 338 -183 346 -176 q 319 -195 330 -191 q 298 -199 309 -199 q 259 -183 275 -199 q 243 -143 243 -167 q 260 -102 243 -118 q 298 -86 277 -86 m 298 -283 q 339 -300 322 -283 q 355 -340 355 -317 q 351 -363 355 -353 q 338 -381 346 -374 q 319 -392 330 -388 q 298 -396 309 -396 q 259 -380 275 -396 q 243 -340 243 -364 q 260 -299 243 -315 q 298 -283 277 -283 z "},"ֱ":{"ha":0,"x_min":45,"x_max":550,"o":"m 101 -86 q 142 -103 126 -86 q 158 -142 158 -120 q 141 -182 158 -165 q 101 -199 125 -199 q 61 -182 77 -199 q 45 -142 45 -165 q 61 -102 45 -119 q 101 -86 77 -86 m 298 -86 q 339 -103 323 -86 q 355 -142 355 -120 q 339 -182 355 -165 q 298 -199 322 -199 q 259 -182 275 -199 q 243 -142 243 -165 q 259 -102 243 -119 q 298 -86 275 -86 m 493 -86 q 534 -103 518 -86 q 550 -142 550 -120 q 533 -182 550 -165 q 493 -199 517 -199 q 453 -182 469 -199 q 437 -142 437 -165 q 453 -102 437 -119 q 493 -86 469 -86 m 198 -245 q 239 -262 223 -245 q 255 -301 255 -279 q 238 -341 255 -324 q 198 -358 222 -358 q 158 -341 174 -358 q 142 -301 142 -324 q 158 -262 142 -278 q 198 -245 174 -245 m 492 -283 q 533 -300 517 -283 q 549 -339 549 -317 q 533 -379 549 -362 q 492 -396 516 -396 q 453 -379 469 -396 q 437 -339 437 -362 q 453 -300 437 -316 q 492 -283 469 -283 z "},"ֲ":{"ha":0,"x_min":52,"x_max":540,"o":"m 483 -86 q 524 -103 508 -86 q 540 -142 540 -120 q 523 -182 540 -165 q 483 -199 507 -199 q 443 -182 459 -199 q 427 -142 427 -165 q 443 -102 427 -119 q 483 -86 459 -86 m 370 -103 l 370 -183 l 52 -183 l 52 -103 l 370 -103 m 482 -283 q 523 -300 507 -283 q 539 -339 539 -317 q 523 -379 539 -362 q 482 -396 506 -396 q 443 -379 458 -396 q 427 -339 427 -362 q 443 -300 427 -316 q 482 -283 458 -283 z "},"ֳ":{"ha":0,"x_min":52,"x_max":539,"o":"m 482 -86 q 523 -103 507 -86 q 539 -142 539 -120 q 523 -182 539 -165 q 482 -199 506 -199 q 443 -182 458 -199 q 427 -142 427 -165 q 443 -102 427 -119 q 482 -86 458 -86 m 370 -103 l 370 -183 l 249 -183 l 262 -353 l 156 -353 l 170 -183 l 52 -183 l 52 -103 l 370 -103 m 481 -283 q 523 -300 507 -283 q 538 -339 538 -317 q 522 -379 538 -362 q 481 -396 505 -396 q 442 -379 458 -396 q 426 -339 426 -362 q 442 -300 426 -316 q 481 -283 458 -283 z "},"ִ":{"ha":0,"x_min":243,"x_max":355,"o":"m 298 -86 q 339 -103 323 -86 q 355 -142 355 -120 q 339 -182 355 -165 q 298 -199 322 -199 q 259 -182 275 -199 q 243 -142 243 -165 q 259 -102 243 -119 q 298 -86 275 -86 z "},"ֵ":{"ha":0,"x_min":142,"x_max":452,"o":"m 198 -86 q 239 -103 223 -86 q 255 -142 255 -120 q 238 -182 255 -165 q 198 -199 222 -199 q 158 -182 174 -199 q 142 -142 142 -165 q 158 -102 142 -119 q 198 -86 174 -86 m 395 -86 q 436 -103 420 -86 q 452 -142 452 -120 q 436 -182 452 -165 q 395 -199 419 -199 q 356 -182 372 -199 q 340 -142 340 -165 q 356 -102 340 -119 q 395 -86 372 -86 z "},"ֶ":{"ha":0,"x_min":143,"x_max":453,"o":"m 199 -86 q 240 -103 224 -86 q 256 -142 256 -120 q 239 -182 256 -165 q 199 -199 222 -199 q 159 -182 175 -199 q 143 -142 143 -165 q 159 -102 143 -119 q 199 -86 175 -86 m 396 -86 q 437 -103 421 -86 q 453 -142 453 -120 q 436 -182 453 -165 q 396 -199 420 -199 q 356 -182 372 -199 q 340 -142 340 -165 q 356 -102 340 -119 q 396 -86 372 -86 m 296 -245 q 337 -262 321 -245 q 353 -301 353 -279 q 336 -341 353 -324 q 296 -358 319 -358 q 256 -341 272 -358 q 240 -301 240 -324 q 256 -262 240 -278 q 296 -245 272 -245 z "},"ַ":{"ha":0,"x_min":137,"x_max":455,"o":"m 455 -103 l 455 -183 l 137 -183 l 137 -103 l 455 -103 z "},"ָ":{"ha":0,"x_min":137,"x_max":455,"o":"m 455 -103 l 455 -183 l 334 -183 l 348 -353 l 241 -353 l 255 -183 l 137 -183 l 137 -103 l 455 -103 z "},"ֹ":{"ha":0,"x_min":142,"x_max":266,"o":"m 203 926 q 248 908 230 926 q 266 865 266 890 q 248 820 266 838 q 203 802 230 802 q 160 820 178 802 q 142 865 142 839 q 160 908 142 890 q 203 926 178 926 z "},"ֺ":{"ha":0,"x_min":142,"x_max":266,"o":"m 203 926 q 248 908 230 926 q 266 865 266 890 q 248 820 266 838 q 203 802 230 802 q 160 820 178 802 q 142 865 142 839 q 160 908 142 890 q 203 926 178 926 z "},"ֻ":{"ha":0,"x_min":243,"x_max":578,"o":"m 298 -86 q 339 -103 323 -86 q 355 -142 355 -120 q 339 -182 355 -165 q 298 -199 322 -199 q 259 -182 275 -199 q 243 -142 243 -165 q 259 -102 243 -119 q 298 -86 275 -86 m 410 -218 q 451 -235 435 -218 q 467 -273 467 -252 q 450 -313 467 -296 q 410 -330 433 -330 q 370 -313 386 -330 q 354 -273 354 -296 q 370 -234 354 -250 q 410 -218 386 -218 m 521 -350 q 562 -367 546 -350 q 578 -406 578 -384 q 561 -446 578 -429 q 521 -463 545 -463 q 481 -446 497 -463 q 465 -406 465 -429 q 481 -366 465 -382 q 521 -350 497 -350 z "},"ּ":{"ha":0,"x_min":142,"x_max":266,"o":"m 203 435 q 248 417 230 435 q 266 374 266 399 q 261 350 266 361 q 247 330 256 338 q 228 316 239 321 q 203 311 216 311 q 179 316 191 311 q 160 330 168 321 q 147 350 152 338 q 142 374 142 361 q 160 417 142 399 q 203 435 178 435 z "},"־":{"ha":562,"x_min":81,"x_max":480,"o":"m 81 705 l 480 705 l 480 558 l 81 558 l 81 705 z "},"׀":{"ha":471,"x_min":156,"x_max":315,"o":"m 315 1065 l 315 -89 l 156 -89 l 156 1065 l 315 1065 z "},"ׁ":{"ha":0,"x_min":142,"x_max":266,"o":"m 203 926 q 248 908 230 926 q 266 865 266 890 q 248 820 266 838 q 203 802 230 802 q 160 820 178 802 q 142 865 142 839 q 160 908 142 890 q 203 926 178 926 z "},"ׂ":{"ha":0,"x_min":142,"x_max":266,"o":"m 203 926 q 248 908 230 926 q 266 865 266 890 q 248 820 266 838 q 203 802 230 802 q 160 820 178 802 q 142 865 142 839 q 160 908 142 890 q 203 926 178 926 z "},"׃":{"ha":454,"x_min":127,"x_max":328,"o":"m 227 602 q 268 594 250 602 q 300 572 287 586 q 320 540 313 558 q 328 501 328 522 q 320 463 328 481 q 298 430 312 444 q 266 409 284 416 q 227 401 248 401 q 189 409 207 401 q 156 430 170 416 q 135 463 142 444 q 127 501 127 481 q 135 542 127 524 q 157 573 143 560 q 189 594 171 587 q 227 602 207 602 m 227 187 q 268 179 250 187 q 300 158 287 172 q 320 125 313 144 q 328 87 328 107 q 320 48 328 66 q 298 16 312 30 q 266 -6 284 2 q 227 -14 248 -14 q 189 -6 207 -14 q 156 16 170 2 q 135 48 142 30 q 127 87 127 66 q 135 127 127 109 q 157 159 143 146 q 189 180 171 172 q 227 187 207 187 z "},"ׇ":{"ha":0,"x_min":137,"x_max":455,"o":"m 455 -103 l 455 -183 l 334 -183 l 348 -353 l 241 -353 l 255 -183 l 137 -183 l 137 -103 l 455 -103 z "},"א":{"ha":861,"x_min":87,"x_max":781,"o":"m 750 468 q 729 393 741 426 q 702 332 718 359 q 665 282 686 305 q 615 237 644 259 l 765 64 l 646 -41 l 293 366 q 277 321 283 349 q 269 261 271 294 q 265 194 266 229 q 264 129 264 160 q 263 102 264 118 q 262 68 263 86 q 261 30 262 50 q 261 -7 261 11 l 88 -7 q 89 34 88 12 q 90 83 90 56 q 91 143 90 110 q 94 216 92 176 q 99 294 94 258 q 115 362 104 330 q 144 424 125 394 q 191 485 162 454 q 160 528 174 507 q 134 572 146 549 q 111 620 122 595 q 87 676 100 646 q 167 707 125 692 q 247 735 210 723 q 275 667 262 697 q 305 611 289 637 q 341 557 321 584 q 389 498 361 530 l 518 349 q 548 386 536 366 q 572 437 560 406 q 580 463 576 449 q 587 493 584 477 l 605 574 l 506 591 l 530 733 l 781 690 l 781 603 l 750 468 z "},"ב":{"ha":785,"x_min":54,"x_max":758,"o":"m 448 422 q 444 491 448 465 q 427 532 440 517 q 390 553 414 547 q 325 558 366 558 q 264 559 290 558 q 213 563 237 560 q 163 573 189 566 q 105 591 138 579 q 127 663 116 627 q 151 733 138 699 q 211 718 186 724 q 258 710 235 713 q 306 706 281 707 q 367 705 331 705 l 401 705 q 485 696 444 705 q 559 660 526 686 q 612 589 592 634 q 633 470 633 543 l 633 147 l 758 147 l 758 0 l 54 0 l 54 147 l 448 147 l 448 422 z "},"ג":{"ha":631,"x_min":35,"x_max":588,"o":"m 490 705 l 490 467 q 491 388 490 420 q 495 329 492 355 q 505 278 498 302 q 520 225 511 254 q 541 160 532 189 q 559 105 551 131 q 574 54 567 79 q 588 0 581 28 l 420 0 q 412 28 416 12 q 402 60 407 43 q 391 95 397 77 q 380 128 385 112 l 370 161 q 351 140 361 152 q 329 116 340 128 q 307 92 318 104 q 286 71 296 80 q 246 38 268 53 q 198 11 224 23 q 138 -11 171 -1 q 64 -24 104 -20 q 48 44 56 10 q 35 113 41 78 q 135 146 95 125 q 203 198 175 167 l 309 313 l 309 558 l 154 558 l 154 705 l 490 705 z "},"ד":{"ha":774,"x_min":70,"x_max":723,"o":"m 290 558 q 229 559 255 558 q 178 563 202 560 q 128 573 153 566 q 70 591 102 579 q 92 663 81 627 q 116 733 103 699 q 175 718 151 724 q 223 710 200 713 q 271 706 245 707 q 332 705 296 705 l 723 705 l 723 558 l 586 558 l 586 0 l 401 0 l 401 558 l 290 558 z "},"ה":{"ha":817,"x_min":90,"x_max":729,"o":"m 310 558 q 249 559 275 558 q 198 563 222 560 q 148 573 174 566 q 90 591 123 579 q 112 663 101 627 q 136 733 123 699 q 196 718 171 724 q 243 710 220 713 q 291 706 266 707 q 352 705 316 705 l 497 705 q 581 696 540 705 q 656 660 623 686 q 709 589 688 634 q 729 470 729 543 l 729 0 l 544 0 l 544 422 q 540 491 544 465 q 524 532 536 517 q 486 553 511 547 q 421 558 462 558 l 310 558 m 97 206 q 98 259 97 235 q 100 306 98 283 q 105 350 102 328 q 115 397 109 372 q 205 385 160 392 q 296 366 251 378 q 285 290 288 328 q 282 201 282 252 l 282 0 l 97 0 l 97 206 z "},"ו":{"ha":488,"x_min":89,"x_max":393,"o":"m 393 705 l 393 0 l 208 0 l 208 558 l 89 558 l 89 705 l 393 705 z "},"ז":{"ha":635,"x_min":52,"x_max":578,"o":"m 578 558 l 411 558 l 499 0 l 311 0 l 224 559 q 181 561 201 559 q 142 566 161 562 q 100 575 122 570 q 52 591 79 581 q 74 663 63 627 q 98 733 85 699 q 158 718 133 724 q 205 710 182 713 q 253 706 228 707 q 314 705 278 705 l 578 705 l 578 558 z "},"ח":{"ha":867,"x_min":56,"x_max":779,"o":"m 547 705 q 631 696 589 705 q 705 660 672 686 q 758 588 738 634 q 779 469 779 543 l 779 -1 l 595 -1 l 595 422 q 591 491 595 465 q 574 532 587 517 q 537 553 562 547 q 472 558 513 558 l 335 558 q 322 472 324 511 q 320 392 320 433 l 320 0 l 136 0 l 136 388 q 142 473 136 430 q 160 564 148 517 q 112 573 136 567 q 56 591 87 580 q 78 663 66 627 q 102 733 89 699 q 161 718 136 724 q 209 710 186 713 q 256 706 231 707 q 317 705 281 705 l 547 705 z "},"ט":{"ha":888,"x_min":77,"x_max":827,"o":"m 366 477 q 404 601 382 537 q 447 724 425 665 q 531 715 486 721 q 625 702 577 709 q 720 686 673 695 q 810 668 768 677 q 823 589 819 630 q 827 499 827 549 q 800 305 827 395 q 716 144 774 214 q 631 66 677 98 q 533 15 585 34 q 428 -13 482 -5 q 318 -22 373 -22 q 236 -18 277 -22 q 155 -7 195 -14 l 125 400 q 120 462 122 435 q 117 510 119 489 q 113 549 115 531 q 105 585 110 567 q 94 623 101 603 q 77 668 87 642 q 158 701 117 684 q 240 732 199 719 q 269 660 258 692 q 284 593 279 627 q 292 523 290 560 q 298 437 295 486 l 321 126 q 330 125 327 125 q 338 125 334 125 q 429 135 386 124 q 507 168 471 145 q 571 224 543 190 q 618 306 600 259 q 642 394 635 349 q 648 485 648 440 q 648 518 648 500 q 648 549 648 536 q 598 560 621 556 q 545 568 575 564 q 521 500 532 532 q 500 435 511 469 l 366 477 z "},"י":{"ha":491,"x_min":68,"x_max":408,"o":"m 408 705 l 408 448 q 408 387 408 411 q 405 342 407 362 q 399 302 403 321 q 391 260 396 283 l 208 287 q 214 324 212 307 q 219 360 217 341 q 222 403 221 379 q 223 460 223 427 l 223 558 l 68 558 l 68 705 l 408 705 z "},"ך":{"ha":739,"x_min":46,"x_max":629,"o":"m 266 558 q 205 559 231 558 q 154 563 178 560 q 104 573 130 566 q 46 591 79 579 q 68 663 57 627 q 92 733 79 699 q 152 718 127 724 q 199 710 176 713 q 247 706 222 707 q 308 705 272 705 l 610 705 q 620 670 616 685 q 625 643 623 654 q 628 621 627 631 q 629 600 629 610 l 629 -214 l 444 -214 l 444 558 l 266 558 z "},"כ":{"ha":743,"x_min":47,"x_max":659,"o":"m 318 558 q 257 559 283 558 q 206 563 231 560 q 156 573 182 566 q 98 591 131 579 q 120 663 109 627 q 144 733 132 699 q 204 718 179 724 q 251 710 229 713 q 299 706 274 707 q 360 705 324 705 l 420 705 q 502 695 462 705 q 575 657 543 684 q 629 584 608 630 q 654 466 650 538 q 656 390 656 428 q 658 312 657 353 q 659 228 659 272 q 659 134 659 184 q 658 104 659 117 q 655 76 657 91 q 649 43 653 61 q 640 -1 646 25 l 47 -1 l 47 146 l 475 146 q 475 213 475 178 q 474 284 474 248 q 472 355 473 319 q 471 422 471 390 q 467 491 471 465 q 450 532 463 517 q 413 553 437 547 q 348 558 389 558 l 318 558 z "},"ל":{"ha":736,"x_min":68,"x_max":654,"o":"m 253 903 l 253 705 l 637 705 q 645 679 642 690 q 650 658 648 667 q 654 627 653 642 q 654 594 654 613 l 654 448 q 622 296 654 368 q 526 154 590 225 l 353 -37 l 221 75 l 298 161 q 379 253 347 216 q 432 318 412 289 q 461 374 452 347 q 469 437 469 401 l 469 558 l 68 558 l 68 903 l 253 903 z "},"ם":{"ha":843,"x_min":22,"x_max":760,"o":"m 528 705 q 612 696 571 705 q 687 660 654 686 q 740 588 720 634 q 760 469 760 543 l 760 0 l 102 0 l 102 388 q 108 473 102 430 q 126 564 114 517 q 78 573 102 567 q 22 591 54 580 q 44 663 33 627 q 68 733 55 699 q 127 718 102 724 q 175 710 152 713 q 222 706 197 707 q 283 705 248 705 l 528 705 m 576 147 l 576 422 q 573 491 576 465 q 556 532 569 517 q 519 553 543 547 q 454 558 494 558 l 301 558 q 288 472 290 511 q 286 392 286 433 l 286 147 l 576 147 z "},"מ":{"ha":867,"x_min":77,"x_max":793,"o":"m 77 652 q 149 697 113 676 q 222 741 184 719 q 250 702 238 719 q 270 671 261 686 q 286 642 279 656 q 299 611 292 627 q 419 696 356 669 q 543 724 482 724 q 625 711 586 724 q 696 674 665 699 q 750 614 728 650 q 781 533 772 578 q 790 450 789 496 q 792 349 792 404 q 792 294 792 323 q 793 226 793 266 q 791 136 793 179 q 787 65 789 94 q 785 34 786 50 q 781 0 783 18 l 425 0 l 425 147 l 606 147 q 607 162 606 151 q 607 193 607 172 q 608 246 608 214 q 608 327 608 279 q 608 360 608 340 q 608 402 608 380 q 608 444 608 424 q 606 476 607 463 q 573 554 598 531 q 501 577 548 577 q 450 567 475 577 q 396 538 424 557 q 366 514 380 528 q 337 484 351 501 q 317 355 326 409 q 303 260 309 300 q 292 188 297 219 q 283 128 288 157 q 274 67 279 98 q 263 -6 269 35 l 79 -6 l 96 113 q 109 196 102 157 q 121 273 115 235 q 133 351 127 312 q 147 435 140 391 q 149 458 149 448 q 150 477 150 468 q 147 511 150 496 q 139 540 144 526 q 126 568 134 554 q 108 600 118 583 l 77 652 z "},"ן":{"ha":489,"x_min":74,"x_max":398,"o":"m 398 705 l 398 -214 l 213 -214 l 213 558 l 74 558 l 74 705 l 398 705 z "},"נ":{"ha":594,"x_min":48,"x_max":521,"o":"m 471 705 l 471 611 q 472 583 471 598 q 476 544 473 567 q 483 488 479 521 q 492 409 487 455 q 505 299 498 362 q 519 154 511 237 q 520 133 520 142 q 521 114 521 123 q 520 86 521 99 q 517 60 519 73 q 513 33 515 47 q 507 0 511 18 l 48 0 l 48 147 l 342 147 q 339 195 342 162 q 331 269 336 227 q 320 355 326 310 q 310 441 315 401 q 301 514 304 482 q 298 558 298 545 l 124 558 l 124 705 l 471 705 z "},"ס":{"ha":823,"x_min":43,"x_max":753,"o":"m 520 706 q 604 696 563 706 q 678 660 646 687 q 729 588 711 634 q 751 467 747 541 q 752 437 752 453 q 753 402 753 422 q 752 358 753 382 q 751 300 752 334 q 725 174 750 231 q 657 74 700 116 q 556 7 614 31 q 430 -16 498 -16 q 304 7 362 -16 q 204 74 247 31 q 136 174 161 116 q 109 300 111 231 q 108 314 108 307 q 108 328 108 320 q 112 392 108 359 q 125 460 115 425 q 144 513 133 486 q 170 561 155 539 q 111 570 140 564 q 43 591 81 577 q 65 663 54 627 q 89 733 76 699 q 144 719 121 724 q 188 711 167 714 q 231 707 209 708 q 282 706 252 706 l 304 706 l 520 706 m 337 559 q 318 523 326 541 q 306 488 311 505 q 292 417 296 455 q 288 344 288 380 q 289 304 288 323 q 292 270 290 286 q 309 213 297 238 q 338 169 320 187 q 380 141 356 151 q 432 131 404 131 q 485 141 460 131 q 527 169 509 151 q 556 213 545 187 q 571 269 568 238 q 573 301 572 283 q 574 339 574 319 q 573 382 574 361 q 571 423 572 404 q 564 492 568 465 q 548 533 559 518 q 512 553 536 548 q 448 559 489 559 l 337 559 z "},"ע":{"ha":848,"x_min":38,"x_max":790,"o":"m 479 589 q 500 661 489 626 q 522 733 511 696 l 785 664 q 788 616 787 640 q 790 569 789 593 q 772 469 783 516 q 745 378 760 421 q 677 239 716 300 q 590 131 638 178 q 488 48 543 83 q 373 -14 433 13 q 249 -62 313 -41 q 119 -100 184 -83 l 70 56 q 201 94 141 75 q 313 136 262 113 q 247 312 279 224 q 181 487 214 399 q 168 516 174 505 q 156 535 162 528 q 141 548 149 543 q 119 558 132 553 l 38 593 q 70 663 54 629 q 104 732 87 698 q 147 717 125 725 q 191 700 169 709 q 249 673 225 686 q 290 644 273 659 q 317 611 307 629 q 337 571 328 593 q 362 504 351 535 q 387 434 374 472 q 416 346 399 396 q 458 221 433 295 q 513 284 492 252 q 549 351 534 316 q 584 447 569 395 q 607 555 599 498 l 479 589 z "},"ף":{"ha":789,"x_min":73,"x_max":701,"o":"m 233 747 q 319 729 273 739 q 410 708 364 719 q 499 686 456 698 q 580 659 543 673 q 638 626 616 646 q 675 583 661 607 q 695 527 690 557 q 701 463 701 497 l 701 -214 l 524 -214 l 524 437 q 520 484 524 465 q 509 513 517 502 q 492 530 503 523 q 464 542 481 536 q 403 559 437 551 q 338 575 369 568 l 281 444 l 373 389 l 291 255 l 73 385 l 233 747 z "},"פ":{"ha":782,"x_min":61,"x_max":701,"o":"m 238 747 q 350 720 301 732 q 439 696 399 707 q 514 673 479 684 q 581 650 548 662 q 638 617 615 636 q 676 574 662 598 q 695 519 690 549 q 701 453 701 488 l 701 181 q 700 149 701 163 q 696 116 699 134 q 687 69 693 96 q 671 0 681 42 l 61 0 l 61 147 l 524 147 l 524 427 q 523 468 524 451 q 515 496 521 484 q 497 516 509 508 q 465 532 485 525 q 406 552 438 542 q 334 574 374 562 l 270 441 l 359 389 l 277 254 l 61 382 l 238 747 z "},"ץ":{"ha":810,"x_min":60,"x_max":732,"o":"m 465 737 l 731 676 q 732 664 732 671 q 732 648 732 656 q 731 613 732 631 q 730 582 731 595 q 691 472 712 522 q 641 378 670 422 q 562 285 608 328 q 452 202 516 243 l 514 56 q 537 1 528 23 q 555 -37 547 -21 q 585 -87 570 -67 q 623 -129 600 -108 q 563 -187 593 -159 q 502 -244 532 -216 l 475 -221 q 441 -184 456 -202 q 414 -147 427 -166 q 391 -105 402 -127 q 368 -54 380 -82 l 60 668 l 223 736 l 392 338 q 457 394 431 363 q 502 465 484 426 q 525 519 515 490 q 542 578 534 547 l 433 604 l 465 737 z "},"צ":{"ha":808,"x_min":47,"x_max":723,"o":"m 723 677 l 718 590 l 682 456 q 663 398 673 425 q 640 348 654 372 q 607 301 627 323 q 559 257 587 279 l 671 129 q 662 64 667 100 q 651 0 656 29 l 75 0 l 75 147 l 444 147 q 315 295 380 222 q 187 444 251 369 q 140 502 159 476 q 104 554 120 528 q 75 609 89 580 q 47 676 62 638 q 126 707 84 692 q 206 734 169 722 q 235 667 221 696 q 264 612 248 638 q 299 559 279 585 q 347 500 319 533 l 465 364 q 484 387 476 375 q 498 415 492 399 q 509 448 504 430 q 521 490 515 467 l 543 572 l 444 593 l 476 732 l 723 677 z "},"ק":{"ha":844,"x_min":86,"x_max":768,"o":"m 306 558 q 245 559 271 558 q 194 563 218 560 q 144 573 170 566 q 86 591 119 579 q 108 663 97 627 q 132 733 119 699 q 187 719 164 724 q 231 711 210 714 q 274 707 252 708 q 326 706 296 706 l 348 706 l 751 706 q 758 684 755 694 q 762 664 760 673 q 767 630 766 646 q 768 595 768 615 l 768 448 q 764 377 768 410 q 750 316 759 345 q 726 260 741 288 q 692 205 711 233 q 651 149 677 181 q 596 81 625 116 q 538 14 567 47 q 486 -43 509 -18 l 355 69 l 446 173 q 504 240 481 212 q 543 292 528 268 q 564 327 556 311 q 576 361 572 344 q 582 396 581 378 q 584 437 584 414 l 584 558 l 306 558 m 94 206 q 94 259 94 235 q 97 306 95 283 q 102 350 98 328 q 111 397 105 372 q 202 385 157 392 q 293 366 248 378 q 282 290 285 328 q 279 201 279 252 l 279 -214 l 94 -214 l 94 206 z "},"ר":{"ha":713,"x_min":56,"x_max":632,"o":"m 276 558 q 215 559 241 558 q 164 563 189 560 q 114 573 140 566 q 56 591 89 579 q 78 663 67 627 q 102 733 90 699 q 162 718 137 724 q 209 710 186 713 q 257 706 232 707 q 318 705 282 705 l 400 705 q 484 696 443 705 q 559 660 526 686 q 612 589 591 634 q 632 470 632 543 l 632 0 l 447 0 l 447 422 q 443 491 447 465 q 427 532 439 517 q 389 553 414 547 q 324 558 365 558 l 276 558 z "},"ש":{"ha":988,"x_min":59,"x_max":927,"o":"m 302 137 q 330 135 316 136 q 360 134 344 134 q 443 142 400 134 q 527 168 486 149 q 604 217 568 186 q 667 296 641 248 q 721 436 706 364 q 735 581 735 508 q 733 639 735 610 q 728 696 731 667 q 778 709 757 704 q 819 718 799 714 q 861 725 838 722 q 915 732 883 728 q 924 669 922 703 q 927 599 927 635 q 925 534 927 566 q 919 475 922 502 q 738 101 885 224 q 330 -22 591 -22 q 238 -18 286 -22 q 137 -9 190 -15 l 106 400 q 102 462 104 435 q 99 510 100 489 q 94 549 97 531 q 87 585 92 567 q 76 623 83 603 q 59 668 69 642 q 140 701 99 684 q 222 732 181 719 q 250 660 240 692 q 266 593 260 627 q 274 523 271 560 q 280 437 277 486 l 302 137 m 368 474 q 386 523 378 503 q 397 558 393 543 q 404 588 402 574 q 406 617 406 602 q 406 628 406 623 q 406 639 406 633 q 404 662 406 650 q 399 690 402 674 q 488 713 444 703 q 576 732 532 723 q 589 677 585 702 q 593 629 593 652 q 590 589 593 609 q 581 547 587 569 q 566 498 575 524 q 545 439 557 471 l 499 319 q 451 332 471 326 q 415 343 432 337 q 379 357 397 349 q 334 378 360 365 l 368 474 z "},"ת":{"ha":878,"x_min":41,"x_max":797,"o":"m 565 705 q 649 696 608 705 q 724 660 690 686 q 777 589 756 634 q 797 470 797 543 l 797 0 l 612 0 l 612 422 q 608 491 612 465 q 591 532 604 517 q 554 553 578 547 q 489 558 530 558 l 387 558 q 355 458 364 511 q 347 353 347 404 q 348 297 347 323 q 353 245 349 271 q 362 196 357 220 q 376 144 368 171 l 389 104 q 383 50 387 76 q 374 0 379 24 l 41 0 l 41 147 l 197 147 q 170 248 179 199 q 161 342 161 296 q 166 417 161 380 q 182 494 171 455 q 194 528 188 511 q 207 562 199 545 q 148 571 177 564 q 81 591 119 577 q 103 663 92 627 q 127 733 115 699 q 187 718 162 724 q 234 710 212 713 q 282 706 257 707 q 343 705 307 705 l 565 705 z "},"׳":{"ha":339,"x_min":47,"x_max":298,"o":"m 75 950 q 134 980 102 970 q 195 991 165 991 q 234 985 216 991 q 267 967 253 979 q 290 938 281 956 q 298 897 298 920 q 290 843 298 868 q 265 787 282 817 q 223 719 248 757 q 164 628 198 681 l 47 628 l 119 824 l 75 950 z "},"״":{"ha":638,"x_min":47,"x_max":598,"o":"m 375 951 q 434 981 402 970 q 495 991 465 991 q 534 986 515 991 q 567 968 553 980 q 590 939 581 956 q 598 897 598 921 q 590 843 598 869 q 565 788 582 818 q 523 720 548 758 q 464 629 498 682 l 347 629 l 418 825 l 375 951 m 75 949 q 134 980 102 969 q 195 991 165 991 q 234 985 216 991 q 267 967 253 979 q 290 938 281 956 q 298 897 298 920 q 290 843 298 868 q 265 787 282 817 q 223 719 248 757 q 164 628 198 681 l 47 628 l 119 824 l 75 949 z "},"Ẁ":{"ha":1267,"x_min":50,"x_max":1217,"o":"m 581 1070 q 527 1153 550 1118 q 489 1215 504 1187 q 466 1265 473 1242 q 458 1314 458 1289 q 466 1352 458 1336 q 486 1379 473 1368 q 516 1395 499 1390 q 552 1400 533 1400 q 608 1390 579 1400 q 661 1362 637 1380 l 622 1248 l 686 1070 l 581 1070 m 1217 975 l 1106 0 l 858 0 l 633 781 l 409 0 l 161 0 l 50 975 l 235 975 l 315 243 l 317 243 l 527 975 l 740 975 l 950 243 l 951 243 l 1031 975 l 1217 975 z "},"ẁ":{"ha":1069,"x_min":31,"x_max":1022,"o":"m 437 801 q 383 884 406 849 q 345 945 360 918 q 322 996 330 972 q 315 1045 315 1019 q 322 1083 315 1067 q 342 1109 330 1099 q 372 1125 355 1120 q 408 1131 389 1131 q 464 1121 435 1131 q 517 1093 493 1111 l 478 979 l 543 801 l 437 801 m 736 132 q 773 218 755 177 q 805 298 791 258 q 827 379 819 338 q 836 469 836 421 q 833 516 836 494 q 824 563 830 538 q 810 616 819 587 q 789 682 802 645 q 835 696 813 690 q 878 707 857 702 q 920 718 899 713 q 964 727 941 722 q 990 671 980 694 q 1007 625 1000 647 q 1018 578 1015 602 q 1022 529 1022 555 q 1012 438 1022 484 q 987 344 1002 391 q 949 249 970 296 q 904 157 927 202 q 857 70 880 112 q 812 -9 833 28 l 595 -9 l 531 237 l 428 -9 l 214 -9 l 31 706 l 212 706 l 355 132 l 484 431 l 412 706 l 596 706 l 736 132 z "}}}
